<?xml version="1.0" encoding="utf-8"?>
<!-- Generator: Adobe Illustrator 16.0.0, SVG Export Plug-In . SVG Version: 6.00 Build 0)  -->
<!DOCTYPE svg PUBLIC "-//W3C//DTD SVG 1.1//EN" "http://www.w3.org/Graphics/SVG/1.1/DTD/svg11.dtd">
<svg version="1.1" id="Layer_1" xmlns="http://www.w3.org/2000/svg" xmlns:xlink="http://www.w3.org/1999/xlink" x="0px" y="0px"
	 width="85.04px" height="60px" viewBox="0 0 85.04 60" enable-background="new 0 0 85.04 60" xml:space="preserve">
<g>
	<path fill="#1A0C3E" d="M56.252,46.093l0.011-0.008c0.251-0.175,6.153-4.314,7.949-6.049c3.537-3.417,12.16-14.836,12.526-15.32
		l0.065-0.106c0.041-0.083,0.997-2.037-0.126-3.488l-0.191-0.186c-0.436-0.335-0.971-0.505-1.59-0.505
		c-0.935,0-1.745,0.391-1.834,0.436l-0.105,0.065c-0.485,0.366-11.905,8.988-15.32,12.526c-1.734,1.795-5.876,7.699-6.051,7.95
		L51.452,41.6c-1.11,0.12-2.743,0.552-3.847,1.972c-1.672,2.148-2.235,3.614-3.55,9.224l-0.226,0.963l0.979-0.131
		c0.281-0.038,6.908-0.943,9.526-3.453C55.711,48.859,56.127,47.125,56.252,46.093z M73.72,22.065
		c0.156-0.069,0.658-0.27,1.177-0.27c0.315,0,0.563,0.073,0.689,0.161l0.067,0.061c0.478,0.621,0.053,1.7-0.05,1.937
		c-0.658,0.87-8.305,10.953-11.878,14.635l-4.745-4.541C62.571,30.518,72.849,22.724,73.72,22.065z M58.048,35.043l4.688,4.488
		c-0.321,0.275-0.7,0.586-1.121,0.918l-4.453-4.317C57.479,35.73,57.778,35.358,58.048,35.043z M56.323,37.219l4.201,4.074
		c-1.733,1.319-3.698,2.723-4.577,3.345l-2.914-2.914C53.647,40.855,55.021,38.935,56.323,37.219z M45.619,52.113
		c1.178-4.895,1.711-5.966,3.063-7.704c1.089-1.399,2.989-1.493,3.625-1.483l2.625,2.626c-0.037,0.672-0.256,2.41-1.539,3.637
		C51.644,50.864,47.52,51.772,45.619,52.113z"/>
	<path fill="#1A0C3E" d="M55.955,31.845c0.002-0.002,0.004-0.004,0.006-0.006V12.306c0-0.377-0.306-0.682-0.682-0.682H20.702
		c-0.376,0-0.683,0.305-0.683,0.682v21.117c0,0.377,0.307,0.683,0.683,0.683s0.682-0.306,0.682-0.683V12.988h33.213v20.44
		C55.109,32.789,55.581,32.231,55.955,31.845z"/>
	<path fill="#1A0C3E" d="M21.384,39.285v-1.001l8.179-8.372l9.227,9.129l0.18,0.178c0.268,0.264,0.699,0.264,0.965-0.005
		c0.266-0.268,0.262-0.699-0.006-0.965l-0.17-0.169l-0.515-0.509l3.858-3.823l5.364,6.33c0.483-0.204,0.962-0.343,1.416-0.439
		l-6.216-7.334c-0.123-0.146-0.301-0.232-0.49-0.24c-0.179-0.021-0.374,0.062-0.51,0.196l-4.392,4.352l-8.24-8.153
		c-0.128-0.126-0.301-0.197-0.48-0.197c-0.002,0-0.004,0-0.004,0c-0.184,0.002-0.357,0.076-0.483,0.206l-8.853,9.061
		c-0.125,0.127-0.194,0.299-0.194,0.477v9.057c0,0.35,0.268,0.628,0.607,0.667c0.026,0.004,0.049,0.016,0.075,0.016h22.324
		c0.144-0.495,0.287-0.944,0.435-1.364H21.384V39.285z"/>
	<path fill="#1A0C3E" d="M32.965,52.724c-2.13-0.492-4.123-0.952-5.551-0.952c-0.945,0-2.218,0.195-3.564,0.403
		c-1.568,0.242-3.344,0.515-4.827,0.515c-1.392,0-2.341-0.243-2.818-0.718c-0.951-0.953-0.617-3.711-0.158-6.697
		c0.185-1.198,0.359-2.329,0.359-3.168c0-1.74-0.292-4.355-0.573-6.885c-0.28-2.522-0.568-5.105-0.568-6.775
		c0-1.214,0.285-3.118,0.562-4.959c0.299-1.993,0.58-3.864,0.58-5.182c0-0.905-0.19-2.136-0.391-3.439
		c-0.505-3.274-0.869-6.299,0.189-7.357c0.413-0.413,1.243-0.622,2.469-0.622c1.31,0,2.882,0.241,4.27,0.454
		c1.259,0.194,2.394,0.368,3.23,0.368c1.548,0,3.757-0.33,6.093-0.678c2.196-0.329,4.458-0.667,5.91-0.667
		c1.479,0,3.78,0.338,6.007,0.665c2.272,0.334,4.621,0.68,6.202,0.68c0.867,0,2.042-0.181,3.287-0.373
		c1.441-0.222,3.071-0.473,4.438-0.473c1.268,0,2.128,0.217,2.556,0.646c0.941,0.941,0.627,3.557,0.156,6.625
		c-0.184,1.188-0.356,2.308-0.356,3.138c0,1.515,0.408,3.656,0.84,5.922c0.223,1.172,0.449,2.361,0.606,3.429
		c0.405-0.33,0.813-0.66,1.223-0.989c-0.144-0.858-0.311-1.759-0.488-2.695c-0.401-2.105-0.816-4.282-0.816-5.667
		c0-0.723,0.164-1.793,0.339-2.927c0.454-2.951,0.97-6.293-0.539-7.801C60.927,5.842,59.775,5.5,58.109,5.5
		c-1.466,0-3.152,0.26-4.64,0.489c-1.224,0.187-2.332,0.356-3.085,0.356c-1.478,0-3.778-0.338-6.005-0.665
		C42.107,5.346,39.758,5,38.176,5c-1.55,0-3.757,0.329-6.094,0.678c-2.195,0.328-4.457,0.667-5.909,0.667
		c-0.738,0-1.828-0.168-2.981-0.346c-1.454-0.224-3.093-0.476-4.519-0.476c-1.624,0-2.746,0.334-3.433,1.021
		c-1.634,1.634-1.071,5.295-0.574,8.524c0.192,1.253,0.375,2.435,0.375,3.237c0,1.215-0.286,3.122-0.563,4.965
		c-0.299,1.985-0.579,3.857-0.579,5.176c0,1.742,0.291,4.361,0.572,6.89c0.281,2.52,0.569,5.102,0.569,6.77
		c0,0.731-0.166,1.813-0.344,2.957c-0.458,2.979-0.978,6.352,0.543,7.871c0.752,0.753,1.989,1.119,3.782,1.119
		c1.584,0,3.41-0.281,5.021-0.528c1.315-0.202,2.539-0.391,3.37-0.391c1.267,0,3.28,0.465,5.227,0.915
		c2.114,0.488,4.11,0.95,5.535,0.95c0.872,0,1.966-0.165,3.157-0.392l0.341-1.454c-1.345,0.272-2.598,0.481-3.498,0.481
		C36.912,53.636,34.905,53.173,32.965,52.724z"/>
	<path fill="#1A0C3E" d="M40.113,22.437c0,2.271,1.849,4.119,4.119,4.119c2.271,0,4.119-1.848,4.119-4.119
		c0-2.271-1.848-4.119-4.119-4.119C41.962,18.317,40.113,20.165,40.113,22.437z M46.987,22.437c0,1.519-1.236,2.755-2.755,2.755
		s-2.755-1.236-2.755-2.755c0-1.52,1.236-2.755,2.755-2.755S46.987,20.917,46.987,22.437z"/>
	<path fill="#1A0C3E" d="M65.434,53.219H50.507c-0.345,0-0.625,0.28-0.625,0.625s0.28,0.625,0.625,0.625h14.927
		c0.345,0,0.625-0.28,0.625-0.625S65.778,53.219,65.434,53.219z"/>
	<path fill="#1A0C3E" d="M70.743,53.219h-3.178c-0.345,0-0.625,0.28-0.625,0.625s0.28,0.625,0.625,0.625h3.178
		c0.345,0,0.625-0.28,0.625-0.625S71.088,53.219,70.743,53.219z"/>
	<path fill="#1A0C3E" d="M80.153,50.415H59.826c-0.345,0-0.625,0.28-0.625,0.625s0.28,0.625,0.625,0.625h20.327
		c0.345,0,0.625-0.28,0.625-0.625S80.498,50.415,80.153,50.415z"/>
</g>
</svg>
