<?xml version="1.0" encoding="utf-8"?>
<!-- Generator: Adobe Illustrator 16.0.0, SVG Export Plug-In . SVG Version: 6.00 Build 0)  -->
<!DOCTYPE svg PUBLIC "-//W3C//DTD SVG 1.1//EN" "http://www.w3.org/Graphics/SVG/1.1/DTD/svg11.dtd">
<svg version="1.1" id="Layer_1" xmlns="http://www.w3.org/2000/svg" xmlns:xlink="http://www.w3.org/1999/xlink" x="0px" y="0px"
	 width="85.04px" height="60px" viewBox="0 0 85.04 60" enable-background="new 0 0 85.04 60" xml:space="preserve">
<g>
	<g>
		<g>
			<g>
				<path fill="#1A0C3E" d="M41.15,36.43c-1.089,0-2.055,0.479-2.796,1.388c-0.492,0.672-0.613,1.312-0.64,1.492
					c-0.152,0.991,0.137,1.997,0.792,2.761c0.659,0.768,1.61,1.208,2.609,1.208c1.877,0,3.436-1.536,3.475-3.424
					C44.552,37.937,43.04,36.43,41.15,36.43z M41.116,42.294c-0.712,0-1.391-0.315-1.863-0.865
					c-0.469-0.546-0.675-1.266-0.563-1.977c0.001-0.018,0.068-0.52,0.443-1.033c0.547-0.669,1.224-1.006,2.018-1.006
					c1.35,0,2.429,1.073,2.456,2.441C43.58,41.203,42.462,42.294,41.116,42.294z M40.873,21.21c2.058,0,2.763,1.489,2.835,1.658
					c0.151,0.39,0.177,0.669,0.177,1.113c0,1.693-1.052,2.992-2.165,4.369c-0.354,0.436-0.719,0.888-1.043,1.351
					c-1.204,1.732-1.41,2.993-1.646,4.907c-0.033,0.264,0.149,0.504,0.414,0.545c0.479,0.075,0.951,0.111,1.409,0.146
					c0.745,0.032,1.501,0.001,2.294-0.033l0.037-0.002c0.227-0.011,0.428-0.245,0.474-0.458c0.231-1.103,0.434-2.055,2.218-3.276
					c0.341-0.241,0.687-0.448,1.022-0.649l0.046-0.028c0.228-0.136,0.455-0.273,0.689-0.425c1.323-0.883,2.932-2.176,3.631-4.353
					c0.291-0.917,0.335-1.728,0.335-2.129c0-1.517-0.493-2.931-1.426-4.088c-0.429-0.536-0.928-0.937-1.167-1.13
					c-0.291-0.209-2.911-2.004-6.747-2.004c-2.593,0-4.778,0.809-6.494,2.403c-1.477,1.477-2.326,3.349-2.326,5.132
					c0,1.703,0.789,3.807,2.551,4.666c0.771,0.406,1.463,0.406,1.758,0.406c0.413,0,2.519-0.089,3.484-1.849
					c0.409-0.736,0.409-1.433,0.409-1.73c0-1.934-1.302-3.337-3.095-3.337c-0.108,0-0.209,0.003-0.305,0.011l-0.332,0.024
					l0.219-0.25c0.269-0.308,0.607-0.524,1.099-0.701C39.99,21.23,40.68,21.21,40.873,21.21z M41.524,34.328
					c-0.211,0-0.416-0.003-0.61-0.012L40.722,34.3c-0.17-0.014-0.341-0.027-0.512-0.044l-0.141-0.015l0.02-0.14
					c0.215-1.576,0.469-2.503,1.396-3.836c0.292-0.418,0.613-0.817,1.002-1.297c1.117-1.382,2.382-2.948,2.382-4.987
					c0-0.542-0.039-0.938-0.249-1.482c-0.448-1.046-1.699-2.272-3.746-2.272c-0.298,0-1.084,0.033-1.974,0.342
					c-1.396,0.505-1.837,1.286-2.395,2.514c-0.084,0.182-0.049,0.394,0.087,0.539c0.135,0.144,0.353,0.196,0.532,0.125
					c0.845-0.316,1.035-0.351,1.424-0.351c1.458,0,2.109,1.182,2.109,2.354c0,0.259,0,0.739-0.285,1.255
					c-0.699,1.275-2.308,1.341-2.623,1.341c-0.26,0-0.745,0-1.313-0.3c-1.381-0.674-2.011-2.437-2.011-3.789
					c0-1.524,0.738-3.136,2.024-4.424c1.521-1.413,3.477-2.128,5.812-2.128c2.882,0,5.229,1.141,6.162,1.814
					c0.188,0.149,0.614,0.49,0.984,0.953c0.791,0.98,1.209,2.182,1.209,3.472c0,0.348-0.038,1.045-0.288,1.828
					c-0.478,1.492-1.444,2.638-3.231,3.83c-0.224,0.145-0.444,0.277-0.666,0.41c-0.418,0.25-0.77,0.464-1.114,0.708
					c-1.886,1.29-2.295,2.47-2.53,3.475l-0.024,0.102l-0.104,0.005C42.225,34.319,41.853,34.328,41.524,34.328z"/>
			</g>
		</g>
	</g>
	<g>
		<g>
			<g>
				<path fill="#1A0C3E" d="M59.106,41.203c-0.376,0-0.682-0.306-0.682-0.683V12.988H25.212v20.435c0,0.377-0.306,0.683-0.682,0.683
					c-0.377,0-0.683-0.306-0.683-0.683V12.306c0-0.377,0.306-0.682,0.683-0.682h34.576c0.376,0,0.683,0.305,0.683,0.682v28.215
					C59.789,40.897,59.482,41.203,59.106,41.203z"/>
			</g>
		</g>
		<g>
			<g>
				<path fill="#1A0C3E" d="M52.337,47.744H24.53c-0.377,0-0.683-0.306-0.683-0.682v-9.057c0-0.376,0.306-0.682,0.683-0.682
					c0.376,0,0.682,0.306,0.682,0.682v8.374h27.125c0.376,0,0.683,0.307,0.683,0.683S52.713,47.744,52.337,47.744z"/>
			</g>
		</g>
	</g>
	<g>
		<g>
			<path fill="#1A0C3E" d="M31.241,53.135c1.268,0,3.28,0.465,5.227,0.915c2.114,0.487,4.111,0.95,5.536,0.95
				c1.493,0,3.597-0.46,5.824-0.946c2.085-0.455,4.213-0.919,5.558-0.919c0.825,0,2.038,0.186,3.323,0.384
				c1.601,0.247,3.412,0.526,4.995,0.526c1.778,0,3.005-0.363,3.752-1.11c1.903-1.902,1.236-6.232,0.649-10.052
				c-0.231-1.499-0.449-2.913-0.449-3.88c0-1.193,0.414-3.09,0.813-4.923c0.434-1.994,0.844-3.875,0.844-5.218
				c0-1.515-0.409-3.655-0.84-5.922c-0.401-2.105-0.816-4.281-0.816-5.667c0-0.723,0.164-1.792,0.339-2.927
				c0.454-2.951,0.97-6.293-0.539-7.8C64.754,5.842,63.603,5.5,61.938,5.5c-1.467,0-3.152,0.26-4.641,0.489
				c-1.224,0.187-2.332,0.356-3.084,0.356c-1.479,0-3.779-0.337-6.006-0.665C45.936,5.346,43.585,5,42.004,5
				c-1.549,0-3.757,0.329-6.093,0.679C33.715,6.007,31.453,6.345,30,6.345c-0.737,0-1.826-0.167-2.981-0.345
				c-1.454-0.224-3.093-0.476-4.519-0.476c-1.622,0-2.746,0.334-3.432,1.022c-1.635,1.634-1.072,5.294-0.576,8.523
				c0.194,1.253,0.375,2.436,0.375,3.237c0,1.216-0.285,3.122-0.562,4.965c-0.297,1.985-0.578,3.857-0.578,5.175
				c0,1.742,0.292,4.361,0.573,6.891c0.279,2.52,0.566,5.102,0.566,6.77c0,0.731-0.166,1.813-0.341,2.957
				c-0.459,2.979-0.979,6.352,0.542,7.871c0.752,0.753,1.988,1.119,3.782,1.119c1.584,0,3.411-0.281,5.022-0.528
				C29.188,53.322,30.409,53.135,31.241,53.135z M42.004,53.636c-1.266,0-3.271-0.464-5.212-0.912
				c-2.128-0.492-4.123-0.953-5.551-0.953c-0.944,0-2.217,0.196-3.564,0.404c-1.568,0.242-3.343,0.515-4.826,0.515
				c-1.393,0-2.34-0.243-2.818-0.719c-0.951-0.952-0.618-3.71-0.158-6.696c0.184-1.198,0.357-2.329,0.357-3.168
				c0-1.74-0.289-4.355-0.571-6.885c-0.281-2.522-0.568-5.105-0.568-6.775c0-1.214,0.285-3.117,0.562-4.959
				c0.299-1.993,0.578-3.863,0.578-5.182c0-0.905-0.188-2.136-0.389-3.439c-0.504-3.274-0.868-6.299,0.189-7.357
				c0.413-0.413,1.243-0.623,2.468-0.623c1.311,0,2.884,0.241,4.271,0.454C28.028,7.535,29.163,7.709,30,7.709
				c1.55,0,3.756-0.329,6.093-0.678c2.197-0.328,4.458-0.667,5.911-0.667c1.478,0,3.78,0.339,6.006,0.665
				c2.272,0.334,4.621,0.68,6.203,0.68c0.866,0,2.042-0.18,3.286-0.372c1.441-0.221,3.072-0.473,4.438-0.473
				c1.267,0,2.127,0.218,2.556,0.646c0.94,0.941,0.626,3.558,0.155,6.625c-0.184,1.188-0.356,2.309-0.356,3.138
				c0,1.516,0.408,3.657,0.84,5.922c0.401,2.104,0.816,4.282,0.816,5.667c0,1.196-0.413,3.09-0.813,4.924
				c-0.434,1.993-0.844,3.875-0.844,5.217c0,1.074,0.227,2.537,0.465,4.084c0.512,3.331,1.149,7.47-0.264,8.883
				c-0.472,0.473-1.41,0.711-2.789,0.711c-1.47,0-3.228-0.271-4.779-0.509c-1.358-0.209-2.615-0.401-3.539-0.401
				c-1.498,0-3.606,0.461-5.837,0.946C45.486,53.169,43.354,53.636,42.004,53.636z"/>
		</g>
	</g>
	<g>
		<path fill="#1A0C3E" d="M59.106,47.688h-4.18c-0.345,0-0.625-0.28-0.625-0.625s0.28-0.625,0.625-0.625h4.18
			c0.345,0,0.625,0.28,0.625,0.625S59.451,47.688,59.106,47.688z"/>
	</g>
	<g>
		<g>
			<path fill="#1A0C3E" d="M59.106,47.744c-0.376,0-0.682-0.306-0.682-0.682v-4.528c0-0.376,0.306-0.683,0.682-0.683
				s0.683,0.307,0.683,0.683v4.528C59.789,47.438,59.482,47.744,59.106,47.744z"/>
		</g>
	</g>
</g>
</svg>
