<?xml version="1.0" encoding="utf-8"?>
<!-- Generator: Adobe Illustrator 16.0.0, SVG Export Plug-In . SVG Version: 6.00 Build 0)  -->
<!DOCTYPE svg PUBLIC "-//W3C//DTD SVG 1.1//EN" "http://www.w3.org/Graphics/SVG/1.1/DTD/svg11.dtd">
<svg version="1.1" id="Layer_1" xmlns="http://www.w3.org/2000/svg" xmlns:xlink="http://www.w3.org/1999/xlink" x="0px" y="0px"
	 width="85.04px" height="60px" viewBox="0 0 85.04 60" enable-background="new 0 0 85.04 60" xml:space="preserve">
<g>
	<path fill="#1A0C3E" d="M54.877,11.681H24.371c-0.345,0-0.625,0.28-0.625,0.625v21.117c0,0.345,0.28,0.625,0.625,0.625
		s0.625-0.28,0.625-0.625V12.931h27.047C52.932,12.39,53.883,11.97,54.877,11.681z"/>
	<path fill="#1A0C3E" d="M46.842,32.122c-0.17-0.018-0.343,0.058-0.467,0.18l-4.433,4.392l-8.28-8.193
		c-0.117-0.116-0.275-0.181-0.439-0.181c-0.002,0-0.004,0-0.005,0c-0.167,0.001-0.326,0.069-0.442,0.188l-8.852,9.061
		c-0.114,0.116-0.178,0.273-0.178,0.437v9.057c0,0.345,0.28,0.625,0.625,0.625h27.807c0.345,0,0.625-0.28,0.625-0.625
		s-0.28-0.625-0.625-0.625H24.996v-8.177l8.234-8.429l9.447,9.347c0.246,0.242,0.642,0.241,0.884-0.005
		c0.243-0.245,0.24-0.641-0.005-0.884l-0.726-0.718l3.943-3.906l11.696,13.801c0.121,0.143,0.297,0.221,0.477,0.221
		c0.072,0,0.145-0.013,0.215-0.038c0.246-0.091,0.41-0.325,0.41-0.587V34.556c-0.413,0.05-0.83,0.075-1.25,0.081v10.722
		L47.291,32.342C47.179,32.209,47.016,32.129,46.842,32.122z"/>
	<path fill="#1A0C3E" d="M38.104,22.437c0-2.24-1.822-4.062-4.063-4.062c-2.239,0-4.062,1.822-4.062,4.062s1.822,4.062,4.062,4.062
		C36.282,26.499,38.104,24.676,38.104,22.437z M31.23,22.437c0-1.55,1.262-2.812,2.812-2.812c1.551,0,2.813,1.261,2.813,2.812
		c0,1.551-1.262,2.812-2.813,2.812C32.492,25.249,31.23,23.987,31.23,22.437z"/>
	<path fill="#1A0C3E" d="M65.498,39.003c0-1.017,0.301-2.545,0.636-4.109l-1.125-1.256c-0.011,0.049-0.021,0.099-0.032,0.148
		c-0.434,1.993-0.843,3.876-0.843,5.217c0,1.075,0.226,2.537,0.465,4.084c0.512,3.331,1.148,7.471-0.265,8.884
		c-0.471,0.472-1.41,0.711-2.789,0.711c-1.47,0-3.227-0.271-4.778-0.51c-1.359-0.209-2.616-0.4-3.54-0.4
		c-1.498,0-3.606,0.46-5.837,0.946c-2.063,0.451-4.195,0.918-5.545,0.918c-1.264,0-3.271-0.463-5.212-0.912
		c-2.129-0.492-4.122-0.952-5.55-0.952c-0.945,0-2.218,0.195-3.565,0.403c-1.567,0.242-3.343,0.515-4.826,0.515
		c-1.393,0-2.341-0.243-2.818-0.718c-0.951-0.953-0.618-3.711-0.158-6.697c0.184-1.198,0.358-2.329,0.358-3.168
		c0-1.74-0.292-4.355-0.573-6.885c-0.28-2.522-0.567-5.105-0.567-6.775c0-1.214,0.285-3.118,0.562-4.959
		c0.298-1.993,0.579-3.864,0.579-5.182c0-0.905-0.189-2.136-0.39-3.439c-0.505-3.274-0.87-6.299,0.189-7.357
		c0.413-0.413,1.243-0.622,2.469-0.622c1.31,0,2.882,0.241,4.27,0.454c1.258,0.194,2.394,0.368,3.229,0.368
		c1.549,0,3.757-0.33,6.093-0.678c2.197-0.329,4.458-0.667,5.911-0.667c1.479,0,3.78,0.338,6.007,0.665
		c2.271,0.334,4.621,0.68,6.202,0.68c0.866,0,2.042-0.181,3.287-0.373c1.44-0.222,3.071-0.473,4.438-0.473
		c1.268,0,2.127,0.217,2.556,0.646c0.84,0.839,0.679,3.013,0.301,5.647c0.433,0.287,0.845,0.604,1.238,0.948
		c0.443-2.891,0.894-6.093-0.575-7.561C64.595,5.842,63.444,5.5,61.778,5.5c-1.467,0-3.152,0.26-4.641,0.489
		c-1.223,0.187-2.331,0.356-3.084,0.356c-1.479,0-3.779-0.338-6.005-0.665C45.776,5.346,43.426,5,41.845,5
		c-1.55,0-3.757,0.329-6.094,0.678c-2.195,0.328-4.457,0.667-5.91,0.667c-0.737,0-1.827-0.168-2.98-0.346
		c-1.455-0.224-3.093-0.476-4.519-0.476c-1.624,0-2.747,0.334-3.433,1.021c-1.634,1.634-1.071,5.295-0.575,8.524
		c0.193,1.253,0.375,2.435,0.375,3.237c0,1.215-0.285,3.122-0.563,4.965c-0.298,1.985-0.578,3.857-0.578,5.176
		c0,1.742,0.291,4.361,0.572,6.89c0.281,2.52,0.568,5.102,0.568,6.77c0,0.731-0.166,1.813-0.343,2.957
		c-0.458,2.979-0.979,6.352,0.543,7.871c0.752,0.753,1.989,1.119,3.782,1.119c1.583,0,3.41-0.281,5.021-0.528
		c1.315-0.202,2.538-0.391,3.37-0.391c1.266,0,3.28,0.465,5.227,0.915c2.114,0.488,4.11,0.95,5.535,0.95
		c1.493,0,3.597-0.46,5.824-0.946c2.086-0.455,4.213-0.919,5.558-0.919c0.825,0,2.038,0.186,3.323,0.384
		c1.601,0.247,3.412,0.526,4.995,0.526c1.778,0,3.006-0.363,3.753-1.11c1.903-1.902,1.236-6.232,0.648-10.052
		C65.715,41.384,65.498,39.97,65.498,39.003z"/>
	<path fill="#1A0C3E" d="M62.146,22.936c0.155-0.141,0.265-0.334,0.297-0.56l0.771-5.326c0.076-0.506-0.276-0.978-0.784-1.05
		c-0.507-0.072-0.975,0.277-1.05,0.785l-0.77,5.327c-0.074,0.506,0.278,0.978,0.782,1.051
		C61.677,23.203,61.948,23.112,62.146,22.936z"/>
	<path fill="#1A0C3E" d="M71.908,37.104l-6.195-6.923l0.086-0.091c3.684-3.926,3.756-10.144,0.165-14.156
		c-1.726-1.927-4.094-3.143-6.671-3.423c-2.957-0.321-5.919,0.628-8.128,2.605c-2.063,1.848-3.295,4.385-3.468,7.145
		c-0.028,0.422,0.279,0.789,0.7,0.834l0.038,0.003c0.211,0.014,0.413-0.056,0.572-0.195c0.157-0.14,0.252-0.333,0.265-0.544
		c0.151-2.346,1.197-4.5,2.947-6.065c1.752-1.569,4.018-2.369,6.377-2.251l0.149,0.007l-0.729,5.037
		c-0.063,0.432,0.237,0.833,0.669,0.895h0.001c0.251,0.027,0.474-0.044,0.64-0.193c0.138-0.123,0.229-0.292,0.256-0.477l0.725-5.015
		l0.148,0.039c1.677,0.445,3.175,1.362,4.331,2.654c1.582,1.768,2.383,4.051,2.252,6.427s-1.178,4.557-2.947,6.14
		c-1.875,1.68-4.391,2.485-6.901,2.213c-2.189-0.237-4.201-1.27-5.668-2.907c-0.36-0.404-0.677-0.831-0.943-1.267
		c-0.223-0.358-0.729-0.481-1.089-0.258c-0.371,0.229-0.487,0.717-0.258,1.088c0.324,0.526,0.7,1.028,1.113,1.491
		c1.724,1.925,4.091,3.14,6.664,3.42c2.658,0.289,5.296-0.431,7.425-2.026l0.099-0.075l0.084,0.094l6.113,6.829
		c0.28,0.313,0.804,0.34,1.115,0.062c0.157-0.142,0.251-0.334,0.263-0.545C72.119,37.465,72.05,37.262,71.908,37.104z"/>
	<path fill="#1A0C3E" d="M49.115,26.236c0.118-0.032,0.226-0.09,0.319-0.174c0.224-0.2,0.315-0.505,0.238-0.795l-0.07-0.256
		c-0.087-0.316-0.354-0.543-0.678-0.579c-0.098-0.011-0.195-0.003-0.292,0.023c-0.203,0.054-0.371,0.184-0.477,0.367
		c-0.107,0.184-0.136,0.399-0.08,0.604l0.069,0.255C48.255,26.086,48.701,26.348,49.115,26.236z"/>
</g>
</svg>
