<?xml version="1.0" encoding="utf-8"?>
<!-- Generator: Adobe Illustrator 16.0.0, SVG Export Plug-In . SVG Version: 6.00 Build 0)  -->
<!DOCTYPE svg PUBLIC "-//W3C//DTD SVG 1.1//EN" "http://www.w3.org/Graphics/SVG/1.1/DTD/svg11.dtd">
<svg version="1.1" id="Layer_1" xmlns="http://www.w3.org/2000/svg" xmlns:xlink="http://www.w3.org/1999/xlink" x="0px" y="0px"
	 width="85.04px" height="60px" viewBox="0 0 85.04 60" enable-background="new 0 0 85.04 60" xml:space="preserve">
<g>
	<path fill="#1A0C3E" d="M65.656,39.003c0-1.193,0.414-3.09,0.813-4.923c0.434-1.994,0.844-3.875,0.844-5.218
		c0-1.515-0.409-3.655-0.84-5.922c-0.401-2.105-0.816-4.281-0.816-5.667c0-0.723,0.164-1.792,0.339-2.927
		c0.454-2.951,0.97-6.293-0.539-7.8C64.754,5.842,63.603,5.5,61.938,5.5c-1.467,0-3.152,0.26-4.641,0.489
		c-1.224,0.187-2.332,0.356-3.084,0.356c-1.479,0-3.779-0.337-6.006-0.665C45.936,5.346,43.585,5,42.004,5
		c-1.55,0-3.757,0.329-6.094,0.679C33.715,6.007,31.453,6.345,30,6.345c-0.737,0-1.827-0.167-2.98-0.345
		c-1.455-0.224-3.093-0.476-4.519-0.476c-1.624,0-2.747,0.334-3.433,1.022c-1.634,1.634-1.071,5.294-0.575,8.523
		c0.193,1.253,0.376,2.436,0.376,3.237c0,1.216-0.286,3.122-0.563,4.965c-0.298,1.985-0.578,3.857-0.578,5.175
		c0,1.742,0.291,4.361,0.572,6.891c0.281,2.52,0.569,5.102,0.569,6.77c0,0.731-0.167,1.813-0.344,2.957
		c-0.458,2.979-0.979,6.352,0.543,7.871c0.752,0.753,1.989,1.119,3.782,1.119c1.583,0,3.41-0.281,5.021-0.528
		c1.315-0.203,2.538-0.391,3.37-0.391c1.266,0,3.28,0.465,5.226,0.915c2.115,0.487,4.111,0.95,5.536,0.95
		c1.493,0,3.597-0.46,5.824-0.946c2.085-0.455,4.213-0.919,5.558-0.919c0.825,0,2.038,0.186,3.323,0.384
		c1.601,0.247,3.412,0.526,4.995,0.526c1.778,0,3.005-0.363,3.752-1.11c1.903-1.902,1.236-6.232,0.649-10.052
		C65.874,41.384,65.656,39.97,65.656,39.003z M64.757,43.087c0.512,3.331,1.149,7.47-0.264,8.883
		c-0.472,0.473-1.41,0.711-2.789,0.711c-1.47,0-3.228-0.271-4.779-0.509c-1.358-0.209-2.615-0.401-3.539-0.401
		c-1.498,0-3.606,0.461-5.837,0.946c-2.063,0.452-4.196,0.919-5.545,0.919c-1.265,0-3.271-0.464-5.212-0.912
		c-2.129-0.492-4.122-0.953-5.55-0.953c-0.945,0-2.218,0.196-3.565,0.404c-1.567,0.242-3.343,0.515-4.826,0.515
		c-1.393,0-2.341-0.243-2.818-0.719c-0.951-0.952-0.618-3.71-0.158-6.696c0.184-1.198,0.358-2.329,0.358-3.168
		c0-1.74-0.292-4.355-0.573-6.885c-0.28-2.522-0.567-5.105-0.567-6.775c0-1.214,0.285-3.117,0.562-4.959
		c0.298-1.993,0.579-3.863,0.579-5.182c0-0.905-0.189-2.136-0.39-3.439c-0.505-3.274-0.869-6.299,0.189-7.357
		c0.413-0.413,1.243-0.623,2.469-0.623c1.31,0,2.882,0.241,4.27,0.454C28.028,7.535,29.164,7.709,30,7.709
		c1.549,0,3.757-0.329,6.093-0.678c2.197-0.328,4.458-0.667,5.911-0.667c1.479,0,3.78,0.339,6.006,0.665
		c2.272,0.334,4.621,0.68,6.203,0.68c0.866,0,2.042-0.18,3.286-0.372c1.441-0.221,3.072-0.473,4.438-0.473
		c1.267,0,2.127,0.218,2.556,0.646c0.94,0.941,0.626,3.558,0.155,6.625c-0.184,1.188-0.356,2.309-0.356,3.138
		c0,1.516,0.408,3.657,0.84,5.922c0.401,2.104,0.816,4.282,0.816,5.667c0,1.196-0.413,3.09-0.813,4.924
		c-0.434,1.993-0.844,3.875-0.844,5.217C64.292,40.077,64.519,41.54,64.757,43.087z"/>
	<path fill="#1A0C3E" d="M60.248,32.304v-19.34c0-0.345-0.28-0.625-0.625-0.625h-9.035c-0.345,0-0.625,0.28-0.625,0.625
		s0.28,0.625,0.625,0.625h8.41v16.538L47.865,10.729c-0.111-0.194-0.318-0.314-0.542-0.314s-0.431,0.12-0.542,0.313l-5.04,8.759
		H26.04v-5.898h12.182c0.345,0,0.625-0.28,0.625-0.625s-0.28-0.625-0.625-0.625H25.415c-0.345,0-0.625,0.28-0.625,0.625v6.523
		h-0.945c-0.345,0-0.625,0.28-0.625,0.625V40.67c0,0.345,0.28,0.625,0.625,0.625h7.895c0.398,1.944,1.322,3.695,2.604,5.117H26.04
		v-3.003c0-0.345-0.28-0.625-0.625-0.625s-0.625,0.28-0.625,0.625v3.628c0,0.345,0.28,0.625,0.625,0.625h10.25
		c1.87,1.488,4.23,2.384,6.8,2.384c6.037,0,10.948-4.912,10.948-10.949c0-6.036-4.911-10.948-10.948-10.948
		c-6.036,0-10.947,4.912-10.947,10.948c0,0.32,0.021,0.635,0.048,0.948H24.47V20.737h18.924v4.327c0,0.345,0.28,0.625,0.625,0.625
		s0.625-0.28,0.625-0.625v-4.952c0-0.345-0.28-0.625-0.625-0.625h-0.835l4.139-7.193l14.398,25.087h-5.382
		c-0.345,0-0.625,0.28-0.625,0.625s0.28,0.625,0.625,0.625H62.8c0.223,0,0.429-0.119,0.541-0.312
		c0.111-0.193,0.112-0.432,0.001-0.625L60.248,32.304z M42.465,29.399c5.348,0,9.698,4.35,9.698,9.698
		c0,5.349-4.351,9.699-9.698,9.699c-5.347,0-9.697-4.351-9.697-9.699C32.768,33.749,37.118,29.399,42.465,29.399z"/>
	<path fill="#1A0C3E" d="M26.575,22.914h2.776c0.345,0,0.625-0.28,0.625-0.625s-0.28-0.625-0.625-0.625H25.95
		c-0.345,0-0.625,0.28-0.625,0.625v4.512c0,0.345,0.28,0.625,0.625,0.625s0.625-0.28,0.625-0.625V22.914z"/>
	<path fill="#1A0C3E" d="M25.95,28.161c-0.345,0-0.625,0.28-0.625,0.625v0.434c0,0.345,0.28,0.625,0.625,0.625
		s0.625-0.28,0.625-0.625v-0.434C26.575,28.44,26.295,28.161,25.95,28.161z"/>
	<path fill="#1A0C3E" d="M45.296,32.514c1.753,0.95,3.152,2.393,4.046,4.172c0.11,0.218,0.33,0.344,0.56,0.344
		c0.094,0,0.189-0.021,0.28-0.066c0.308-0.155,0.433-0.531,0.277-0.84c-1.01-2.007-2.589-3.636-4.567-4.709
		c-0.304-0.162-0.683-0.051-0.848,0.252C44.88,31.97,44.992,32.349,45.296,32.514z"/>
	<path fill="#1A0C3E" d="M59.623,40.841c-0.345,0-0.625,0.28-0.625,0.625v4.946h-4.162c-0.345,0-0.625,0.28-0.625,0.625
		s0.28,0.625,0.625,0.625h4.787c0.345,0,0.625-0.28,0.625-0.625v-5.571C60.248,41.121,59.968,40.841,59.623,40.841z"/>
	<path fill="#1A0C3E" d="M52.527,46.412H51.59c-0.345,0-0.625,0.28-0.625,0.625s0.28,0.625,0.625,0.625h0.938
		c0.345,0,0.625-0.28,0.625-0.625S52.872,46.412,52.527,46.412z"/>
	<path fill="#1A0C3E" d="M40.345,13.588h0.954c0.345,0,0.625-0.28,0.625-0.625s-0.28-0.625-0.625-0.625h-0.954
		c-0.345,0-0.625,0.28-0.625,0.625S40,13.588,40.345,13.588z"/>
</g>
</svg>
