<?xml version="1.0" encoding="utf-8"?>
<!-- Generator: Adobe Illustrator 16.0.0, SVG Export Plug-In . SVG Version: 6.00 Build 0)  -->
<!DOCTYPE svg PUBLIC "-//W3C//DTD SVG 1.1//EN" "http://www.w3.org/Graphics/SVG/1.1/DTD/svg11.dtd">
<svg version="1.1" id="Layer_1" xmlns="http://www.w3.org/2000/svg" xmlns:xlink="http://www.w3.org/1999/xlink" x="0px" y="0px"
	 width="85.04px" height="60px" viewBox="0 0 85.04 60" enable-background="new 0 0 85.04 60" xml:space="preserve">
<g>
	<g>
		<g>
			<g>
				<path fill="#1A0C3E" d="M11.121,12.306c-1.233,0-2.094,0.261-2.631,0.798c-1.257,1.257-0.839,3.974-0.47,6.372
					c0.139,0.902,0.271,1.756,0.271,2.327c0,0.871-0.207,2.251-0.407,3.586c-0.219,1.461-0.424,2.829-0.424,3.801
					c0,1.28,0.213,3.192,0.418,5.04c0.203,1.833,0.412,3.709,0.412,4.911c0,0.521-0.12,1.302-0.247,2.128
					c-0.34,2.212-0.726,4.719,0.447,5.894c0.584,0.583,1.528,0.867,2.886,0.867c1.172,0,2.513-0.206,3.695-0.388l0.611-0.093
					l0.027-0.172c0.065-0.425,0.128-0.839,0.186-1.236c-0.332,0.046-0.677,0.098-1.031,0.152c-1.133,0.175-2.417,0.372-3.488,0.372
					c-1.204,0-1.71-0.256-1.923-0.471c-0.57-0.571-0.456-2.162-0.063-4.714c0.136-0.884,0.264-1.716,0.264-2.34
					c0-1.276-0.212-3.185-0.417-5.03c-0.205-1.836-0.413-3.713-0.413-4.92c0-0.872,0.208-2.254,0.408-3.591
					c0.219-1.46,0.423-2.825,0.423-3.796c0-0.677-0.139-1.58-0.287-2.535c-0.432-2.807-0.556-4.556,0.087-5.199
					c0.184-0.182,0.621-0.399,1.667-0.399c0.95,0,2.096,0.177,3.107,0.333c0.612,0.094,1.171,0.177,1.661,0.223
					c-0.063-0.445-0.134-0.912-0.208-1.393c-0.378-0.046-0.803-0.111-1.245-0.178C13.37,12.49,12.171,12.306,11.121,12.306z"/>
			</g>
		</g>
		<g>
			<g>
				<path fill="#1A0C3E" d="M69.727,47.651c1.154,0.176,2.449,0.371,3.583,0.371c1.347,0,2.285-0.282,2.866-0.863
					c1.45-1.452,0.958-4.655,0.522-7.483c-0.166-1.084-0.324-2.106-0.324-2.796c0-0.854,0.299-2.225,0.589-3.551
					c0.318-1.459,0.618-2.839,0.618-3.837c0-1.122-0.3-2.689-0.616-4.348c-0.29-1.532-0.591-3.105-0.591-4.095
					c0-0.511,0.12-1.283,0.245-2.101c0.338-2.196,0.721-4.679-0.444-5.845c-0.548-0.548-1.431-0.816-2.694-0.816
					c-1.085,0-2.322,0.19-3.41,0.359c-0.346,0.053-0.68,0.104-0.992,0.146c-0.07,0.473-0.138,0.952-0.189,1.4
					c0.443-0.052,0.922-0.127,1.388-0.198c1.063-0.163,2.234-0.343,3.204-0.343c1.083,0,1.538,0.226,1.729,0.416
					c0.567,0.567,0.451,2.14,0.063,4.668c-0.134,0.873-0.261,1.695-0.261,2.313c0,1.122,0.298,2.69,0.614,4.349
					c0.291,1.533,0.592,3.105,0.592,4.094c0,0.854-0.3,2.224-0.588,3.55c-0.318,1.46-0.618,2.839-0.618,3.838
					c0,0.796,0.165,1.867,0.34,3.003c0.45,2.927,0.749,5.421-0.14,6.313c-0.308,0.307-0.947,0.462-1.901,0.462
					c-1.059,0-2.333-0.195-3.457-0.367l-0.317-0.048C69.604,46.709,69.668,47.18,69.727,47.651z"/>
			</g>
		</g>
		<g>
			<g>
				<path fill="#1A0C3E" d="M31.475,53.135c1.268,0,3.28,0.465,5.227,0.914C38.815,54.537,40.812,55,42.237,55
					c1.493,0,3.597-0.461,5.825-0.946c2.085-0.455,4.213-0.919,5.558-0.919c0.825,0,2.038,0.186,3.322,0.384
					c1.602,0.247,3.413,0.526,4.996,0.526c1.778,0,3.005-0.363,3.752-1.11c1.904-1.902,1.236-6.232,0.649-10.052
					c-0.231-1.499-0.449-2.913-0.449-3.88c0-1.193,0.414-3.09,0.813-4.924c0.434-1.994,0.844-3.875,0.844-5.217
					c0-1.515-0.409-3.655-0.84-5.922c-0.401-2.105-0.816-4.281-0.816-5.667c0-0.723,0.164-1.792,0.339-2.927
					c0.455-2.951,0.971-6.293-0.539-7.8C64.987,5.842,63.836,5.5,62.171,5.5c-1.467,0-3.152,0.26-4.641,0.489
					c-1.224,0.187-2.331,0.356-3.084,0.356c-1.479,0-3.779-0.338-6.005-0.665C46.168,5.346,43.818,5,42.237,5
					c-1.549,0-3.757,0.33-6.093,0.679c-2.196,0.329-4.457,0.667-5.91,0.667c-0.737,0-1.827-0.167-2.981-0.346
					c-1.454-0.224-3.093-0.476-4.519-0.476c-1.623,0-2.746,0.334-3.432,1.022c-1.634,1.634-1.071,5.294-0.575,8.524
					c0.193,1.253,0.375,2.435,0.375,3.236c0,1.216-0.286,3.122-0.563,4.965c-0.298,1.985-0.578,3.857-0.578,5.175
					c0,1.742,0.291,4.361,0.572,6.891c0.281,2.52,0.568,5.102,0.568,6.77c0,0.731-0.167,1.813-0.342,2.957
					c-0.458,2.979-0.978,6.352,0.542,7.871c0.752,0.752,1.989,1.119,3.783,1.119c1.584,0,3.411-0.281,5.022-0.528
					C29.42,53.322,30.643,53.135,31.475,53.135z M42.237,53.636c-1.264,0-3.271-0.464-5.211-0.912
					c-2.129-0.492-4.123-0.952-5.551-0.952c-0.944,0-2.217,0.196-3.564,0.403c-1.568,0.242-3.343,0.515-4.826,0.515
					c-1.392,0-2.34-0.243-2.818-0.719c-0.952-0.952-0.619-3.711-0.159-6.696c0.184-1.198,0.359-2.329,0.359-3.168
					c0-1.74-0.291-4.355-0.572-6.885c-0.281-2.521-0.569-5.105-0.569-6.775c0-1.214,0.286-3.117,0.562-4.959
					c0.299-1.993,0.58-3.863,0.58-5.182c0-0.905-0.189-2.136-0.39-3.439c-0.504-3.273-0.869-6.298,0.19-7.356
					c0.412-0.413,1.242-0.623,2.467-0.623c1.311,0,2.883,0.241,4.27,0.454c1.259,0.194,2.393,0.368,3.23,0.368
					c1.549,0,3.756-0.329,6.093-0.678c2.197-0.328,4.458-0.667,5.911-0.667c1.479,0,3.781,0.339,6.006,0.665
					c2.272,0.335,4.622,0.68,6.203,0.68c0.866,0,2.042-0.18,3.286-0.372c1.441-0.221,3.072-0.473,4.438-0.473
					c1.267,0,2.127,0.218,2.555,0.646c0.941,0.941,0.627,3.557,0.156,6.625c-0.184,1.188-0.355,2.309-0.355,3.138
					c0,1.515,0.408,3.657,0.84,5.922c0.4,2.105,0.815,4.282,0.815,5.667c0,1.196-0.413,3.09-0.813,4.924
					c-0.433,1.993-0.842,3.875-0.842,5.217c0,1.074,0.226,2.536,0.464,4.084c0.512,3.331,1.148,7.47-0.265,8.883
					c-0.471,0.473-1.409,0.711-2.788,0.711c-1.47,0-3.228-0.271-4.779-0.509c-1.358-0.209-2.615-0.4-3.539-0.4
					c-1.498,0-3.606,0.46-5.837,0.946C45.72,53.169,43.587,53.636,42.237,53.636z"/>
			</g>
		</g>
	</g>
	<g>
		<g>
			<path fill="#1A0C3E" d="M59.34,47.688c-0.18,0-0.355-0.078-0.477-0.221L47.166,33.666l-4.327,4.287
				c-0.246,0.242-0.641,0.241-0.884-0.005c-0.243-0.245-0.241-0.641,0.004-0.884l4.808-4.762c0.123-0.123,0.297-0.198,0.467-0.18
				c0.174,0.007,0.337,0.087,0.449,0.22l11.032,13.016V12.931H25.389v20.492c0,0.345-0.28,0.625-0.625,0.625
				s-0.625-0.28-0.625-0.625V12.306c0-0.345,0.28-0.625,0.625-0.625H59.34c0.345,0,0.625,0.28,0.625,0.625v34.757
				c0,0.262-0.164,0.496-0.41,0.587C59.484,47.675,59.412,47.688,59.34,47.688z"/>
		</g>
		<g>
			<path fill="#1A0C3E" d="M52.57,47.688H24.764c-0.345,0-0.625-0.28-0.625-0.625v-9.057c0-0.163,0.064-0.32,0.178-0.437
				l8.852-9.061c0.117-0.119,0.275-0.187,0.442-0.188c0.143,0.008,0.327,0.063,0.445,0.181l9.894,9.791
				c0.246,0.243,0.248,0.639,0.005,0.884c-0.242,0.246-0.639,0.247-0.884,0.005l-9.447-9.348l-8.234,8.429v8.177H52.57
				c0.345,0,0.625,0.28,0.625,0.625S52.915,47.688,52.57,47.688z"/>
		</g>
		<g>
			<path fill="#1A0C3E" d="M48.479,26.499c-2.24,0-4.063-1.822-4.063-4.062s1.822-4.062,4.063-4.062
				c2.239,0,4.062,1.822,4.062,4.062S50.719,26.499,48.479,26.499z M48.479,19.625c-1.551,0-2.813,1.261-2.813,2.812
				s1.262,2.812,2.813,2.812c1.55,0,2.812-1.261,2.812-2.812S50.029,19.625,48.479,19.625z"/>
		</g>
	</g>
	<g>
		<g>
			<path fill="#1A0C3E" d="M15.895,42.879h-2.816c-0.345,0-0.625-0.28-0.625-0.625v-6.575c0-0.345,0.28-0.625,0.625-0.625
				s0.625,0.28,0.625,0.625v5.95h2.191c0.345,0,0.625,0.28,0.625,0.625S16.24,42.879,15.895,42.879z"/>
		</g>
		<g>
			<path fill="#1A0C3E" d="M13.079,33.933c-0.345,0-0.625-0.28-0.625-0.625v-0.292c0-0.345,0.28-0.625,0.625-0.625
				s0.625,0.28,0.625,0.625v0.292C13.704,33.652,13.424,33.933,13.079,33.933z"/>
		</g>
		<g>
			<path fill="#1A0C3E" d="M13.079,30.792c-0.345,0-0.625-0.28-0.625-0.625V17.47c0-0.345,0.28-0.625,0.625-0.625h2.816
				c0.345,0,0.625,0.28,0.625,0.625s-0.28,0.625-0.625,0.625h-2.191v12.072C13.704,30.513,13.424,30.792,13.079,30.792z"/>
		</g>
	</g>
	<g>
		<g>
			<path fill="#1A0C3E" d="M71.988,24.67c-0.345,0-0.625-0.28-0.625-0.625v-5.95h-2.19c-0.345,0-0.625-0.28-0.625-0.625
				s0.28-0.625,0.625-0.625h2.815c0.345,0,0.625,0.28,0.625,0.625v6.575C72.613,24.391,72.333,24.67,71.988,24.67z"/>
		</g>
		<g>
			<path fill="#1A0C3E" d="M71.988,27.333c-0.345,0-0.625-0.28-0.625-0.625v-0.292c0-0.345,0.28-0.625,0.625-0.625
				s0.625,0.28,0.625,0.625v0.292C72.613,27.053,72.333,27.333,71.988,27.333z"/>
		</g>
		<g>
			<path fill="#1A0C3E" d="M71.988,42.879h-2.815c-0.345,0-0.625-0.28-0.625-0.625s0.28-0.625,0.625-0.625h2.19V29.557
				c0-0.345,0.28-0.625,0.625-0.625s0.625,0.28,0.625,0.625v12.697C72.613,42.599,72.333,42.879,71.988,42.879z"/>
		</g>
	</g>
	<g>
		<g>
			<path fill="#1A0C3E" d="M31.475,53.135c1.268,0,3.28,0.465,5.227,0.914C38.815,54.537,40.812,55,42.237,55
				c1.493,0,3.597-0.461,5.825-0.946c2.085-0.455,4.213-0.919,5.558-0.919c0.825,0,2.038,0.186,3.322,0.384
				c1.602,0.247,3.413,0.526,4.996,0.526c1.778,0,3.005-0.363,3.752-1.11c1.904-1.902,1.236-6.232,0.649-10.052
				c-0.231-1.499-0.449-2.913-0.449-3.88c0-1.193,0.414-3.09,0.813-4.924c0.434-1.994,0.844-3.875,0.844-5.217
				c0-1.515-0.409-3.655-0.84-5.922c-0.401-2.105-0.816-4.281-0.816-5.667c0-0.723,0.164-1.792,0.339-2.927
				c0.455-2.951,0.971-6.293-0.539-7.8C64.987,5.842,63.836,5.5,62.171,5.5c-1.467,0-3.152,0.26-4.641,0.489
				c-1.224,0.187-2.331,0.356-3.084,0.356c-1.479,0-3.779-0.338-6.005-0.665C46.168,5.346,43.818,5,42.237,5
				c-1.549,0-3.757,0.33-6.093,0.679c-2.196,0.329-4.457,0.667-5.91,0.667c-0.737,0-1.827-0.167-2.981-0.346
				c-1.454-0.224-3.093-0.476-4.519-0.476c-1.623,0-2.746,0.334-3.432,1.022c-1.634,1.634-1.071,5.294-0.575,8.524
				c0.193,1.253,0.375,2.435,0.375,3.236c0,1.216-0.286,3.122-0.563,4.965c-0.298,1.985-0.578,3.857-0.578,5.175
				c0,1.742,0.291,4.361,0.572,6.891c0.281,2.52,0.568,5.102,0.568,6.77c0,0.731-0.167,1.813-0.342,2.957
				c-0.458,2.979-0.978,6.352,0.542,7.871c0.752,0.752,1.989,1.119,3.783,1.119c1.584,0,3.411-0.281,5.022-0.528
				C29.42,53.322,30.643,53.135,31.475,53.135z M42.237,53.636c-1.264,0-3.271-0.464-5.211-0.912
				c-2.129-0.492-4.123-0.952-5.551-0.952c-0.944,0-2.217,0.196-3.564,0.403c-1.568,0.242-3.343,0.515-4.826,0.515
				c-1.392,0-2.34-0.243-2.818-0.719c-0.952-0.952-0.619-3.711-0.159-6.696c0.184-1.198,0.359-2.329,0.359-3.168
				c0-1.74-0.291-4.355-0.572-6.885c-0.281-2.521-0.569-5.105-0.569-6.775c0-1.214,0.286-3.117,0.562-4.959
				c0.299-1.993,0.58-3.863,0.58-5.182c0-0.905-0.189-2.136-0.39-3.439c-0.504-3.273-0.869-6.298,0.19-7.356
				c0.412-0.413,1.242-0.623,2.467-0.623c1.311,0,2.883,0.241,4.27,0.454c1.259,0.194,2.393,0.368,3.23,0.368
				c1.549,0,3.756-0.329,6.093-0.678c2.197-0.328,4.458-0.667,5.911-0.667c1.479,0,3.781,0.339,6.006,0.665
				c2.272,0.335,4.622,0.68,6.203,0.68c0.866,0,2.042-0.18,3.286-0.372c1.441-0.221,3.072-0.473,4.438-0.473
				c1.267,0,2.127,0.218,2.555,0.646c0.941,0.941,0.627,3.557,0.156,6.625c-0.184,1.188-0.355,2.309-0.355,3.138
				c0,1.515,0.408,3.657,0.84,5.922c0.4,2.105,0.815,4.282,0.815,5.667c0,1.196-0.413,3.09-0.813,4.924
				c-0.433,1.993-0.842,3.875-0.842,5.217c0,1.074,0.226,2.536,0.464,4.084c0.512,3.331,1.148,7.47-0.265,8.883
				c-0.471,0.473-1.409,0.711-2.788,0.711c-1.47,0-3.228-0.271-4.779-0.509c-1.358-0.209-2.615-0.4-3.539-0.4
				c-1.498,0-3.606,0.46-5.837,0.946C45.72,53.169,43.587,53.636,42.237,53.636z"/>
		</g>
	</g>
</g>
</svg>
