<?xml version="1.0" encoding="utf-8"?>
<!-- Generator: Adobe Illustrator 16.0.0, SVG Export Plug-In . SVG Version: 6.00 Build 0)  -->
<!DOCTYPE svg PUBLIC "-//W3C//DTD SVG 1.1//EN" "http://www.w3.org/Graphics/SVG/1.1/DTD/svg11.dtd">
<svg version="1.1" id="Layer_1" xmlns="http://www.w3.org/2000/svg" xmlns:xlink="http://www.w3.org/1999/xlink" x="0px" y="0px"
	 width="85.04px" height="60px" viewBox="0 0 85.04 60" enable-background="new 0 0 85.04 60" xml:space="preserve">
<g>
	<g>
		<g>
			<path fill="#1A0C3E" d="M50.176,49.67c-0.131,0-0.263-0.045-0.37-0.133c-0.248-0.205-0.281-0.57-0.077-0.818
				c1.364-1.646,2.116-3.748,2.116-5.918v-8.594l0.225-0.174c3.567-2.768,5.613-6.93,5.613-11.42
				c0-7.973-6.486-14.459-14.459-14.459c-7.976,0-14.463,6.486-14.463,14.459c0,0.321-0.261,0.581-0.581,0.581
				c-0.319,0-0.58-0.26-0.58-0.581c0-8.613,7.009-15.62,15.624-15.62c8.612,0,15.619,7.007,15.619,15.62
				c0,4.756-2.123,9.172-5.837,12.158v8.029c0,2.439-0.847,4.805-2.384,6.658C50.507,49.598,50.343,49.67,50.176,49.67z"/>
		</g>
		<g>
			<path fill="#1A0C3E" d="M43.224,53.006c-5.395,0-9.782-4.578-9.782-10.205v-8.027c-0.904-0.727-1.724-1.549-2.438-2.445
				c-0.361-0.453-0.695-0.924-0.996-1.4c-0.17-0.271-0.089-0.629,0.183-0.801c0.272-0.172,0.63-0.088,0.801,0.184
				c0.276,0.438,0.586,0.873,0.92,1.293c0.717,0.898,1.546,1.717,2.467,2.43l0.225,0.176v8.592c0,4.988,3.867,9.045,8.622,9.045
				c1.359,0,2.717-0.346,3.928-1c0.285-0.152,0.634-0.045,0.786,0.236s0.047,0.633-0.234,0.785
				C46.323,52.613,44.774,53.006,43.224,53.006z"/>
		</g>
		<g>
			<path fill="#1A0C3E" d="M28.935,27.896c-0.244,0-0.472-0.155-0.552-0.4c-0.126-0.383-0.24-0.775-0.335-1.17
				c-0.075-0.312,0.117-0.625,0.428-0.7c0.313-0.076,0.626,0.117,0.7,0.428c0.088,0.365,0.195,0.727,0.31,1.082
				c0.101,0.305-0.065,0.633-0.37,0.732C29.056,27.887,28.994,27.896,28.935,27.896z"/>
		</g>
		<g>
			<path fill="#1A0C3E" d="M48.111,25.875c-0.277,0-0.522-0.2-0.571-0.483c-0.148-0.877,0.233-2.05,0.869-2.67l2.834-2.765
				c0.027-0.026,0.05-0.05,0.066-0.071c-0.025-0.006-0.056-0.013-0.092-0.018l-3.923-0.571c-0.884-0.128-1.881-0.855-2.271-1.654
				l-1.754-3.549c-0.017-0.034-0.033-0.062-0.047-0.085c-0.015,0.022-0.031,0.05-0.048,0.084l-1.753,3.552
				c-0.392,0.798-1.39,1.524-2.272,1.652c-0.313,0.045-0.612-0.173-0.657-0.491c-0.047-0.317,0.173-0.612,0.49-0.658
				c0.507-0.073,1.173-0.558,1.399-1.016l1.752-3.553c0.501-1.016,1.676-1.016,2.177,0l1.755,3.551
				c0.224,0.459,0.89,0.943,1.396,1.017l3.922,0.571c0.559,0.081,0.958,0.368,1.094,0.788c0.137,0.42-0.018,0.887-0.424,1.282
				l-2.834,2.765c-0.365,0.356-0.62,1.141-0.535,1.646c0.054,0.316-0.159,0.616-0.475,0.669
				C48.177,25.873,48.145,25.875,48.111,25.875z"/>
		</g>
		<g>
			<path fill="#1A0C3E" d="M38.118,30.58c-0.229,0-0.438-0.064-0.615-0.193c-0.357-0.26-0.508-0.729-0.413-1.285l0.672-3.905
				c0.085-0.503-0.169-1.288-0.535-1.644l-2.835-2.766c-0.405-0.393-0.561-0.859-0.425-1.28s0.534-0.708,1.094-0.789l0.91-0.133
				c0.309-0.046,0.611,0.173,0.657,0.491c0.047,0.317-0.173,0.612-0.49,0.658l-0.91,0.133c-0.035,0.005-0.066,0.012-0.092,0.018
				c0.018,0.021,0.038,0.044,0.064,0.07l2.837,2.767c0.636,0.62,1.018,1.793,0.869,2.67l-0.672,3.907
				c-0.007,0.037-0.01,0.068-0.011,0.096c0.024-0.01,0.055-0.023,0.088-0.041l3.506-1.844c0.787-0.414,2.021-0.415,2.81,0
				l3.509,1.844c0.033,0.018,0.062,0.031,0.086,0.041c-0.001-0.027-0.005-0.061-0.012-0.098l-0.173-1.006
				c-0.054-0.316,0.158-0.616,0.475-0.67c0.312-0.056,0.614,0.158,0.67,0.473l0.173,1.008c0.096,0.557-0.054,1.025-0.411,1.285
				c-0.355,0.26-0.847,0.258-1.347-0.006l-3.51-1.844c-0.452-0.24-1.278-0.238-1.73,0l-3.506,1.844
				C38.599,30.514,38.35,30.58,38.118,30.58z"/>
		</g>
		<g>
			
				<rect x="42.766" y="30.496" transform="matrix(0.2709 0.9626 -0.9626 0.2709 70.281 -12.4305)" fill="#1A0C3E" width="1.161" height="19.372"/>
		</g>
		<g>
			
				<rect x="42.766" y="33.604" transform="matrix(0.2709 0.9626 -0.9626 0.2709 73.2731 -10.1643)" fill="#1A0C3E" width="1.161" height="19.372"/>
		</g>
		<g>
			
				<rect x="43.673" y="37.398" transform="matrix(0.2706 0.9627 -0.9627 0.2706 76.6995 -8.9439)" fill="#1A0C3E" width="1.158" height="17.491"/>
		</g>
	</g>
</g>
<path fill="#1A0C3E" d="M68.793,33.083h-2.222V30.86c0-0.346-0.28-0.625-0.625-0.625s-0.625,0.279-0.625,0.625v2.223h-2.223
	c-0.345,0-0.625,0.279-0.625,0.625c0,0.344,0.28,0.625,0.625,0.625h2.223v2.223c0,0.344,0.28,0.625,0.625,0.625
	s0.625-0.281,0.625-0.625v-2.223h2.222c0.345,0,0.625-0.281,0.625-0.625C69.418,33.362,69.138,33.083,68.793,33.083z"/>
<path fill="#1A0C3E" d="M23.688,12.803h-2.222v-2.223c0-0.346-0.28-0.625-0.625-0.625s-0.625,0.279-0.625,0.625v2.223h-2.223
	c-0.345,0-0.625,0.279-0.625,0.625c0,0.344,0.28,0.625,0.625,0.625h2.223v2.223c0,0.344,0.28,0.625,0.625,0.625
	s0.625-0.281,0.625-0.625v-2.223h2.222c0.345,0,0.625-0.281,0.625-0.625C24.313,13.083,24.032,12.803,23.688,12.803z"/>
<path fill="#1A0C3E" d="M58.575,6.568h-1.514V5.054c0-0.235-0.19-0.426-0.426-0.426c-0.234,0-0.426,0.19-0.426,0.426v1.514h-1.514
	c-0.234,0-0.426,0.19-0.426,0.426c0,0.234,0.191,0.426,0.426,0.426h1.514v1.514c0,0.234,0.191,0.426,0.426,0.426
	c0.235,0,0.426-0.191,0.426-0.426V7.419h1.514c0.235,0,0.426-0.191,0.426-0.426C59.001,6.758,58.811,6.568,58.575,6.568z"/>
<path fill="#1A0C3E" d="M19.308,20.344h-1.514V18.83c0-0.235-0.19-0.426-0.426-0.426c-0.234,0-0.426,0.19-0.426,0.426v1.514h-1.514
	c-0.234,0-0.426,0.19-0.426,0.426c0,0.234,0.191,0.426,0.426,0.426h1.514v1.514c0,0.234,0.191,0.426,0.426,0.426
	c0.235,0,0.426-0.191,0.426-0.426v-1.514h1.514c0.235,0,0.426-0.191,0.426-0.426C19.733,20.535,19.543,20.344,19.308,20.344z"/>
<path fill="#1A0C3E" d="M64.413,27.47h-1.514v-1.514c0-0.235-0.19-0.426-0.426-0.426c-0.234,0-0.426,0.19-0.426,0.426v1.514h-1.514
	c-0.234,0-0.426,0.19-0.426,0.426c0,0.234,0.191,0.426,0.426,0.426h1.514v1.514c0,0.234,0.191,0.426,0.426,0.426
	c0.235,0,0.426-0.191,0.426-0.426v-1.514h1.514c0.235,0,0.426-0.191,0.426-0.426C64.839,27.661,64.648,27.47,64.413,27.47z"/>
</svg>
