<?xml version="1.0" encoding="utf-8"?>
<!-- Generator: Adobe Illustrator 16.0.0, SVG Export Plug-In . SVG Version: 6.00 Build 0)  -->
<!DOCTYPE svg PUBLIC "-//W3C//DTD SVG 1.1//EN" "http://www.w3.org/Graphics/SVG/1.1/DTD/svg11.dtd">
<svg version="1.1" id="Layer_1" xmlns="http://www.w3.org/2000/svg" xmlns:xlink="http://www.w3.org/1999/xlink" x="0px" y="0px"
	 width="85.04px" height="85.039px" viewBox="0 0 85.04 85.039" enable-background="new 0 0 85.04 85.039" xml:space="preserve">
<g>
	<rect x="17.599" y="21.157" fill="#09ADB1" width="13.637" height="13.756"/>
	<rect x="34.711" y="34.657" fill="#FEE251" width="14.146" height="14.266"/>
	<rect x="50.494" y="34.913" fill="#F05672" width="13.638" height="13.755"/>
	<rect x="50.436" y="19.02" fill="#09ADB1" width="13.756" height="13.637"/>
	<rect x="34.905" y="51.368" fill="#F05672" width="13.756" height="13.635"/>
	
		<rect x="17.599" y="19.02" fill="none" stroke="#1A0C3E" stroke-width="1.45" stroke-linecap="round" stroke-linejoin="round" stroke-miterlimit="10" width="15.531" height="15.667"/>
	
		<rect x="33.13" y="19.02" fill="none" stroke="#1A0C3E" stroke-width="1.45" stroke-linecap="round" stroke-linejoin="round" stroke-miterlimit="10" width="15.531" height="15.667"/>
	
		<polyline fill="none" stroke="#1A0C3E" stroke-width="1.45" stroke-linecap="round" stroke-linejoin="round" stroke-miterlimit="10" points="
		48.661,34.686 48.661,19.02 64.191,19.02 64.191,25.838 	"/>
	
		<rect x="17.599" y="34.686" fill="none" stroke="#1A0C3E" stroke-width="1.45" stroke-linecap="round" stroke-linejoin="round" stroke-miterlimit="10" width="15.531" height="15.667"/>
	
		<rect x="33.13" y="34.686" fill="none" stroke="#1A0C3E" stroke-width="1.45" stroke-linecap="round" stroke-linejoin="round" stroke-miterlimit="10" width="15.531" height="15.667"/>
	
		<rect x="48.661" y="34.686" fill="none" stroke="#1A0C3E" stroke-width="1.45" stroke-linecap="round" stroke-linejoin="round" stroke-miterlimit="10" width="15.53" height="15.667"/>
	
		<rect x="17.599" y="50.353" fill="none" stroke="#1A0C3E" stroke-width="1.45" stroke-linecap="round" stroke-linejoin="round" stroke-miterlimit="10" width="15.531" height="15.667"/>
	
		<rect x="33.13" y="50.353" fill="none" stroke="#1A0C3E" stroke-width="1.45" stroke-linecap="round" stroke-linejoin="round" stroke-miterlimit="10" width="15.531" height="15.667"/>
	
		<polyline fill="none" stroke="#1A0C3E" stroke-width="1.45" stroke-linecap="round" stroke-linejoin="round" stroke-miterlimit="10" points="
		64.191,57.187 64.191,66.02 48.661,66.02 48.661,50.353 	"/>
	
		<path fill="#FFFFFF" stroke="#FFFFFF" stroke-width="1.45" stroke-linecap="round" stroke-linejoin="round" stroke-miterlimit="10" d="
		M61.113,55.012c-7.235,1.574-14.379-3.016-15.953-10.251c-1.574-7.236,3.016-14.38,10.252-15.954
		c7.235-1.575,14.379,3.015,15.953,10.251"/>
	
		<path fill="#FFFFFF" stroke="#1A0C3E" stroke-width="1.45" stroke-linecap="round" stroke-linejoin="round" stroke-miterlimit="10" d="
		M60.42,52.656c-6.001,1.305-11.925-2.501-13.23-8.502c-1.305-6,2.501-11.923,8.502-13.229c6.001-1.306,11.924,2.5,13.229,8.501"/>
	
		<path fill="#FFFFFF" stroke="#1A0C3E" stroke-width="1.45" stroke-linecap="round" stroke-linejoin="round" stroke-miterlimit="10" d="
		M58.055,49.202c-4.093,0-7.41-3.318-7.41-7.412s3.317-7.411,7.41-7.411c4.095,0,7.412,3.318,7.412,7.411"/>
	<g>
		<polygon fill="#FEE251" points="62.599,46.19 58.727,40.423 70.483,42.354 67.798,46.532 66.677,48.28 65.368,50.315 
			63.935,48.181 		"/>
	</g>
	<g>
		
			<polyline fill="none" stroke="#1A0C3E" stroke-width="1.45" stroke-linecap="round" stroke-linejoin="round" stroke-miterlimit="10" points="
			65.726,49.101 64.312,51.3 62.763,48.993 		"/>
		
			<polyline fill="none" stroke="#1A0C3E" stroke-width="1.45" stroke-linecap="round" stroke-linejoin="round" stroke-miterlimit="10" points="
			61.319,46.843 57.136,40.611 69.839,42.697 66.938,47.212 71.441,50.106 		"/>
	</g>
</g>
</svg>
