<?xml version="1.0" encoding="utf-8"?>
<!-- Generator: Adobe Illustrator 16.0.0, SVG Export Plug-In . SVG Version: 6.00 Build 0)  -->
<!DOCTYPE svg PUBLIC "-//W3C//DTD SVG 1.1//EN" "http://www.w3.org/Graphics/SVG/1.1/DTD/svg11.dtd">
<svg version="1.1" id="Layer_1" xmlns="http://www.w3.org/2000/svg" xmlns:xlink="http://www.w3.org/1999/xlink" x="0px" y="0px"
	 width="85.04px" height="85.039px" viewBox="0 0 85.04 85.039" enable-background="new 0 0 85.04 85.039" xml:space="preserve">
<g>
	<rect x="51.959" y="26.651" fill-rule="evenodd" clip-rule="evenodd" fill="#FEE251" width="9.379" height="13.606"/>
	<g>
		<path fill-rule="evenodd" clip-rule="evenodd" fill="#FEE251" d="M50.188,26.956c0,2.402-1.947,4.349-4.349,4.349
			c-2.403,0-4.348-1.947-4.348-4.349c0-2.4,4.348-8.88,4.348-8.88S50.188,24.556,50.188,26.956z"/>
		<path fill-rule="evenodd" clip-rule="evenodd" fill="#FEE251" d="M50.188,26.956c0,2.402-1.947,4.349-4.349,4.349
			c-2.403,0-4.348-1.947-4.348-4.349c0-2.4,4.348-8.88,4.348-8.88S50.188,24.556,50.188,26.956z"/>
		<path fill-rule="evenodd" clip-rule="evenodd" fill="#F05672" d="M50.188,26.956c0,2.402-1.947,4.349-4.349,4.349
			c-2.403,0-4.348-1.947-4.348-4.349c0-2.4,4.348-8.88,4.348-8.88S50.188,24.556,50.188,26.956z"/>
	</g>
	<rect x="26.856" y="19.923" fill-rule="evenodd" clip-rule="evenodd" fill="#FEE251" width="11.075" height="19.425"/>
	<g>
		<path fill-rule="evenodd" clip-rule="evenodd" fill="#1A0C3E" d="M22.542,40.469c0.372-0.959,1.075-1.293,2.094-1.292
			c11.931,0.021,23.858,0.027,35.786-0.005c1.413-0.003,2.151,0.852,2.07,2.088c-0.062,0.94-0.005,1.887-0.014,2.831
			c-0.01,1.059-0.689,1.753-1.738,1.753c-10.738,0.003-21.481,0.002-32.219,0.002c-0.608,0-0.995-0.333-0.993-0.831
			c0.003-0.512,0.399-0.831,1.047-0.831c10.513-0.003,21.025-0.003,31.535-0.003c0.212,0,0.421,0,0.67,0c0-1.101,0-2.18,0-3.293
			c-12.17,0-24.347,0-36.553,0c0,1.091,0,2.171,0,3.294c0.216,0,0.408-0.001,0.599,0c0.748,0.006,1.035,0.291,1.038,1.032
			c0.002,3.043,0,6.086,0,9.129c0,2.897,0,5.793,0,8.69c0,1.811,1.002,2.82,2.795,2.82c9.246,0,18.486,0,27.73,0
			c1.735,0,2.764-1.023,2.764-2.754c0.003-4.818,0-9.635,0.005-14.451c0-0.193-0.01-0.4,0.053-0.578
			c0.133-0.375,0.432-0.579,0.828-0.547c0.421,0.033,0.685,0.29,0.763,0.704c0.03,0.156,0.017,0.324,0.017,0.486
			c0,4.785,0,9.567,0,14.354c-0.003,2.295-1.176,3.807-3.394,4.375c-0.045,0.011-0.081,0.05-0.121,0.076c-9.861,0-19.724,0-29.588,0
			c-0.023-0.021-0.047-0.052-0.073-0.06c-2.37-0.663-3.441-2.071-3.441-4.533c0-5.496,0-10.992,0-16.488c0-0.19,0-0.382,0-0.583
			c-0.893-0.048-1.357-0.564-1.659-1.285C22.542,43.204,22.542,41.837,22.542,40.469z"/>
		<path fill-rule="evenodd" clip-rule="evenodd" fill="#1A0C3E" d="M35.845,19.206c-3.347,0-6.626,0-9.945,0
			c0,1.084,0,2.163,0,3.305c0.453,0,0.902,0,1.352,0c0.895,0,1.79-0.008,2.683,0.004c0.572,0.008,0.927,0.354,0.915,0.857
			c-0.01,0.489-0.345,0.8-0.905,0.804c-1.332,0.007-2.667,0.002-4.039,0.002c0,0.554,0,1.078,0,1.634
			c0.644,0.109,1.619-0.188,1.594,0.907c-0.024,1.031-0.957,0.718-1.604,0.824c0,0.529,0,1.042,0,1.641
			c0.25,0,0.501-0.013,0.753,0.002c0.551,0.032,0.884,0.358,0.876,0.847c-0.007,0.465-0.332,0.782-0.857,0.817
			c-0.239,0.015-0.481,0.002-0.765,0.002c0,0.562,0,1.086,0,1.673c0.376,0,0.746,0,1.116,0c0.96,0,1.919-0.005,2.878,0.002
			c0.604,0.006,0.945,0.309,0.953,0.81c0.007,0.52-0.35,0.849-0.97,0.854c-1.137,0.01-2.277,0.004-3.417,0.004
			c-0.176,0-0.354,0-0.563,0c0,0.559,0,1.085,0,1.67c0.29,0,0.563-0.014,0.831,0.002c0.461,0.027,0.77,0.338,0.793,0.771
			c0.021,0.426-0.259,0.829-0.698,0.859c-0.629,0.046-1.268,0.052-1.899,0.004c-0.432-0.033-0.687-0.346-0.72-0.793
			c-0.014-0.21-0.005-0.424-0.005-0.634c0-5.793,0-11.584,0-17.377c0-0.932,0.247-1.177,1.19-1.177c3.661,0,7.323,0,10.982,0
			c0.883,0.001,1.133,0.247,1.133,1.127c0.002,5.922,0.002,11.844,0,17.767c0,0.131,0.005,0.263-0.015,0.391
			c-0.06,0.431-0.34,0.676-0.748,0.708c-0.415,0.032-0.729-0.177-0.843-0.592c-0.053-0.199-0.055-0.418-0.055-0.627
			c-0.002-5.467-0.002-10.934-0.002-16.401C35.845,19.681,35.845,19.469,35.845,19.206z"/>
		<path fill-rule="evenodd" clip-rule="evenodd" fill="#1A0C3E" d="M44.148,19.858c-1.311,2.154-2.614,4.255-3.182,6.705
			c-0.328,1.417,0.021,2.627,1.156,3.6c0.206,0.176,0.36,0.524,0.365,0.795c0.033,1.87,0.024,3.743,0.015,5.613
			c-0.003,0.584-0.342,0.951-0.826,0.95c-0.484,0-0.827-0.369-0.831-0.95c-0.01-1.644,0.004-3.287-0.013-4.93
			c-0.002-0.205-0.08-0.458-0.216-0.601c-1.365-1.465-1.702-3.167-1.228-5.07c0.456-1.832,1.287-3.505,2.228-5.123
			c0.569-0.984,1.192-1.94,1.823-2.885c0.378-0.565,1.06-0.595,1.425-0.053c1.71,2.502,3.296,5.076,4.08,8.046
			c0.75,2.857-0.655,5.524-3.317,6.342c-0.076,0.024-0.154,0.048-0.232,0.066c-0.642,0.155-1.074-0.051-1.199-0.566
			c-0.124-0.5,0.142-0.862,0.76-1.041c1.496-0.435,2.46-1.534,2.515-3.047c0.023-0.634-0.121-1.294-0.297-1.912
			C46.713,24.178,45.153,21.173,44.148,19.858z"/>
		<path fill-rule="evenodd" clip-rule="evenodd" fill="#1A0C3E" d="M55.824,19.929c-0.632,1.009-1.226,1.953-1.814,2.9
			c-0.498,0.8-1.185,1.548-1.432,2.421c-0.252,0.891-0.073,1.903-0.076,2.864c0,2.749,0,5.5-0.002,8.251
			c0,0.192-0.005,0.393-0.062,0.576c-0.129,0.41-0.442,0.613-0.857,0.569c-0.408-0.045-0.68-0.293-0.731-0.727
			c-0.015-0.128-0.01-0.261-0.01-0.391c-0.002-3.693-0.007-7.387,0.012-11.082c0-0.333,0.114-0.71,0.288-0.996
			c1.261-2.068,2.55-4.119,3.832-6.174c0.506-0.804,1.197-0.802,1.7,0.004c1.292,2.067,2.581,4.139,3.878,6.205
			c0.216,0.347,0.385,0.688,0.149,1.088c-0.218,0.378-0.581,0.414-0.974,0.412c-1.496-0.007-2.994-0.001-4.492-0.003
			c-0.715-0.001-1.073-0.287-1.064-0.842c0.01-0.539,0.385-0.822,1.098-0.823c1.035-0.003,2.073-0.001,3.208-0.001
			C57.569,22.727,56.715,21.358,55.824,19.929z"/>
		<path fill-rule="evenodd" clip-rule="evenodd" fill="#1A0C3E" d="M59.156,32.511c0-1.331-0.003-2.664,0.002-3.997
			c0-0.612,0.32-0.994,0.822-0.996c0.501-0.002,0.835,0.382,0.835,0.988c0.005,2.681,0.005,5.36,0,8.042
			c0,0.592-0.355,0.988-0.853,0.975c-0.481-0.013-0.805-0.391-0.805-0.965C59.151,35.208,59.156,33.859,59.156,32.511z"/>
		<path fill-rule="evenodd" clip-rule="evenodd" fill="#1A0C3E" d="M56.648,32.528c0,1.315,0.002,2.632-0.002,3.948
			c-0.003,0.659-0.31,1.045-0.822,1.046c-0.513,0.001-0.838-0.396-0.841-1.041c-0.002-2.646-0.004-5.294,0-7.942
			c0.003-0.643,0.34-1.033,0.86-1.02c0.498,0.013,0.8,0.386,0.803,1.014C56.65,29.864,56.648,31.197,56.648,32.528z"/>
		<path fill-rule="evenodd" clip-rule="evenodd" fill="#1A0C3E" d="M54.167,51.691c0-1.073-0.005-2.147,0-3.223
			c0.005-0.576,0.332-0.95,0.819-0.954c0.479-0.004,0.838,0.379,0.841,0.94c0.007,2.146,0.007,4.296,0,6.442
			c0,0.578-0.335,0.945-0.829,0.949c-0.494,0.007-0.826-0.358-0.831-0.933C54.162,53.839,54.167,52.765,54.167,51.691z"/>
		<path fill-rule="evenodd" clip-rule="evenodd" fill="#1A0C3E" d="M47.506,35.461c0,0.388,0.015,0.778-0.002,1.167
			c-0.023,0.536-0.371,0.893-0.834,0.894c-0.47,0.001-0.814-0.356-0.821-0.896c-0.012-0.794-0.015-1.588,0-2.383
			c0.01-0.542,0.349-0.894,0.824-0.893c0.468,0.001,0.808,0.355,0.831,0.895C47.521,34.65,47.506,35.055,47.506,35.461z"/>
		<path fill-rule="evenodd" clip-rule="evenodd" fill="#1A0C3E" d="M54.169,59.145c0-0.277-0.014-0.555,0.005-0.83
			c0.026-0.457,0.34-0.764,0.774-0.782c0.435-0.021,0.826,0.255,0.857,0.696c0.043,0.633,0.04,1.27,0,1.901
			c-0.026,0.435-0.435,0.74-0.846,0.723c-0.435-0.017-0.767-0.358-0.788-0.831c-0.015-0.292-0.005-0.585-0.005-0.877
			C54.169,59.145,54.169,59.145,54.169,59.145z"/>
	</g>
	<path fill-rule="evenodd" clip-rule="evenodd" fill="#09ADB1" d="M26.856,62.324c0,1.635,0.904,2.547,2.523,2.547
		c4.999,0,16.463,0,21.458,0L26.856,47.357c0.001,2.373,0,4.747,0,7.121C26.856,57.093,26.856,59.708,26.856,62.324z"/>
</g>
</svg>
