<?xml version="1.0" encoding="utf-8"?>
<!-- Generator: Adobe Illustrator 16.0.0, SVG Export Plug-In . SVG Version: 6.00 Build 0)  -->
<!DOCTYPE svg PUBLIC "-//W3C//DTD SVG 1.1//EN" "http://www.w3.org/Graphics/SVG/1.1/DTD/svg11.dtd">
<svg version="1.1" id="Layer_1" xmlns="http://www.w3.org/2000/svg" xmlns:xlink="http://www.w3.org/1999/xlink" x="0px" y="0px"
	 width="85.04px" height="85.039px" viewBox="0 0 85.04 85.039" enable-background="new 0 0 85.04 85.039" xml:space="preserve">
<g>
	<circle fill="#09ADB1" cx="42.555" cy="21.746" r="3.649"/>
	<path fill="#FEE251" d="M16.702,49.577c0,0.639,0.523,1.16,1.158,1.16h11.773c0.639,0,1.553-0.342,2.033-0.764l3.586-3.138
		c0.48-0.419,0.48-1.109,0-1.528l-3.586-3.137c-0.48-0.42-1.395-0.764-2.033-0.764H17.86c-0.635,0-1.158,0.522-1.158,1.159V49.577z"
		/>
	<path fill="#F05672" d="M68.337,39.888c0,0.659-0.539,1.197-1.193,1.197H54.989c-0.656,0-1.6-0.353-2.096-0.788l-3.701-3.238
		c-0.498-0.433-0.498-1.145,0-1.578l3.701-3.238c0.496-0.434,1.439-0.788,2.096-0.788h12.154c0.654,0,1.193,0.539,1.193,1.196
		V39.888z"/>
	<path fill="#09ADB1" d="M68.337,60.293c0,0.66-0.539,1.198-1.193,1.198H54.989c-0.656,0-1.6-0.352-2.096-0.786l-3.701-3.241
		c-0.498-0.432-0.498-1.143,0-1.577l3.701-3.237c0.496-0.434,1.439-0.788,2.096-0.788h12.154c0.654,0,1.193,0.539,1.193,1.196
		V60.293z"/>
	<g>
		<g>
			<path fill="#1A0C3E" d="M18.038,43.428c-0.371,0-0.672-0.3-0.672-0.67v-1.384c0-1.055,0.859-1.912,1.912-1.912h6.541
				c0.369,0,0.67,0.3,0.67,0.67s-0.301,0.67-0.67,0.67h-6.541c-0.314,0-0.57,0.256-0.57,0.572v1.384
				C18.708,43.128,18.407,43.428,18.038,43.428z"/>
		</g>
		<g>
			<path fill="#1A0C3E" d="M30.114,40.802h-0.537c-0.371,0-0.67-0.3-0.67-0.67s0.299-0.67,0.67-0.67h0.537
				c0.371,0,0.67,0.3,0.67,0.67S30.485,40.802,30.114,40.802z"/>
		</g>
		<g>
			<path fill="#1A0C3E" d="M31.896,50.8H19.278c-1.053,0-1.912-0.858-1.912-1.913v-1.508c0-0.369,0.301-0.67,0.672-0.67
				c0.369,0,0.67,0.301,0.67,0.67v1.508c0,0.316,0.256,0.573,0.57,0.573h12.617c0.518,0,1.346-0.312,1.734-0.651l3.846-3.364
				c0.1-0.088,0.156-0.2,0.156-0.314c0-0.115-0.055-0.224-0.156-0.313l-3.844-3.364c-0.391-0.341-1.219-0.652-1.736-0.652
				c-0.369,0-0.67-0.3-0.67-0.67s0.301-0.67,0.67-0.67c0.854,0,1.979,0.423,2.619,0.984l3.842,3.362
				c0.391,0.342,0.615,0.823,0.615,1.321c0.002,0.5-0.223,0.982-0.613,1.323l-3.846,3.364C33.874,50.377,32.749,50.8,31.896,50.8z"
				/>
		</g>
		<g>
			<path fill="#1A0C3E" d="M18.038,46.053c-0.371,0-0.672-0.301-0.672-0.67v-0.717c0-0.369,0.301-0.67,0.672-0.67
				c0.369,0,0.67,0.301,0.67,0.67v0.717C18.708,45.752,18.407,46.053,18.038,46.053z"/>
		</g>
	</g>
	<g>
		<g>
			<path fill="#1A0C3E" d="M66.753,33.06c-0.369,0-0.67-0.3-0.67-0.67v-1.384c0-0.315-0.258-0.572-0.572-0.572h-6.539
				c-0.371,0-0.67-0.3-0.67-0.67c0-0.37,0.299-0.67,0.67-0.67h6.539c1.055,0,1.912,0.857,1.912,1.912v1.384
				C67.423,32.759,67.122,33.06,66.753,33.06z"/>
		</g>
		<g>
			<path fill="#1A0C3E" d="M55.214,30.434h-0.539c-0.369,0-0.67-0.3-0.67-0.67c0-0.37,0.301-0.67,0.67-0.67h0.539
				c0.369,0,0.67,0.3,0.67,0.67C55.884,30.134,55.583,30.434,55.214,30.434z"/>
		</g>
		<g>
			<path fill="#1A0C3E" d="M65.511,40.432H52.894c-0.852,0-1.977-0.423-2.619-0.984l-3.842-3.363
				c-0.391-0.342-0.615-0.825-0.615-1.324c0-0.498,0.225-0.98,0.615-1.321l3.844-3.362c0.641-0.561,1.766-0.984,2.617-0.984
				c0.369,0,0.67,0.3,0.67,0.67c0,0.371-0.301,0.67-0.67,0.67c-0.518,0-1.346,0.311-1.734,0.652l-3.846,3.363
				c-0.102,0.09-0.154,0.198-0.154,0.313c0,0.114,0.055,0.227,0.156,0.315l3.842,3.363c0.391,0.341,1.219,0.652,1.736,0.652h12.617
				c0.314,0,0.572-0.257,0.572-0.573v-1.508c0-0.37,0.301-0.67,0.67-0.67s0.67,0.3,0.67,0.67v1.508
				C67.423,39.574,66.565,40.432,65.511,40.432z"/>
		</g>
		<g>
			<path fill="#1A0C3E" d="M66.753,35.685c-0.369,0-0.67-0.3-0.67-0.67v-0.715c0-0.37,0.301-0.67,0.67-0.67s0.67,0.3,0.67,0.67
				v0.715C67.423,35.384,67.122,35.685,66.753,35.685z"/>
		</g>
	</g>
	<g>
		<g>
			<path fill="#1A0C3E" d="M66.753,53.304c-0.369,0-0.67-0.301-0.67-0.671v-1.384c0-0.315-0.258-0.571-0.572-0.571h-6.539
				c-0.371,0-0.67-0.301-0.67-0.671c0-0.369,0.299-0.67,0.67-0.67h6.539c1.055,0,1.912,0.857,1.912,1.912v1.384
				C67.423,53.003,67.122,53.304,66.753,53.304z"/>
		</g>
		<g>
			<path fill="#1A0C3E" d="M55.214,50.678h-0.539c-0.369,0-0.67-0.301-0.67-0.671c0-0.369,0.301-0.67,0.67-0.67h0.539
				c0.369,0,0.67,0.301,0.67,0.67C55.884,50.377,55.583,50.678,55.214,50.678z"/>
		</g>
		<g>
			<path fill="#1A0C3E" d="M65.511,60.676H52.894c-0.852,0-1.977-0.423-2.619-0.984l-3.842-3.362
				c-0.391-0.342-0.615-0.825-0.615-1.324c0-0.498,0.225-0.98,0.615-1.321l3.844-3.363c0.641-0.561,1.766-0.983,2.617-0.983
				c0.369,0,0.67,0.301,0.67,0.67c0,0.37-0.301,0.671-0.67,0.671c-0.518,0-1.346,0.311-1.734,0.651l-3.846,3.363
				c-0.102,0.09-0.154,0.198-0.154,0.313c0,0.114,0.055,0.227,0.156,0.315l3.842,3.361c0.391,0.342,1.219,0.652,1.736,0.652h12.617
				c0.314,0,0.572-0.256,0.572-0.572v-1.508c0-0.37,0.301-0.67,0.67-0.67s0.67,0.3,0.67,0.67v1.508
				C67.423,59.817,66.565,60.676,65.511,60.676z"/>
		</g>
		<g>
			<path fill="#1A0C3E" d="M66.753,55.929c-0.369,0-0.67-0.301-0.67-0.671v-0.716c0-0.369,0.301-0.67,0.67-0.67
				s0.67,0.301,0.67,0.67v0.716C67.423,55.628,67.122,55.929,66.753,55.929z"/>
		</g>
	</g>
	<g>
		<path fill="#1A0C3E" d="M42.394,27.561c-2.793,0-5.066-2.273-5.066-5.067s2.273-5.067,5.066-5.067
			c2.795,0,5.068,2.273,5.068,5.067S45.188,27.561,42.394,27.561z M42.394,18.767c-2.053,0-3.725,1.672-3.725,3.727
			c0,2.055,1.672,3.727,3.725,3.727c2.057,0,3.729-1.671,3.729-3.727C46.122,20.439,44.45,18.767,42.394,18.767z"/>
	</g>
	<g>
		<path fill="#1A0C3E" d="M42.396,67.427c-0.178,0-0.35-0.07-0.475-0.197l-3.666-3.666c-0.262-0.261-0.26-0.687,0.002-0.948
			c0.26-0.262,0.686-0.261,0.947,0.001l3.191,3.193l3.189-3.193c0.262-0.262,0.688-0.263,0.949-0.001s0.262,0.687,0,0.948
			l-3.664,3.666C42.743,67.356,42.573,67.427,42.396,67.427z"/>
	</g>
	
		<path fill="none" stroke="#1A0C3E" stroke-width="1.25" stroke-linecap="round" stroke-linejoin="round" stroke-miterlimit="10" d="
		M42.087,39.433"/>
	<g>
		<path fill="#1A0C3E" d="M42.396,66.417c-0.369,0-0.67-0.3-0.67-0.67V27.033c0-0.37,0.301-0.67,0.67-0.67s0.67,0.3,0.67,0.67
			v38.714C43.065,66.117,42.765,66.417,42.396,66.417z"/>
	</g>
	<g>
		<circle fill="#190D3E" cx="42.577" cy="34.495" r="2.197"/>
		<path fill="#FFFFFF" d="M42.577,32.798c0.936,0,1.697,0.76,1.697,1.697s-0.762,1.697-1.697,1.697c-0.938,0-1.697-0.76-1.697-1.697
			S41.64,32.798,42.577,32.798 M42.577,31.798c-1.487,0-2.697,1.21-2.697,2.697s1.21,2.697,2.697,2.697s2.697-1.21,2.697-2.697
			S44.064,31.798,42.577,31.798L42.577,31.798z"/>
	</g>
	<g>
		<circle fill="#190D3E" cx="42.577" cy="45.131" r="2.197"/>
		<path fill="#FFFFFF" d="M42.577,43.434c0.936,0,1.697,0.759,1.697,1.697c0,0.937-0.762,1.696-1.697,1.696
			c-0.938,0-1.697-0.76-1.697-1.696C40.88,44.193,41.64,43.434,42.577,43.434 M42.577,42.434c-1.487,0-2.697,1.209-2.697,2.697
			c0,1.486,1.21,2.696,2.697,2.696s2.697-1.21,2.697-2.696C45.274,43.644,44.064,42.434,42.577,42.434L42.577,42.434z"/>
	</g>
	<g>
		<circle fill="#190D3E" cx="42.577" cy="55.006" r="2.197"/>
		<path fill="#FFFFFF" d="M42.577,53.31c0.936,0,1.697,0.759,1.697,1.697c0,0.937-0.762,1.696-1.697,1.696
			c-0.938,0-1.697-0.76-1.697-1.696C40.88,54.068,41.64,53.31,42.577,53.31 M42.577,52.31c-1.487,0-2.697,1.21-2.697,2.697
			c0,1.486,1.21,2.696,2.697,2.696s2.697-1.21,2.697-2.696C45.274,53.52,44.064,52.31,42.577,52.31L42.577,52.31z"/>
	</g>
</g>
</svg>
