<?xml version="1.0" encoding="utf-8"?>
<!-- Generator: Adobe Illustrator 16.0.0, SVG Export Plug-In . SVG Version: 6.00 Build 0)  -->
<!DOCTYPE svg PUBLIC "-//W3C//DTD SVG 1.1//EN" "http://www.w3.org/Graphics/SVG/1.1/DTD/svg11.dtd">
<svg version="1.1" id="Layer_1" xmlns="http://www.w3.org/2000/svg" xmlns:xlink="http://www.w3.org/1999/xlink" x="0px" y="0px"
	 width="85.04px" height="85.039px" viewBox="0 0 85.04 85.039" enable-background="new 0 0 85.04 85.039" xml:space="preserve">
<line fill="none" stroke="#09ADB1" stroke-width="3" stroke-linecap="round" stroke-linejoin="round" stroke-miterlimit="10" x1="29.028" y1="17.636" x2="29.028" y2="64.101"/>
<polyline fill="#FEE251" points="35.156,21.474 64.202,21.474 58.643,31.386 64.422,41.824 35.156,41.824 "/>
<g>
	
		<polyline fill="none" stroke="#1A0C3E" stroke-width="1.45" stroke-linecap="round" stroke-linejoin="round" stroke-miterlimit="10" points="
		39.076,20.292 64.562,20.292 58.352,31.364 64.807,43.022 58.351,43.022 	"/>
	
		<polyline fill="none" stroke="#1A0C3E" stroke-width="1.45" stroke-linecap="round" stroke-linejoin="round" stroke-miterlimit="10" points="
		49.137,43.022 32.116,43.022 32.116,66.484 32.116,18.581 32.116,20.292 35.855,20.292 	"/>
	
		<line fill="none" stroke="#1A0C3E" stroke-width="1.45" stroke-linecap="round" stroke-linejoin="round" stroke-miterlimit="10" x1="55.712" y1="43.022" x2="53.9" y2="43.022"/>
	
		<line fill="none" stroke="#1A0C3E" stroke-width="1.45" stroke-linecap="round" stroke-linejoin="round" stroke-miterlimit="10" x1="51.412" y1="25.948" x2="61.037" y2="25.948"/>
	
		<line fill="none" stroke="#1A0C3E" stroke-width="1.45" stroke-linecap="round" stroke-linejoin="round" stroke-miterlimit="10" x1="32.463" y1="25.948" x2="47.795" y2="25.948"/>
	
		<line fill="none" stroke="#1A0C3E" stroke-width="1.45" stroke-linecap="round" stroke-linejoin="round" stroke-miterlimit="10" x1="32.463" y1="31.649" x2="58.352" y2="31.649"/>
	
		<line fill="none" stroke="#1A0C3E" stroke-width="1.45" stroke-linecap="round" stroke-linejoin="round" stroke-miterlimit="10" x1="32.463" y1="37.349" x2="61.665" y2="37.349"/>
	
		<line fill="none" stroke="#1A0C3E" stroke-width="1.45" stroke-linecap="round" stroke-linejoin="round" stroke-miterlimit="10" x1="28.352" y1="51.425" x2="28.352" y2="66.468"/>
	
		<path fill="none" stroke="#1A0C3E" stroke-width="1.45" stroke-linecap="round" stroke-linejoin="round" stroke-miterlimit="10" d="
		M32.116,18.581c0,0-0.083-2.097-1.813-2.097c-2.085,0-1.952,2.277-1.952,2.277v27.997"/>
</g>
</svg>
