<?xml version="1.0" encoding="utf-8"?>
<!-- Generator: Adobe Illustrator 16.0.0, SVG Export Plug-In . SVG Version: 6.00 Build 0)  -->
<!DOCTYPE svg PUBLIC "-//W3C//DTD SVG 1.1//EN" "http://www.w3.org/Graphics/SVG/1.1/DTD/svg11.dtd">
<svg version="1.1" id="Layer_1" xmlns="http://www.w3.org/2000/svg" xmlns:xlink="http://www.w3.org/1999/xlink" x="0px" y="0px"
	 width="85.04px" height="85.039px" viewBox="0 0 85.04 85.039" enable-background="new 0 0 85.04 85.039" xml:space="preserve">
<rect x="26.737" y="25.315" fill="#EAEAEA" width="32.778" height="32.087"/>
<g>
	<g>
		<g>
			<path fill="#1A0C3E" d="M52.349,60.264H24.541c-0.376,0-0.682-0.306-0.682-0.682v-3.525c0-0.376,0.306-0.683,0.682-0.683
				s0.683,0.307,0.683,0.683v2.843h27.125c0.376,0,0.682,0.307,0.682,0.683S52.725,60.264,52.349,60.264z"/>
		</g>
	</g>
	<g>
		<path fill="#1A0C3E" d="M59.118,60.264h-4.18c-0.377,0-0.683-0.306-0.683-0.682s0.306-0.683,0.683-0.683h4.18
			c0.376,0,0.682,0.307,0.682,0.683S59.494,60.264,59.118,60.264z"/>
	</g>
	<g>
		<path fill="#1A0C3E" d="M59.118,60.264c-0.376,0-0.683-0.306-0.683-0.682v-4.528c0-0.376,0.307-0.683,0.683-0.683
			s0.682,0.307,0.682,0.683v4.528C59.8,59.958,59.494,60.264,59.118,60.264z"/>
	</g>
	<path fill="#1A0C3E" d="M19.854,27.386c-0.505-3.274-0.869-6.299,0.189-7.357c0.412-0.413,1.242-0.623,2.467-0.623
		c1.312,0,2.884,0.241,4.271,0.454c1.259,0.194,2.393,0.368,3.23,0.368c1.55,0,3.756-0.329,6.093-0.678
		c2.196-0.328,4.458-0.667,5.91-0.667c1.479,0,3.78,0.339,6.007,0.665c2.272,0.334,4.621,0.68,6.202,0.68
		c0.867,0,2.042-0.18,3.287-0.372c1.44-0.221,3.071-0.473,4.438-0.473c1.268,0,2.128,0.218,2.556,0.646
		c0.941,0.941,0.627,3.558,0.156,6.625c-0.115,0.744-0.22,1.45-0.287,2.086c0.457,0.149,0.896,0.336,1.318,0.552
		c0.049-0.677,0.177-1.528,0.315-2.427c0.454-2.951,0.97-6.293-0.539-7.8c-0.702-0.704-1.854-1.045-3.52-1.045
		c-1.466,0-3.152,0.26-4.64,0.489c-1.224,0.187-2.332,0.356-3.085,0.356c-1.478,0-3.778-0.337-6.005-0.665
		c-2.272-0.334-4.622-0.68-6.204-0.68c-1.548,0-3.757,0.329-6.093,0.679c-2.196,0.329-4.458,0.666-5.91,0.666
		c-0.737,0-1.827-0.167-2.982-0.345c-1.453-0.224-3.093-0.476-4.519-0.476c-1.622,0-2.745,0.334-3.432,1.022
		c-1.635,1.634-1.072,5.294-0.575,8.523c0.112,0.725,0.215,1.414,0.286,2.031c0.413-0.25,0.843-0.473,1.293-0.657
		C20.018,28.459,19.938,27.933,19.854,27.386z"/>
	<path fill="#1A0C3E" d="M64.769,55.606c0.512,3.331,1.148,7.47-0.265,8.883c-0.471,0.473-1.41,0.711-2.789,0.711
		c-1.47,0-3.227-0.271-4.778-0.509c-1.359-0.209-2.615-0.401-3.539-0.401c-1.499,0-3.606,0.461-5.838,0.946
		c-2.062,0.452-4.194,0.919-5.545,0.919c-1.265,0-3.271-0.464-5.211-0.912c-2.129-0.492-4.123-0.953-5.552-0.953
		c-0.944,0-2.217,0.196-3.563,0.404c-1.569,0.242-3.344,0.515-4.827,0.515c-1.392,0-2.339-0.243-2.817-0.719
		c-0.952-0.952-0.618-3.71-0.159-6.696c0.185-1.198,0.358-2.329,0.358-3.168c0-0.168-0.006-0.352-0.01-0.535h-1.365
		c0.006,0.185,0.011,0.368,0.011,0.535c0,0.731-0.166,1.813-0.341,2.957c-0.46,2.979-0.979,6.352,0.541,7.871
		c0.753,0.753,1.989,1.119,3.782,1.119c1.585,0,3.412-0.281,5.023-0.528c1.313-0.203,2.536-0.391,3.367-0.391
		c1.269,0,3.28,0.465,5.228,0.915c2.113,0.487,4.11,0.95,5.535,0.95c1.493,0,3.598-0.46,5.824-0.946
		c2.086-0.455,4.213-0.919,5.559-0.919c0.824,0,2.037,0.186,3.322,0.384c1.601,0.247,3.413,0.526,4.995,0.526
		c1.779,0,3.006-0.363,3.753-1.11c1.903-1.902,1.236-6.232,0.648-10.052c-0.069-0.45-0.135-0.886-0.195-1.312h-1.377
		C64.613,54.581,64.688,55.086,64.769,55.606z"/>
	<g>
		<path fill="#F05672" d="M68.385,44.987l-2.147-0.601c-0.093-0.025-0.163-0.085-0.216-0.158c-1.261,1.346-3.048,2.191-5.032,2.191
			c-1.986,0-3.772-0.846-5.034-2.191c-0.051,0.063-0.112,0.113-0.195,0.138l-2.252,0.624c-0.849,0.245-1.256,0.579-1.456,0.882
			l0.635,0.179c1.371,0.393,2.064,1.047,2.064,1.945v1.815h13.741c0.852,0,1.543-0.692,1.543-1.543v-1.724
			C70.035,45.826,69.481,45.304,68.385,44.987z"/>
		<path fill="#F05672" d="M32.793,46.052l0.408-0.113c-0.236-0.41-0.716-0.734-1.473-0.951l-2.146-0.601
			c-0.093-0.025-0.163-0.085-0.215-0.158c-1.261,1.346-3.048,2.191-5.033,2.191c-1.986,0-3.772-0.846-5.034-2.191
			c-0.05,0.063-0.111,0.113-0.195,0.138l-2.252,0.624c-1.647,0.478-1.647,1.289-1.647,1.555v1.724c0,0.851,0.69,1.543,1.542,1.543
			h12.896v-1.815C29.643,47.664,30.734,46.65,32.793,46.052z"/>
		<path fill="#09ADB1" d="M52.249,46.315l-0.688-0.192l-2.222-0.624c-0.126-0.034-0.221-0.115-0.291-0.213
			c-1.71,1.823-4.13,2.969-6.82,2.969s-5.112-1.146-6.821-2.968c-0.068,0.083-0.153,0.152-0.267,0.185l-2.607,0.723l-0.442,0.122
			c-2.232,0.649-2.232,1.748-2.232,2.108v1.969v0.366c0,1.153,0.937,2.091,2.088,2.091h20.451c1.153,0,2.09-0.938,2.09-2.091v-0.366
			v-1.969C54.486,47.452,53.735,46.742,52.249,46.315z"/>
		<circle fill="#FEE251" cx="60.684" cy="35.813" r="4.834"/>
		
			<path fill="none" stroke="#1A0C3E" stroke-width="1.25" stroke-linecap="round" stroke-linejoin="round" stroke-miterlimit="10" d="
			M57.362,51.707h11.096c0.945,0,1.713-0.769,1.713-1.714v-2.86c0-0.799-0.615-1.38-1.833-1.729l-2.388-0.669"/>
		<path fill="none" stroke="#1A0C3E" stroke-linecap="round" stroke-linejoin="round" stroke-miterlimit="10" d="M53.315,44.987"/>
		<circle fill="none" stroke="#1A0C3E" stroke-width="1.25" stroke-miterlimit="10" cx="60.075" cy="38.007" r="5.603"/>
		<circle fill="#FEE251" cx="25.327" cy="35.813" r="4.834"/>
		
			<path fill="none" stroke="#1A0C3E" stroke-width="1.25" stroke-linecap="round" stroke-linejoin="round" stroke-miterlimit="10" d="
			M18.952,44.711l-2.5,0.693c-1.831,0.532-1.831,1.434-1.831,1.729v2.86c0,0.945,0.768,1.714,1.713,1.714h10.507"/>
		<circle fill="none" stroke="#1A0C3E" stroke-width="1.25" stroke-miterlimit="10" cx="24.717" cy="38.007" r="5.603"/>
		<circle fill="#FEE251" cx="43.127" cy="34.754" r="6.043"/>
		
			<path fill="none" stroke="#1A0C3E" stroke-width="1.25" stroke-linecap="round" stroke-linejoin="round" stroke-miterlimit="10" d="
			M35.16,45.605l-3.127,0.866c-2.288,0.663-2.288,1.791-2.288,2.161v3.575c0,1.182,0.96,2.143,2.142,2.143h20.958
			c1.181,0,2.142-0.961,2.142-2.143v-3.575c0-1-0.77-1.726-2.293-2.163l-2.982-0.836"/>
		<circle fill="none" stroke="#1A0C3E" stroke-width="1.25" stroke-miterlimit="10" cx="42.366" cy="37.226" r="7.004"/>
	</g>
	
		<polyline fill="none" stroke="#1A0C3E" stroke-width="1.25" stroke-linecap="round" stroke-linejoin="round" stroke-miterlimit="10" points="
		58.896,24.825 24.717,24.825 24.717,28.083 	"/>
	
		<line fill="none" stroke="#1A0C3E" stroke-width="1.25" stroke-linecap="round" stroke-linejoin="round" stroke-miterlimit="10" x1="58.896" y1="25.001" x2="58.896" y2="27.859"/>
</g>
</svg>
