<?xml version="1.0" encoding="utf-8"?>
<!-- Generator: Adobe Illustrator 16.0.0, SVG Export Plug-In . SVG Version: 6.00 Build 0)  -->
<!DOCTYPE svg PUBLIC "-//W3C//DTD SVG 1.1//EN" "http://www.w3.org/Graphics/SVG/1.1/DTD/svg11.dtd">
<svg version="1.1" id="Layer_1" xmlns="http://www.w3.org/2000/svg" xmlns:xlink="http://www.w3.org/1999/xlink" x="0px" y="0px"
	 width="85.04px" height="85.039px" viewBox="0 0 85.04 85.039" enable-background="new 0 0 85.04 85.039" xml:space="preserve">
<g>
	<polygon fill="#09ADB1" points="20.748,52.579 29.6,43.518 38.384,52.081 42.92,47.588 48.424,53.82 45.618,56.332 43.977,61.635 
		20.748,61.635 	"/>
	<circle fill="#FEE251" cx="45.979" cy="35.353" r="3.437"/>
	<g>
		<path fill-rule="evenodd" clip-rule="evenodd" fill="#FEE251" d="M76.256,37.632c0.016,0.052,0.022,0.11,0.048,0.156
			c0.909,1.578,0.591,3.364-0.879,4.835c-3.67,3.674-7.342,7.345-11.014,11.016c-4.802,4.802-4.156,4.161-8.967,8.953
			c-0.282,0.28-0.655,0.514-1.018,0.662c-1.92,0.78-3.851,1.52-5.774,2.286c-0.363,0.145-0.694,0.207-0.961-0.056
			c-0.266-0.264-0.222-0.589-0.075-0.957c0.813-2.051,1.607-4.105,2.419-6.158c0.063-0.158,0.184-0.316,0.311-0.443
			C58.925,49.34,62.062,46.2,70.648,37.622c1.308-1.306,3.172-1.633,4.604-0.846c0.083,0.043,0.172,0.074,0.258,0.11
			C75.76,37.135,76.008,37.384,76.256,37.632z"/>
		<path fill-rule="evenodd" clip-rule="evenodd" fill="#FFFFFF" d="M60.123,53.479c-3.511,3.511-1.171,1.169-4.681,4.679
			c-0.117,0.117-0.229,0.244-0.358,0.348c-0.348,0.274-0.72,0.27-1.056,0.002c-0.337-0.269-0.427-0.639-0.225-1.027
			c0.098-0.187,0.256-0.346,0.407-0.497c7.066-7.07,8.282-8.286,15.35-15.353c0.105-0.106,0.207-0.22,0.325-0.31
			c0.379-0.283,0.888-0.236,1.177,0.098c0.283,0.327,0.276,0.792-0.024,1.138c-0.109,0.126-0.232,0.239-0.351,0.357
			C67.166,46.436,63.644,49.956,60.123,53.479z"/>
		<g>
			<path fill="#1A0C3E" d="M68.835,41.923c-0.136,0-0.27,0.045-0.385,0.131c-0.079,0.06-0.149,0.134-0.221,0.208l-0.074,0.076
				c-7.068,7.067-8.284,8.283-15.35,15.354c-0.138,0.138-0.28,0.28-0.358,0.43c-0.139,0.267-0.088,0.498,0.152,0.688
				c0.241,0.19,0.476,0.189,0.716-0.003c0.086-0.067,0.161-0.147,0.237-0.226l0.098-0.101l15.345-15.343
				c0.082-0.08,0.164-0.159,0.238-0.246c0.21-0.24,0.22-0.554,0.024-0.78C69.151,41.99,69.003,41.923,68.835,41.923z"/>
		</g>
		<g>
			<path fill="#1A0C3E" d="M72.427,34.886c0.735,0,1.468,0.205,2.117,0.591c0.078,0.046,0.159,0.083,0.241,0.12l0.045,0.021
				l0.837,0.837c0.016,0.052,0.036,0.116,0.075,0.182c1.112,1.794,0.896,3.679-0.595,5.171c-2.892,2.896-5.786,5.79-8.681,8.685
				l-3.156,3.156l-2.798,2.798c-2.356,2.357-2.87,2.871-6.839,6.82c-0.261,0.26-0.633,0.485-1.019,0.62
				c-1.313,0.456-2.63,0.896-3.946,1.334c-0.846,0.28-1.689,0.562-2.532,0.849c-0.183,0.062-0.322,0.091-0.439,0.091
				c-0.155,0-0.277-0.052-0.395-0.168c-0.203-0.202-0.229-0.426-0.094-0.826c0.396-1.179,0.789-2.36,1.18-3.54
				c0.374-1.124,0.747-2.248,1.126-3.373c0.04-0.121,0.131-0.257,0.257-0.383l0.127-0.126c9.123-9.133,12.506-12.519,21.691-21.695
				C70.382,35.298,71.375,34.886,72.427,34.886 M71.275,40.668c-0.171,0-0.377-0.114-0.595-0.33
				c-0.389-0.387-0.776-0.775-1.173-1.172l-0.465-0.465l-0.192-0.193l-0.193,0.193l-9.764,9.763l-9.733,9.734l-0.192,0.192
				l0.192,0.193c0.167,0.166,0.333,0.328,0.497,0.49c0.422,0.412,0.819,0.801,1.19,1.221c0.146,0.168,0.255,0.452,0.235,0.623
				c-0.036,0.317-0.291,0.429-0.499,0.429c-0.181,0-0.362-0.076-0.51-0.215c-0.308-0.288-0.604-0.588-0.919-0.908l-0.46-0.465
				l-0.312-0.312l-0.14,0.418l-0.945,2.84l-0.486,1.458l-0.172,0.517l0.518-0.172l1.302-0.431c1.229-0.405,2.422-0.799,3.607-1.211
				c0.358-0.125,0.714-0.346,0.973-0.604c7.779-7.766,11.189-11.175,17.77-17.757l3.39-3.39l0.043-0.042
				c0.132-0.132,0.264-0.265,0.386-0.406c0.498-0.581,0.724-1.372,0.614-2.171c-0.107-0.801-0.535-1.507-1.172-1.935
				c-0.499-0.334-1.059-0.512-1.619-0.512c-0.993,0-1.939,0.549-2.595,1.508l-0.128,0.187l0.159,0.16l0.432,0.431
				c0.393,0.392,0.787,0.785,1.179,1.181c0.554,0.559,0.244,0.87,0.144,0.972C71.52,40.61,71.4,40.668,71.275,40.668"/>
		</g>
	</g>
	<g>
		
			<line fill="none" stroke="#F05672" stroke-width="1.25" stroke-linecap="round" stroke-linejoin="round" stroke-miterlimit="10" x1="50.688" y1="66.117" x2="65.614" y2="66.117"/>
		
			<line fill="none" stroke="#F05672" stroke-width="1.25" stroke-linecap="round" stroke-linejoin="round" stroke-miterlimit="10" x1="67.746" y1="66.117" x2="70.924" y2="66.117"/>
		
			<line fill="none" stroke="#F05672" stroke-width="1.25" stroke-linecap="round" stroke-linejoin="round" stroke-miterlimit="10" x1="60.007" y1="63.313" x2="80.334" y2="63.313"/>
		<ellipse fill="#F05672" cx="57.821" cy="63.219" rx="0.707" ry="0.758"/>
	</g>
	<path fill="#1A0C3E" d="M55.958,24.826c0-0.377-0.306-0.682-0.683-0.682H20.698c-0.376,0-0.682,0.305-0.682,0.682v21.117
		c0,0.377,0.306,0.683,0.682,0.683c0.377,0,0.683-0.306,0.683-0.683V25.507h33.213v21.804l1.364-1.389V24.826z"/>
	<path fill="#1A0C3E" d="M48.896,53.108l0.959-0.976l-6.193-7.308c-0.122-0.146-0.301-0.232-0.49-0.24
		c-0.191-0.021-0.375,0.062-0.51,0.196l-4.392,4.352l-8.24-8.153c-0.128-0.126-0.301-0.197-0.479-0.197c-0.002,0-0.004,0-0.006,0
		c-0.182,0.002-0.355,0.076-0.482,0.206l-8.852,9.061c-0.125,0.127-0.194,0.299-0.194,0.477v9.057c0,0.35,0.268,0.628,0.607,0.667
		c0.025,0.004,0.048,0.016,0.074,0.016h23.696L44.77,58.9H21.381v-7.096v-1.001l8.179-8.372l9.226,9.129l0.181,0.178
		c0.268,0.264,0.699,0.264,0.964-0.005c0.266-0.268,0.263-0.699-0.005-0.965l-0.171-0.169l-0.515-0.509l3.859-3.823L48.896,53.108z"
		/>
	<path fill="#1A0C3E" d="M38.173,66.155c-1.265,0-3.271-0.463-5.212-0.912c-2.129-0.492-4.122-0.952-5.55-0.952
		c-0.945,0-2.218,0.195-3.565,0.403c-1.567,0.242-3.343,0.515-4.827,0.515c-1.392,0-2.34-0.243-2.817-0.718
		c-0.952-0.953-0.618-3.711-0.159-6.697c0.185-1.198,0.359-2.329,0.359-3.168c0-1.74-0.292-4.355-0.573-6.885
		c-0.28-2.522-0.568-5.105-0.568-6.775c0-1.214,0.286-3.118,0.563-4.959c0.298-1.993,0.579-3.864,0.579-5.182
		c0-0.905-0.189-2.136-0.39-3.439c-0.506-3.274-0.87-6.299,0.189-7.357c0.412-0.413,1.243-0.622,2.469-0.622
		c1.31,0,2.881,0.241,4.269,0.454c1.259,0.194,2.394,0.368,3.23,0.368c1.549,0,3.757-0.33,6.093-0.678
		c2.196-0.329,4.458-0.667,5.911-0.667c1.479,0,3.78,0.338,6.006,0.665c2.272,0.334,4.621,0.68,6.203,0.68
		c0.866,0,2.042-0.181,3.287-0.373c1.44-0.222,3.071-0.473,4.438-0.473c1.267,0,2.127,0.217,2.556,0.646
		c0.94,0.941,0.627,3.557,0.155,6.625c-0.184,1.188-0.355,2.308-0.355,3.138c0,1.515,0.408,3.656,0.84,5.922
		c0.269,1.411,0.541,2.849,0.693,4.064l1.203-1.225c-0.153-0.969-0.352-2.015-0.556-3.095c-0.402-2.105-0.816-4.282-0.816-5.667
		c0-0.723,0.164-1.793,0.339-2.927c0.454-2.951,0.97-6.293-0.54-7.801c-0.702-0.703-1.853-1.045-3.519-1.045
		c-1.467,0-3.152,0.26-4.641,0.489c-1.224,0.187-2.332,0.356-3.084,0.356c-1.479,0-3.779-0.338-6.006-0.665
		c-2.271-0.334-4.622-0.68-6.203-0.68c-1.55,0-3.757,0.329-6.094,0.678c-2.196,0.328-4.457,0.667-5.91,0.667
		c-0.737,0-1.827-0.168-2.98-0.346c-1.455-0.224-3.093-0.476-4.519-0.476c-1.625,0-2.747,0.334-3.434,1.021
		c-1.634,1.634-1.07,5.295-0.574,8.524c0.193,1.253,0.375,2.435,0.375,3.237c0,1.215-0.285,3.122-0.563,4.965
		c-0.298,1.985-0.579,3.857-0.579,5.176c0,1.742,0.291,4.361,0.573,6.89c0.281,2.52,0.568,5.102,0.568,6.77
		c0,0.731-0.166,1.813-0.343,2.957c-0.458,2.979-0.979,6.352,0.542,7.871c0.753,0.753,1.99,1.119,3.782,1.119
		c1.584,0,3.411-0.281,5.022-0.528c1.314-0.202,2.538-0.391,3.37-0.391c1.266,0,3.28,0.465,5.226,0.915
		c2.115,0.488,4.111,0.95,5.536,0.95c1.169,0,2.717-0.284,4.4-0.641l0.408-1.481C41.16,65.793,39.362,66.155,38.173,66.155z"/>
	
		<circle fill="none" stroke="#1A0C3E" stroke-width="1.25" stroke-linecap="round" stroke-linejoin="round" stroke-miterlimit="10" cx="44.539" cy="34.956" r="3.437"/>
</g>
</svg>
