<?xml version="1.0" encoding="utf-8"?>
<!-- Generator: Adobe Illustrator 16.0.0, SVG Export Plug-In . SVG Version: 6.00 Build 0)  -->
<!DOCTYPE svg PUBLIC "-//W3C//DTD SVG 1.1//EN" "http://www.w3.org/Graphics/SVG/1.1/DTD/svg11.dtd">
<svg version="1.1" id="Layer_1" xmlns="http://www.w3.org/2000/svg" xmlns:xlink="http://www.w3.org/1999/xlink" x="0px" y="0px"
	 width="85.04px" height="85.039px" viewBox="0 0 85.04 85.039" enable-background="new 0 0 85.04 85.039" xml:space="preserve">
<ellipse fill="#EAEAEA" cx="69.138" cy="66.526" rx="4.372" ry="1.069"/>
<rect x="26.305" y="25.365" fill="#EAEAEA" width="32.669" height="31.981"/>
<path fill="#FEE251" d="M77.513,54.229c0,6.443-7.041,11.027-7.041,11.027s-7.042-4.782-7.042-11.027
	c0-3.889,3.153-7.042,7.042-7.042C74.359,47.187,77.513,50.34,77.513,54.229z"/>
<circle fill="#FFFFFF" cx="70.172" cy="54.135" r="3.144"/>
<g>
	<g>
		
			<line fill="none" stroke="#1A0C3E" stroke-width="1.25" stroke-linecap="round" stroke-linejoin="round" stroke-miterlimit="10" x1="54.69" y1="59.43" x2="30.588" y2="59.43"/>
		
			<polyline fill="none" stroke="#1A0C3E" stroke-width="1.25" stroke-linecap="round" stroke-linejoin="round" stroke-miterlimit="10" points="
			37.662,24.967 58.711,24.967 58.711,50.99 		"/>
		
			<polyline fill="none" stroke="#1A0C3E" stroke-width="1.25" stroke-linecap="round" stroke-linejoin="round" stroke-miterlimit="10" points="
			33.095,24.967 24.068,24.967 24.068,52.683 		"/>
	</g>
	
		<line fill="none" stroke="#1A0C3E" stroke-width="1.25" stroke-linecap="round" stroke-linejoin="round" stroke-miterlimit="10" x1="24.068" y1="55.264" x2="24.068" y2="59.43"/>
	
		<line fill="none" stroke="#1A0C3E" stroke-width="1.25" stroke-linecap="round" stroke-linejoin="round" stroke-miterlimit="10" x1="28.583" y1="59.43" x2="24.068" y2="59.43"/>
</g>
<g>
	<g>
		<path fill="none" stroke="#1A0C3E" stroke-width="1.5" stroke-linecap="round" stroke-miterlimit="10" d="M59.121,58.545
			c-0.028-0.077-0.058-0.155-0.087-0.232"/>
		
			<path fill="none" stroke="#1A0C3E" stroke-width="1.5" stroke-linecap="round" stroke-miterlimit="10" stroke-dasharray="0.5092,3.055" d="
			M57.816,55.513c-1.993-3.829-5.483-7.056-13.329-4.822c-4.095,1.169-15.464,0.995-17.114-8.872
			c-1.391-8.315,9.049-14.449,14.089-11.827"/>
		<path fill="none" stroke="#1A0C3E" stroke-width="1.5" stroke-linecap="round" stroke-miterlimit="10" d="M42.674,30.912
			c0.057,0.061,0.111,0.123,0.164,0.187"/>
	</g>
</g>
<path fill="#09ADB1" d="M48.391,35.302l-2.254,2.255L43.882,35.3c-0.351-0.351-0.918-0.349-1.269,0c-0.349,0.35-0.351,0.919,0,1.269
	l2.256,2.255l-2.256,2.256c-0.349,0.35-0.351,0.917,0,1.267c0.351,0.35,0.919,0.351,1.269,0l2.255-2.255l2.256,2.255
	c0.349,0.35,0.92,0.351,1.271,0c0.349-0.35,0.349-0.918,0-1.267l-2.261-2.256l2.257-2.254c0.353-0.35,0.351-0.92,0-1.269
	C49.31,34.951,48.741,34.952,48.391,35.302z"/>
<g>
	<path fill="#1A0C3E" d="M42.465,34.703c0.249,0,0.499,0.095,0.69,0.285l2.456,2.458l2.452-2.455
		c0.192-0.191,0.442-0.286,0.692-0.286s0.499,0.095,0.69,0.286c0.379,0.38,0.379,1,0,1.381l-2.456,2.454l2.456,2.456
		c0.379,0.38,0.381,1,0,1.38c-0.19,0.191-0.439,0.286-0.69,0.286c-0.25,0-0.5-0.095-0.692-0.286l-2.452-2.455l-2.456,2.455
		c-0.19,0.191-0.44,0.286-0.691,0.286c-0.25,0-0.501-0.095-0.69-0.286c-0.382-0.38-0.38-1,0-1.38l2.457-2.456l-2.457-2.455
		c-0.382-0.383-0.38-1,0-1.381C41.965,34.798,42.215,34.703,42.465,34.703 M42.465,33.453c-0.595,0-1.154,0.232-1.575,0.653
		c-0.866,0.869-0.866,2.28-0.001,3.147l1.573,1.572l-1.572,1.571c-0.421,0.422-0.652,0.982-0.651,1.578
		c0,0.594,0.232,1.152,0.653,1.571c0.416,0.419,0.976,0.65,1.572,0.65c0.596,0,1.155-0.231,1.576-0.652l1.57-1.57l1.568,1.57
		c0.425,0.422,0.984,0.652,1.577,0.652c0.597,0,1.156-0.231,1.576-0.653c0.418-0.417,0.649-0.977,0.649-1.573
		c-0.001-0.594-0.231-1.152-0.65-1.572l-1.572-1.572l1.571-1.57c0.866-0.871,0.865-2.282,0.001-3.148
		c-0.422-0.422-0.98-0.653-1.575-0.653c-0.593,0-1.151,0.23-1.573,0.649l-1.571,1.574l-1.572-1.573
		C43.614,33.683,43.057,33.453,42.465,33.453L42.465,33.453z"/>
</g>
<path fill="none" stroke="#1A0C3E" stroke-width="1.25" stroke-linecap="round" stroke-linejoin="round" stroke-miterlimit="10" d="
	M76.406,54.202c0,6.65-7.269,11.383-7.269,11.383s-7.269-4.938-7.269-11.383c0-4.015,3.254-7.27,7.269-7.27
	C73.151,46.933,76.406,50.188,76.406,54.202z"/>
<circle fill="none" stroke="#1A0C3E" stroke-width="1.25" stroke-linecap="round" stroke-linejoin="round" stroke-miterlimit="10" cx="69.138" cy="54.439" r="2.845"/>
<path fill="#1A0C3E" d="M63.989,64.41c-0.47,0.471-1.405,0.708-2.78,0.708c-1.465,0-3.216-0.27-4.763-0.507
	c-1.354-0.209-2.606-0.399-3.527-0.399c-1.493,0-3.595,0.458-5.817,0.942c-2.056,0.451-4.182,0.916-5.527,0.916
	c-1.261,0-3.26-0.462-5.194-0.909c-2.121-0.491-4.109-0.949-5.532-0.949c-0.941,0-2.21,0.195-3.553,0.402
	c-1.563,0.241-3.332,0.513-4.811,0.513c-1.387,0-2.331-0.242-2.809-0.716c-0.948-0.949-0.616-3.698-0.158-6.675
	c0.184-1.194,0.357-2.321,0.357-3.157c0-1.734-0.289-4.341-0.569-6.861c-0.28-2.515-0.567-5.089-0.567-6.753
	c0-1.21,0.284-3.107,0.56-4.942c0.299-1.986,0.577-3.851,0.577-5.165c0-0.902-0.188-2.129-0.388-3.428
	c-0.503-3.263-0.866-6.278,0.188-7.333c0.411-0.411,1.239-0.62,2.459-0.62c1.307,0,2.875,0.24,4.257,0.452
	c1.254,0.193,2.385,0.367,3.22,0.367c1.544,0,3.743-0.328,6.072-0.676c2.189-0.327,4.443-0.665,5.891-0.665
	c1.474,0,3.768,0.338,5.987,0.663c2.264,0.333,4.605,0.678,6.182,0.678c0.863,0,2.035-0.18,3.275-0.371
	c1.437-0.221,3.062-0.472,4.424-0.472c1.263,0,2.12,0.217,2.547,0.644c0.938,0.938,0.624,3.545,0.155,6.603
	c-0.183,1.185-0.355,2.301-0.355,3.127c0,1.51,0.407,3.644,0.837,5.902c0.399,2.098,0.814,4.268,0.814,5.649
	c0,1.099-0.351,2.791-0.718,4.48c0.485-0.258,0.997-0.475,1.529-0.646c0.307-1.465,0.548-2.808,0.548-3.833
	c0-1.509-0.408-3.644-0.837-5.903c-0.4-2.098-0.813-4.267-0.813-5.648c0-0.72,0.163-1.787,0.337-2.917
	c0.453-2.941,0.967-6.272-0.537-7.774c-0.7-0.701-1.847-1.042-3.507-1.042c-1.462,0-3.143,0.259-4.625,0.488
	c-1.22,0.186-2.324,0.354-3.074,0.354c-1.474,0-3.767-0.336-5.985-0.663c-2.265-0.333-4.607-0.678-6.184-0.678
	c-1.543,0-3.744,0.328-6.072,0.677c-2.189,0.327-4.443,0.664-5.891,0.664c-0.735,0-1.821-0.167-2.973-0.344
	c-1.448-0.223-3.082-0.475-4.504-0.475c-1.616,0-2.736,0.333-3.42,1.019c-1.63,1.628-1.068,5.277-0.573,8.496
	c0.193,1.249,0.373,2.427,0.373,3.226c0,1.212-0.284,3.111-0.56,4.949c-0.296,1.979-0.576,3.844-0.576,5.158
	c0,1.736,0.291,4.346,0.571,6.868c0.278,2.512,0.564,5.085,0.564,6.747c0,0.729-0.165,1.806-0.34,2.947
	c-0.457,2.97-0.975,6.33,0.54,7.845c0.75,0.75,1.982,1.115,3.77,1.115c1.58,0,3.4-0.28,5.007-0.526
	c1.31-0.202,2.527-0.389,3.356-0.389c1.264,0,3.27,0.463,5.21,0.911c2.106,0.486,4.097,0.947,5.517,0.947
	c1.488,0,3.585-0.459,5.806-0.943c2.078-0.453,4.198-0.915,5.539-0.915c0.822,0,2.031,0.185,3.312,0.382
	c1.596,0.247,3.401,0.525,4.979,0.525c1.773,0,2.996-0.362,3.74-1.107c0.083-0.082,0.135-0.194,0.208-0.286
	c-0.303-0.292-0.617-0.619-0.935-0.962C64.151,64.229,64.075,64.325,63.989,64.41z"/>
<g>
	<g>
		<path fill="#FFFFFF" d="M78.52,74.187c3.225,0,3.225-5,0-5S75.295,74.187,78.52,74.187L78.52,74.187z"/>
	</g>
</g>
</svg>
