<?xml version="1.0" encoding="utf-8"?>
<!-- Generator: Adobe Illustrator 16.0.0, SVG Export Plug-In . SVG Version: 6.00 Build 0)  -->
<!DOCTYPE svg PUBLIC "-//W3C//DTD SVG 1.1//EN" "http://www.w3.org/Graphics/SVG/1.1/DTD/svg11.dtd">
<svg version="1.1" id="Layer_1" xmlns="http://www.w3.org/2000/svg" xmlns:xlink="http://www.w3.org/1999/xlink" x="0px" y="0px"
	 width="85.04px" height="85.039px" viewBox="0 0 85.04 85.039" enable-background="new 0 0 85.04 85.039" xml:space="preserve">
<g>
	<g>
		<path fill="#F05672" d="M63.902,52.276c-0.307,0.263-0.666,0.558-1.067,0.874L58.6,49.043c0.301-0.383,0.587-0.736,0.842-1.036
			L63.902,52.276z"/>
		<path fill="#F05672" d="M57.802,50.075l3.996,3.877c-1.649,1.255-3.518,2.59-4.354,3.182l-2.771-2.772
			C55.256,53.536,56.563,51.708,57.802,50.075z"/>
		<path fill="#FEE251" d="M76.143,37.457c-0.627,0.828-7.9,10.42-11.3,13.923l-4.515-4.32c3.416-3.357,13.193-10.772,14.022-11.399
			c0.148-0.064,0.626-0.256,1.119-0.256c0.3,0,0.536,0.069,0.655,0.153l0.064,0.058C76.643,36.206,76.24,37.232,76.143,37.457z"/>
	</g>
	<path fill="#09ADB1" d="M53.543,55.85c0,0-2.89-0.278-4.457,1.737c-1.533,1.972-2.088,3.301-3.339,8.6
		c-0.028,0.118,0.851,0.235,2.151-0.046c2.169-0.469,5.353-1.373,6.908-2.862c1.846-1.767,1.759-4.447,1.759-4.447L53.543,55.85z"/>
	<g>
		<path fill="#09ADB1" d="M64.854,65.436H46.344c-0.376,0-0.682,0.306-0.682,0.682s0.306,0.683,0.682,0.683h18.511
			c0.377,0,0.683-0.307,0.683-0.683S65.231,65.436,64.854,65.436z"/>
		<path fill="#09ADB1" d="M70.164,65.436h-3.178c-0.376,0-0.682,0.306-0.682,0.682S66.61,66.8,66.986,66.8h3.178
			c0.377,0,0.683-0.307,0.683-0.683S70.541,65.436,70.164,65.436z"/>
		<path fill="#09ADB1" d="M79.574,62.631H59.247c-0.376,0-0.683,0.307-0.683,0.683s0.307,0.682,0.683,0.682h20.327
			c0.376,0,0.682-0.306,0.682-0.682S79.95,62.631,79.574,62.631z"/>
		<ellipse fill="#09ADB1" cx="57.061" cy="63.219" rx="0.708" ry="0.758"/>
	</g>
	<path fill="#1A0C3E" d="M76.678,33.641l-0.191-0.186c-0.436-0.335-0.971-0.505-1.59-0.505c-0.935,0-1.745,0.391-1.834,0.436
		l-0.105,0.065c-0.485,0.366-11.905,8.988-15.32,12.526c-1.734,1.795-5.876,7.699-6.051,7.95l-0.134,0.191
		c-1.11,0.12-2.743,0.552-3.847,1.972c-1.672,2.148-2.235,3.614-3.55,9.224l-0.226,0.963l0.979-0.131
		c0.281-0.038,6.908-0.943,9.526-3.453c1.375-1.314,1.791-3.049,1.916-4.081l0.011-0.008c0.251-0.175,6.153-4.314,7.949-6.049
		c3.537-3.417,12.16-14.836,12.526-15.32l0.065-0.106C76.845,37.047,77.801,35.092,76.678,33.641z M62.736,52.051
		c-0.321,0.275-0.7,0.586-1.121,0.918l-4.453-4.317c0.316-0.401,0.616-0.773,0.886-1.089L62.736,52.051z M56.323,49.738l4.201,4.074
		c-1.733,1.319-3.698,2.723-4.577,3.345l-2.914-2.914C53.647,53.375,55.021,51.454,56.323,49.738z M53.393,61.708
		c-1.749,1.676-5.873,2.584-7.773,2.925c1.178-4.895,1.711-5.966,3.063-7.704c1.089-1.399,2.989-1.493,3.625-1.483l2.625,2.626
		C54.895,58.743,54.676,60.481,53.393,61.708z M75.604,36.473c-0.658,0.87-8.305,10.953-11.878,14.635l-4.745-4.541
		c3.591-3.53,13.868-11.324,14.739-11.983c0.156-0.069,0.658-0.27,1.177-0.27c0.315,0,0.563,0.073,0.689,0.161l0.067,0.061
		C76.131,35.157,75.706,36.236,75.604,36.473z"/>
	<path fill="none" d="M39.243,50.092l0.515,0.509l3.041-3.013l4.811,5.446c0.283-0.168,0.568-0.315,0.856-0.436l-5.364-6.33
		L39.243,50.092z"/>
	<polygon fill="none" points="38.264,52.081 38.789,51.562 29.563,42.432 21.384,50.804 21.384,51.805 29.479,43.518 	"/>
	<path fill="#09ADB1" d="M20.702,60.265c-0.026,0-0.049-0.012-0.075-0.016v1.386H42.65c0.128-0.492,0.252-0.947,0.376-1.37H20.702z"
		/>
	<path fill="#09ADB1" d="M39.758,50.601l0.17,0.169c0.268,0.266,0.271,0.697,0.006,0.965c-0.266,0.269-0.697,0.269-0.965,0.005
		l-0.18-0.178l-0.525,0.52l-8.784-8.563l-8.096,8.287V58.9h22.077c0.605-1.727,1.274-2.912,2.349-4.291
		c0.535-0.689,1.156-1.194,1.8-1.575l-4.811-5.446L39.758,50.601z"/>
	<path fill="#1A0C3E" d="M55.961,44.358V24.826c0-0.377-0.306-0.682-0.682-0.682H20.702c-0.376,0-0.683,0.305-0.683,0.682v21.117
		c0,0.377,0.307,0.683,0.683,0.683s0.682-0.306,0.682-0.683V25.507h33.213v20.44c0.513-0.639,0.984-1.196,1.358-1.583
		C55.957,44.362,55.959,44.36,55.961,44.358z"/>
	<path fill="#1A0C3E" d="M21.384,51.805v-1.001l8.179-8.372l9.227,9.129l0.969-0.961l-0.515-0.509l3.858-3.823l5.364,6.33
		c0.483-0.204,0.962-0.343,1.416-0.439l-6.216-7.334c-0.123-0.146-0.301-0.232-0.49-0.24c-0.179-0.021-0.374,0.062-0.51,0.196
		l-4.392,4.352l-8.24-8.153c-0.128-0.126-0.301-0.197-0.48-0.197c-0.002,0-0.004,0-0.005,0c-0.183,0.002-0.356,0.076-0.482,0.206
		l-8.853,9.061c-0.125,0.127-0.194,0.299-0.194,0.477v9.057c0,0.35,0.268,0.628,0.607,0.667v-7.67L21.384,51.805z"/>
	<path fill="#1A0C3E" d="M39.934,51.734c0.266-0.268,0.262-0.699-0.006-0.965l-0.17-0.169l-0.969,0.961l0.18,0.178
		C39.236,52.003,39.668,52.003,39.934,51.734z"/>
	<path fill="#1A0C3E" d="M43.026,60.265c0.144-0.495,0.287-0.944,0.435-1.364H21.384v-7.096l-0.757,0.774v7.67
		c0.026,0.004,0.049,0.016,0.075,0.016H43.026z"/>
	<path fill="#1A0C3E" d="M38.176,66.155c-1.264,0-3.271-0.463-5.211-0.912c-2.13-0.492-4.123-0.952-5.551-0.952
		c-0.945,0-2.218,0.195-3.564,0.403c-1.568,0.242-3.344,0.515-4.827,0.515c-1.392,0-2.341-0.243-2.818-0.718
		c-0.951-0.953-0.617-3.711-0.158-6.697c0.185-1.198,0.359-2.329,0.359-3.168c0-1.74-0.292-4.355-0.573-6.885
		c-0.28-2.522-0.568-5.105-0.568-6.775c0-1.214,0.285-3.118,0.562-4.959c0.299-1.993,0.58-3.864,0.58-5.182
		c0-0.905-0.19-2.136-0.391-3.439c-0.505-3.274-0.869-6.299,0.189-7.357c0.413-0.413,1.243-0.622,2.469-0.622
		c1.31,0,2.882,0.241,4.27,0.454c1.259,0.194,2.394,0.368,3.23,0.368c1.548,0,3.757-0.33,6.093-0.678
		c2.196-0.329,4.458-0.667,5.91-0.667c1.479,0,3.78,0.338,6.007,0.665c2.272,0.334,4.621,0.68,6.202,0.68
		c0.867,0,2.042-0.181,3.287-0.373c1.441-0.222,3.071-0.473,4.438-0.473c1.268,0,2.128,0.217,2.556,0.646
		c0.941,0.941,0.627,3.557,0.156,6.625c-0.184,1.188-0.356,2.308-0.356,3.138c0,1.515,0.408,3.656,0.84,5.922
		c0.223,1.172,0.449,2.361,0.606,3.429c0.405-0.33,0.813-0.66,1.223-0.989c-0.144-0.858-0.311-1.759-0.488-2.695
		c-0.401-2.105-0.816-4.282-0.816-5.667c0-0.723,0.164-1.793,0.339-2.927c0.454-2.951,0.97-6.293-0.539-7.801
		c-0.702-0.703-1.854-1.045-3.52-1.045c-1.466,0-3.152,0.26-4.64,0.489c-1.224,0.187-2.332,0.356-3.085,0.356
		c-1.478,0-3.778-0.338-6.005-0.665c-2.272-0.334-4.622-0.68-6.204-0.68c-1.55,0-3.757,0.329-6.094,0.678
		c-2.195,0.328-4.457,0.667-5.909,0.667c-0.738,0-1.828-0.168-2.981-0.346c-1.454-0.224-3.093-0.476-4.519-0.476
		c-1.624,0-2.746,0.334-3.433,1.021c-1.634,1.634-1.071,5.295-0.574,8.524c0.192,1.253,0.375,2.435,0.375,3.237
		c0,1.215-0.286,3.122-0.563,4.965c-0.299,1.985-0.579,3.857-0.579,5.176c0,1.742,0.291,4.361,0.572,6.89
		c0.281,2.52,0.569,5.102,0.569,6.77c0,0.731-0.166,1.813-0.344,2.957c-0.458,2.979-0.978,6.352,0.543,7.871
		c0.752,0.753,1.989,1.119,3.782,1.119c1.584,0,3.41-0.281,5.021-0.528c1.315-0.202,2.539-0.391,3.37-0.391
		c1.267,0,3.28,0.465,5.227,0.915c2.114,0.488,4.11,0.95,5.535,0.95c0.872,0,1.966-0.165,3.157-0.392l0.341-1.454
		C40.329,65.946,39.076,66.155,38.176,66.155z"/>
	<g>
		<circle fill="#FEE251" cx="45.673" cy="35.353" r="3.437"/>
	</g>
	<g>
		<path fill="#1A0C3E" d="M44.232,39.075c-2.271,0-4.119-1.848-4.119-4.119c0-2.271,1.849-4.119,4.119-4.119
			c2.271,0,4.119,1.848,4.119,4.119C48.352,37.227,46.504,39.075,44.232,39.075z M44.232,32.201c-1.519,0-2.755,1.235-2.755,2.755
			c0,1.519,1.236,2.755,2.755,2.755s2.755-1.236,2.755-2.755C46.987,33.437,45.751,32.201,44.232,32.201z"/>
	</g>
</g>
</svg>
