<?xml version="1.0" encoding="utf-8"?>
<!-- Generator: Adobe Illustrator 16.0.0, SVG Export Plug-In . SVG Version: 6.00 Build 0)  -->
<!DOCTYPE svg PUBLIC "-//W3C//DTD SVG 1.1//EN" "http://www.w3.org/Graphics/SVG/1.1/DTD/svg11.dtd">
<svg version="1.1" id="Layer_1" xmlns="http://www.w3.org/2000/svg" xmlns:xlink="http://www.w3.org/1999/xlink" x="0px" y="0px"
	 width="85.04px" height="60px" viewBox="0 0 85.04 60" enable-background="new 0 0 85.04 60" xml:space="preserve">
<g>
	<g>
		<path fill="#1A0C3E" d="M33.13,22.892H17.599c-0.4,0-0.725-0.325-0.725-0.725V6.5c0-0.4,0.324-0.725,0.725-0.725H33.13
			c0.4,0,0.725,0.325,0.725,0.725v15.667C33.854,22.567,33.53,22.892,33.13,22.892z M18.323,21.441h14.082V7.225H18.323V21.441z"/>
	</g>
	<g>
		<path fill="#1A0C3E" d="M48.661,22.892H33.13c-0.4,0-0.725-0.325-0.725-0.725V6.5c0-0.4,0.324-0.725,0.725-0.725h15.531
			c0.4,0,0.725,0.325,0.725,0.725v15.667C49.386,22.567,49.062,22.892,48.661,22.892z M33.854,21.441h14.082V7.225H33.854V21.441z"
			/>
	</g>
	<g>
		<path fill="#1A0C3E" d="M48.661,22.892c-0.4,0-0.725-0.325-0.725-0.725V6.5c0-0.4,0.324-0.725,0.725-0.725h15.53
			c0.4,0,0.725,0.325,0.725,0.725v6.818c0,0.4-0.324,0.725-0.725,0.725s-0.725-0.325-0.725-0.725V7.225H49.386v14.941
			C49.386,22.567,49.062,22.892,48.661,22.892z"/>
	</g>
	<g>
		<path fill="#1A0C3E" d="M33.13,38.558H17.599c-0.4,0-0.725-0.324-0.725-0.725V22.167c0-0.4,0.324-0.725,0.725-0.725H33.13
			c0.4,0,0.725,0.325,0.725,0.725v15.667C33.854,38.233,33.53,38.558,33.13,38.558z M18.323,37.108h14.082V22.892H18.323V37.108z"/>
	</g>
	<g>
		<path fill="#1A0C3E" d="M48.661,38.558H33.13c-0.4,0-0.725-0.324-0.725-0.725V22.167c0-0.4,0.324-0.725,0.725-0.725h15.531
			c0.4,0,0.725,0.325,0.725,0.725v15.667C49.386,38.233,49.062,38.558,48.661,38.558z M33.854,37.108h14.082V22.892H33.854V37.108z"
			/>
	</g>
	<g>
		<path fill="#1A0C3E" d="M33.13,54.225H17.599c-0.4,0-0.725-0.324-0.725-0.725V37.833c0-0.4,0.324-0.725,0.725-0.725H33.13
			c0.4,0,0.725,0.324,0.725,0.725V53.5C33.854,53.9,33.53,54.225,33.13,54.225z M18.323,52.775h14.082V38.558H18.323V52.775z"/>
	</g>
	<g>
		<path fill="#1A0C3E" d="M48.661,54.225H33.13c-0.4,0-0.725-0.324-0.725-0.725V37.833c0-0.4,0.324-0.725,0.725-0.725h15.531
			c0.4,0,0.725,0.324,0.725,0.725V53.5C49.386,53.9,49.062,54.225,48.661,54.225z M33.854,52.775h14.082V38.558H33.854V52.775z"/>
	</g>
	<g>
		<path fill="#1A0C3E" d="M64.191,54.225h-15.53c-0.4,0-0.725-0.324-0.725-0.725V37.833c0-0.4,0.324-0.725,0.725-0.725
			s0.725,0.324,0.725,0.725v14.942h14.081v-8.108c0-0.4,0.324-0.725,0.725-0.725s0.725,0.324,0.725,0.725V53.5
			C64.916,53.9,64.592,54.225,64.191,54.225z"/>
	</g>
	<g>
		<path fill="#FFFFFF" d="M60.42,40.137c-6.001,1.305-11.925-2.501-13.23-8.502c-1.305-6,2.501-11.923,8.502-13.229
			c6.001-1.306,11.924,2.5,13.229,8.501"/>
		<path fill="#1A0C3E" d="M58.055,41.117c-5.45,0-10.369-3.791-11.573-9.328c-1.389-6.382,2.675-12.703,9.056-14.092
			c3.094-0.672,6.261-0.101,8.922,1.609c2.661,1.71,4.498,4.355,5.17,7.446c0.086,0.392-0.163,0.777-0.554,0.863
			c-0.382,0.086-0.777-0.162-0.862-0.554c-0.591-2.713-2.202-5.034-4.538-6.535c-2.335-1.502-5.117-2.003-7.829-1.412
			c-5.601,1.218-9.166,6.766-7.948,12.366c1.219,5.601,6.769,9.166,12.368,7.948c0.384-0.086,0.777,0.162,0.862,0.554
			c0.086,0.392-0.163,0.777-0.554,0.862C59.729,41.028,58.886,41.117,58.055,41.117z"/>
	</g>
	<g>
		<path fill="#FFFFFF" d="M58.055,36.683c-4.093,0-7.41-3.318-7.41-7.412s3.317-7.411,7.41-7.411c4.095,0,7.412,3.318,7.412,7.411"
			/>
		<path fill="#1A0C3E" d="M58.055,37.407c-4.485,0-8.135-3.649-8.135-8.136c0-4.486,3.649-8.136,8.135-8.136
			c4.487,0,8.137,3.65,8.137,8.136c0,0.4-0.324,0.725-0.725,0.725s-0.725-0.325-0.725-0.725c0-3.687-3-6.686-6.688-6.686
			c-3.687,0-6.686,3-6.686,6.686c0,3.687,2.999,6.687,6.686,6.687c0.4,0,0.725,0.324,0.725,0.725S58.455,37.407,58.055,37.407z"/>
	</g>
	<g>
		<g>
			<path fill="#1A0C3E" d="M64.312,39.505c-0.241,0-0.467-0.12-0.602-0.32l-1.549-2.307c-0.224-0.333-0.135-0.783,0.197-1.006
				c0.334-0.225,0.784-0.134,1.006,0.197l0.935,1.391l0.817-1.271c0.215-0.336,0.662-0.435,1.002-0.217
				c0.336,0.216,0.434,0.665,0.217,1.002l-1.414,2.199c-0.132,0.205-0.358,0.33-0.603,0.332
				C64.316,39.505,64.313,39.505,64.312,39.505z"/>
		</g>
		<g>
			<path fill="#1A0C3E" d="M71.44,38.312c-0.134,0-0.27-0.037-0.391-0.114l-4.504-2.895c-0.337-0.217-0.435-0.665-0.219-1.002
				l2.305-3.587l-9.96-1.636l3.249,4.841c0.224,0.333,0.135,0.783-0.197,1.006c-0.333,0.227-0.783,0.136-1.006-0.197l-4.184-6.232
				c-0.161-0.24-0.165-0.553-0.009-0.796s0.443-0.372,0.728-0.323l12.703,2.086c0.241,0.04,0.446,0.198,0.545,0.421
				c0.1,0.223,0.08,0.481-0.052,0.687l-2.51,3.905l3.894,2.502c0.337,0.217,0.435,0.665,0.219,1.002
				C71.913,38.194,71.68,38.312,71.44,38.312z"/>
		</g>
	</g>
</g>
</svg>
