<?xml version="1.0" encoding="utf-8"?>
<!-- Generator: Adobe Illustrator 16.0.0, SVG Export Plug-In . SVG Version: 6.00 Build 0)  -->
<!DOCTYPE svg PUBLIC "-//W3C//DTD SVG 1.1//EN" "http://www.w3.org/Graphics/SVG/1.1/DTD/svg11.dtd">
<svg version="1.1" id="Layer_1" xmlns="http://www.w3.org/2000/svg" xmlns:xlink="http://www.w3.org/1999/xlink" x="0px" y="0px"
	 width="85.04px" height="60px" viewBox="0 0 85.04 60" enable-background="new 0 0 85.04 60" xml:space="preserve">
<g>
	<g>
		<path fill="#FFFFFF" d="M69.973,24.715l-0.178-0.173c-0.404-0.311-0.9-0.468-1.475-0.468c-0.866,0-1.617,0.362-1.699,0.404
			l-0.099,0.061c-0.449,0.339-11.034,8.332-14.2,11.61c-1.607,1.663-5.445,7.136-5.607,7.368l-0.125,0.178
			c-1.029,0.111-2.543,0.512-3.564,1.828c-1.551,1.991-2.073,3.35-3.291,8.55l-0.209,0.892l0.907-0.121
			c0.261-0.035,6.403-0.875,8.83-3.201c1.274-1.218,1.661-2.825,1.776-3.782l0.01-0.007c0.232-0.162,5.704-4,7.369-5.607
			c3.278-3.167,11.271-13.751,11.609-14.2l0.062-0.098C70.127,27.871,71.013,26.06,69.973,24.715z M57.05,41.778
			c-0.298,0.256-0.649,0.543-1.04,0.852l-4.127-4.002c0.294-0.372,0.571-0.717,0.821-1.01L57.05,41.778z M51.105,39.635L55,43.411
			c-1.607,1.223-3.429,2.523-4.243,3.101l-2.701-2.701C48.625,43.006,49.897,41.225,51.105,39.635z M48.389,50.729
			c-1.621,1.554-5.443,2.395-7.205,2.711c1.092-4.536,1.586-5.53,2.839-7.141c1.009-1.298,2.771-1.385,3.359-1.375l2.434,2.434
			C49.781,47.981,49.578,49.593,48.389,50.729z M68.977,27.34c-0.61,0.807-7.698,10.152-11.011,13.565l-4.397-4.21
			c3.328-3.271,12.854-10.496,13.662-11.106c0.145-0.063,0.61-0.25,1.09-0.25c0.293,0,0.522,0.067,0.64,0.148l0.063,0.057
			C69.465,26.12,69.071,27.12,68.977,27.34z"/>
	</g>
	<g>
		<g>
			<g>
				<path fill="#FFFFFF" d="M39.95,46.981c-0.441,0-4.379-0.035-6.829-1.23c-1.979-0.964-3.069-2.439-3.069-4.154
					c0-0.821,0.178-1.521,0.528-2.079c0.017-0.026,0.42-0.668,0.712-0.963c0.74-0.747,4.832-4.073,5.35-4.471
					c0.577-0.445,0.908-1.116,0.908-1.841c0-1.285-1.052-2.331-2.344-2.331c-0.727,0-1.387,0.391-2.075,1.23
					c-0.892,1.084-2.085,2.495-3.064,3.651c-0.813,0.961-1.582,1.869-1.721,2.055l-0.135,0.152c-0.844,0.868-1.962,1.34-3.161,1.34
					c-1.662,0-3.161-0.92-3.911-2.401c-0.081-0.128-2.576-4.261-2.576-10.076C18.563,14.359,27.922,5,39.425,5
					c11.505,0,20.864,9.359,20.864,20.863c0,0.349-0.283,0.632-0.632,0.632s-0.632-0.283-0.632-0.632
					c0-10.808-8.793-19.599-19.601-19.599c-10.806,0-19.598,8.791-19.598,19.599c0,5.443,2.39,9.422,2.414,9.461
					c0.559,1.098,1.625,1.752,2.809,1.752c0.854,0,1.651-0.336,2.243-0.944l0.08-0.089c0.113-0.156,0.702-0.853,1.729-2.065
					c0.976-1.152,2.165-2.558,3.051-3.638c0.936-1.139,1.935-1.692,3.054-1.692c1.989,0,3.608,1.613,3.608,3.596
					c0,1.119-0.511,2.155-1.401,2.842c-0.535,0.411-4.565,3.696-5.224,4.36c-0.118,0.119-0.374,0.48-0.537,0.743
					c-0.224,0.354-0.336,0.828-0.336,1.408c0,1.545,1.282,2.494,2.357,3.019c1.784,0.869,4.784,1.102,6.276,1.102
					c0.349,0,0.632,0.283,0.632,0.632S40.299,46.981,39.95,46.981z"/>
			</g>
		</g>
		<g>
			<g>
				<path fill="#FFFFFF" d="M47.399,36.029c-2.187,0-3.966-1.771-3.966-3.949c0-2.179,1.779-3.95,3.966-3.95s3.966,1.771,3.966,3.95
					C51.365,34.258,49.586,36.029,47.399,36.029z M47.399,29.395c-1.49,0-2.701,1.204-2.701,2.686c0,1.48,1.211,2.685,2.701,2.685
					c1.489,0,2.701-1.204,2.701-2.685C50.101,30.599,48.889,29.395,47.399,29.395z"/>
			</g>
		</g>
		<g>
			<g>
				<path fill="#FFFFFF" d="M47.821,25.462c-2.912,0-5.282-2.359-5.282-5.261s2.37-5.261,5.282-5.261s5.281,2.359,5.281,5.261
					S50.733,25.462,47.821,25.462z M47.821,16.204c-2.216,0-4.018,1.793-4.018,3.997c0,2.203,1.802,3.996,4.018,3.996
					s4.018-1.793,4.018-3.996C51.839,17.997,50.037,16.204,47.821,16.204z"/>
			</g>
		</g>
		<g>
			<g>
				<path fill="#FFFFFF" d="M32.918,22.41c-2.912,0-5.28-2.359-5.28-5.261c0-2.9,2.368-5.261,5.28-5.261s5.282,2.36,5.282,5.261
					C38.2,20.051,35.83,22.41,32.918,22.41z M32.918,13.153c-2.215,0-4.017,1.793-4.017,3.996c0,2.204,1.802,3.997,4.017,3.997
					c2.216,0,4.018-1.793,4.018-3.997C36.936,14.946,35.134,13.153,32.918,13.153z"/>
			</g>
		</g>
		<g>
			<g>
				<path fill="#FFFFFF" d="M25.103,30.097c-1.823,0-3.307-1.477-3.307-3.293s1.483-3.294,3.307-3.294s3.308,1.478,3.308,3.294
					S26.926,30.097,25.103,30.097z M25.103,24.774c-1.126,0-2.042,0.91-2.042,2.029c0,1.118,0.916,2.029,2.042,2.029
					s2.043-0.911,2.043-2.029C27.146,25.685,26.229,24.774,25.103,24.774z"/>
			</g>
		</g>
	</g>
</g>
</svg>
