<?xml version="1.0" encoding="utf-8"?>
<!-- Generator: Adobe Illustrator 16.0.0, SVG Export Plug-In . SVG Version: 6.00 Build 0)  -->
<!DOCTYPE svg PUBLIC "-//W3C//DTD SVG 1.1//EN" "http://www.w3.org/Graphics/SVG/1.1/DTD/svg11.dtd">
<svg version="1.1" id="Layer_1" xmlns="http://www.w3.org/2000/svg" xmlns:xlink="http://www.w3.org/1999/xlink" x="0px" y="0px"
	 width="85.04px" height="60px" viewBox="0 0 85.04 60" enable-background="new 0 0 85.04 60" xml:space="preserve">
<g>
	<g>
		<g>
			<g>
				<path fill="#FFFFFF" d="M18.038,30.908c-0.371,0-0.672-0.3-0.672-0.67v-1.384c0-1.055,0.859-1.912,1.912-1.912h6.541
					c0.369,0,0.67,0.3,0.67,0.67s-0.301,0.67-0.67,0.67h-6.541c-0.314,0-0.57,0.256-0.57,0.572v1.384
					C18.708,30.608,18.407,30.908,18.038,30.908z"/>
			</g>
		</g>
		<g>
			<g>
				<path fill="#FFFFFF" d="M30.114,28.282h-0.537c-0.371,0-0.67-0.3-0.67-0.67s0.299-0.67,0.67-0.67h0.537
					c0.371,0,0.67,0.3,0.67,0.67S30.485,28.282,30.114,28.282z"/>
			</g>
		</g>
		<g>
			<g>
				<path fill="#FFFFFF" d="M31.896,38.28H19.278c-1.053,0-1.912-0.858-1.912-1.913v-1.508c0-0.369,0.301-0.67,0.672-0.67
					c0.369,0,0.67,0.301,0.67,0.67v1.508c0,0.316,0.256,0.573,0.57,0.573h12.617c0.518,0,1.346-0.312,1.734-0.651l3.846-3.364
					c0.1-0.088,0.156-0.2,0.156-0.314c0-0.115-0.055-0.224-0.156-0.313l-3.844-3.364c-0.391-0.341-1.219-0.652-1.736-0.652
					c-0.369,0-0.67-0.3-0.67-0.67s0.301-0.67,0.67-0.67c0.854,0,1.979,0.423,2.619,0.984l3.842,3.362
					c0.391,0.342,0.615,0.823,0.615,1.321c0.002,0.5-0.223,0.982-0.613,1.323l-3.846,3.364C33.874,37.857,32.749,38.28,31.896,38.28
					z"/>
			</g>
		</g>
		<g>
			<g>
				<path fill="#FFFFFF" d="M18.038,33.533c-0.371,0-0.672-0.301-0.672-0.67v-0.717c0-0.369,0.301-0.67,0.672-0.67
					c0.369,0,0.67,0.301,0.67,0.67v0.717C18.708,33.232,18.407,33.533,18.038,33.533z"/>
			</g>
		</g>
	</g>
	<g>
		<g>
			<g>
				<path fill="#FFFFFF" d="M66.753,20.54c-0.369,0-0.67-0.3-0.67-0.67v-1.384c0-0.315-0.258-0.572-0.572-0.572h-6.539
					c-0.371,0-0.67-0.3-0.67-0.67c0-0.37,0.299-0.67,0.67-0.67h6.539c1.055,0,1.912,0.857,1.912,1.912v1.384
					C67.423,20.24,67.122,20.54,66.753,20.54z"/>
			</g>
		</g>
		<g>
			<g>
				<path fill="#FFFFFF" d="M55.214,17.914h-0.539c-0.369,0-0.67-0.3-0.67-0.67c0-0.37,0.301-0.67,0.67-0.67h0.539
					c0.369,0,0.67,0.3,0.67,0.67C55.884,17.614,55.583,17.914,55.214,17.914z"/>
			</g>
		</g>
		<g>
			<g>
				<path fill="#FFFFFF" d="M65.511,27.912H52.894c-0.852,0-1.977-0.423-2.619-0.984l-3.842-3.363
					c-0.391-0.342-0.615-0.825-0.615-1.324c0-0.498,0.225-0.98,0.615-1.321l3.844-3.362c0.641-0.561,1.766-0.984,2.617-0.984
					c0.369,0,0.67,0.3,0.67,0.67c0,0.371-0.301,0.67-0.67,0.67c-0.518,0-1.346,0.311-1.734,0.652l-3.846,3.363
					c-0.102,0.09-0.154,0.198-0.154,0.313c0,0.114,0.055,0.227,0.156,0.315l3.842,3.363c0.391,0.341,1.219,0.652,1.736,0.652h12.617
					c0.314,0,0.572-0.257,0.572-0.573v-1.508c0-0.37,0.301-0.67,0.67-0.67s0.67,0.3,0.67,0.67v1.508
					C67.423,27.054,66.565,27.912,65.511,27.912z"/>
			</g>
		</g>
		<g>
			<g>
				<path fill="#FFFFFF" d="M66.753,23.165c-0.369,0-0.67-0.3-0.67-0.67v-0.715c0-0.37,0.301-0.67,0.67-0.67s0.67,0.3,0.67,0.67
					v0.715C67.423,22.865,67.122,23.165,66.753,23.165z"/>
			</g>
		</g>
	</g>
	<g>
		<g>
			<g>
				<path fill="#FFFFFF" d="M66.753,40.784c-0.369,0-0.67-0.301-0.67-0.671v-1.384c0-0.315-0.258-0.571-0.572-0.571h-6.539
					c-0.371,0-0.67-0.301-0.67-0.671c0-0.369,0.299-0.67,0.67-0.67h6.539c1.055,0,1.912,0.857,1.912,1.912v1.384
					C67.423,40.483,67.122,40.784,66.753,40.784z"/>
			</g>
		</g>
		<g>
			<g>
				<path fill="#FFFFFF" d="M55.214,38.158h-0.539c-0.369,0-0.67-0.301-0.67-0.671c0-0.369,0.301-0.67,0.67-0.67h0.539
					c0.369,0,0.67,0.301,0.67,0.67C55.884,37.857,55.583,38.158,55.214,38.158z"/>
			</g>
		</g>
		<g>
			<g>
				<path fill="#FFFFFF" d="M65.511,48.156H52.894c-0.852,0-1.977-0.423-2.619-0.984l-3.842-3.362
					c-0.391-0.342-0.615-0.825-0.615-1.324c0-0.498,0.225-0.98,0.615-1.321l3.844-3.363c0.641-0.561,1.766-0.983,2.617-0.983
					c0.369,0,0.67,0.301,0.67,0.67c0,0.37-0.301,0.671-0.67,0.671c-0.518,0-1.346,0.311-1.734,0.651l-3.846,3.363
					c-0.102,0.09-0.154,0.198-0.154,0.313c0,0.114,0.055,0.227,0.156,0.315l3.842,3.361c0.391,0.342,1.219,0.652,1.736,0.652h12.617
					c0.314,0,0.572-0.256,0.572-0.572v-1.508c0-0.37,0.301-0.67,0.67-0.67s0.67,0.3,0.67,0.67v1.508
					C67.423,47.298,66.565,48.156,65.511,48.156z"/>
			</g>
		</g>
		<g>
			<g>
				<path fill="#FFFFFF" d="M66.753,43.409c-0.369,0-0.67-0.301-0.67-0.671v-0.716c0-0.369,0.301-0.67,0.67-0.67
					s0.67,0.301,0.67,0.67v0.716C67.423,43.108,67.122,43.409,66.753,43.409z"/>
			</g>
		</g>
	</g>
	<g>
		<g>
			<path fill="#FFFFFF" d="M42.394,15.041c-2.793,0-5.066-2.273-5.066-5.067s2.273-5.067,5.066-5.067
				c2.795,0,5.068,2.273,5.068,5.067S45.188,15.041,42.394,15.041z M42.394,6.248c-2.053,0-3.725,1.672-3.725,3.727
				c0,2.055,1.672,3.727,3.725,3.727c2.057,0,3.729-1.671,3.729-3.727C46.122,7.919,44.45,6.248,42.394,6.248z"/>
		</g>
	</g>
	<g>
		<g>
			<path fill="#FFFFFF" d="M42.396,54.907c-0.178,0-0.35-0.07-0.475-0.197l-3.666-3.666c-0.262-0.261-0.26-0.687,0.002-0.948
				c0.26-0.262,0.686-0.261,0.947,0.001l3.191,3.193l3.189-3.193c0.262-0.262,0.688-0.263,0.949-0.001s0.262,0.687,0,0.948
				L42.87,54.71C42.743,54.837,42.573,54.907,42.396,54.907z"/>
		</g>
	</g>
	<g>
		<path fill="#FFFFFF" d="M42.087,26.913"/>
	</g>
	<path fill="#FFFFFF" d="M41.726,45.089v8.139c0,0.37,0.301,0.67,0.67,0.67s0.67-0.3,0.67-0.67v-8.139
		c-0.216,0.056-0.438,0.095-0.67,0.095S41.941,45.145,41.726,45.089z"/>
	<path fill="#FFFFFF" d="M43.065,19.373v-4.86c0-0.37-0.301-0.67-0.67-0.67s-0.67,0.3-0.67,0.67v4.86
		c0.216-0.056,0.438-0.094,0.67-0.094S42.85,19.317,43.065,19.373z"/>
	<path fill="#FFFFFF" d="M43.065,30.009v-5.431c-0.216,0.056-0.438,0.094-0.67,0.094s-0.454-0.039-0.67-0.094v5.431
		c0.216-0.056,0.438-0.094,0.67-0.094S42.85,29.953,43.065,30.009z"/>
	<path fill="#FFFFFF" d="M42.396,35.308c-0.232,0-0.454-0.039-0.67-0.095v4.672c0.216-0.056,0.438-0.095,0.67-0.095
		s0.454,0.039,0.67,0.095v-4.672C42.85,35.269,42.628,35.308,42.396,35.308z"/>
	<path fill="#FFFFFF" d="M43.065,20.417c-0.206-0.088-0.432-0.139-0.67-0.139s-0.464,0.05-0.67,0.138
		c-0.604,0.26-1.027,0.859-1.027,1.559s0.424,1.298,1.027,1.559c0.206,0.088,0.432,0.138,0.67,0.138s0.464-0.05,0.67-0.139
		c0.604-0.26,1.027-0.859,1.027-1.558S43.669,20.678,43.065,20.417z"/>
	<path fill="#FFFFFF" d="M43.065,31.054c-0.206-0.089-0.432-0.139-0.67-0.139s-0.464,0.05-0.67,0.138
		c-0.604,0.26-1.027,0.859-1.027,1.559c0,0.698,0.424,1.298,1.027,1.558c0.206,0.089,0.432,0.139,0.67,0.139s0.464-0.05,0.67-0.139
		c0.604-0.26,1.027-0.859,1.027-1.558C44.093,31.912,43.669,31.313,43.065,31.054z"/>
	<path fill="#FFFFFF" d="M43.065,40.929c-0.206-0.089-0.432-0.139-0.67-0.139s-0.464,0.05-0.67,0.139
		c-0.604,0.259-1.027,0.858-1.027,1.559c0,0.698,0.424,1.298,1.027,1.558c0.206,0.089,0.432,0.139,0.67,0.139s0.464-0.05,0.67-0.139
		c0.604-0.26,1.027-0.859,1.027-1.558C44.093,41.787,43.669,41.188,43.065,40.929z"/>
</g>
</svg>
