<?xml version="1.0" encoding="utf-8"?>
<!-- Generator: Adobe Illustrator 16.0.0, SVG Export Plug-In . SVG Version: 6.00 Build 0)  -->
<!DOCTYPE svg PUBLIC "-//W3C//DTD SVG 1.1//EN" "http://www.w3.org/Graphics/SVG/1.1/DTD/svg11.dtd">
<svg version="1.1" id="Layer_1" xmlns="http://www.w3.org/2000/svg" xmlns:xlink="http://www.w3.org/1999/xlink" x="0px" y="0px"
	 width="85.04px" height="60px" viewBox="0 0 85.04 60" enable-background="new 0 0 85.04 60" xml:space="preserve">
<g>
	<g>
		<g>
			<path fill="#FFFFFF" d="M54.69,47.535H30.588c-0.345,0-0.625-0.28-0.625-0.625s0.28-0.625,0.625-0.625H54.69
				c0.345,0,0.625,0.28,0.625,0.625S55.035,47.535,54.69,47.535z"/>
		</g>
		<g>
			<path fill="#FFFFFF" d="M58.711,39.096c-0.345,0-0.625-0.28-0.625-0.625V13.072H37.662c-0.345,0-0.625-0.28-0.625-0.625
				s0.28-0.625,0.625-0.625h21.049c0.345,0,0.625,0.28,0.625,0.625v26.023C59.336,38.815,59.056,39.096,58.711,39.096z"/>
		</g>
		<g>
			<path fill="#FFFFFF" d="M24.068,40.788c-0.345,0-0.625-0.28-0.625-0.625V12.447c0-0.345,0.28-0.625,0.625-0.625h9.026
				c0.345,0,0.625,0.28,0.625,0.625s-0.28,0.625-0.625,0.625h-8.401v27.091C24.693,40.508,24.413,40.788,24.068,40.788z"/>
		</g>
	</g>
	<g>
		<path fill="#FFFFFF" d="M24.068,47.535c-0.345,0-0.625-0.28-0.625-0.625v-4.166c0-0.345,0.28-0.625,0.625-0.625
			s0.625,0.28,0.625,0.625v4.166C24.693,47.255,24.413,47.535,24.068,47.535z"/>
	</g>
	<g>
		<path fill="#FFFFFF" d="M28.583,47.535h-4.515c-0.345,0-0.625-0.28-0.625-0.625s0.28-0.625,0.625-0.625h4.515
			c0.345,0,0.625,0.28,0.625,0.625S28.928,47.535,28.583,47.535z"/>
	</g>
</g>
<g>
	<g>
		<path fill="#FFFFFF" d="M59.121,46.775c-0.306,0-0.593-0.188-0.704-0.491l-0.084-0.225c-0.147-0.388,0.048-0.82,0.435-0.968
			s0.819,0.048,0.968,0.435l0.09,0.24c0.143,0.39-0.057,0.82-0.445,0.963C59.294,46.761,59.207,46.775,59.121,46.775z"/>
	</g>
	<g>
		<path fill="#FFFFFF" d="M57.817,43.743c-0.271,0-0.533-0.147-0.667-0.404c-0.074-0.145-0.152-0.288-0.231-0.432
			c-0.2-0.362-0.069-0.818,0.294-1.019c0.361-0.202,0.819-0.069,1.019,0.294c0.085,0.153,0.169,0.309,0.251,0.465
			c0.19,0.367,0.047,0.82-0.32,1.012C58.052,43.716,57.934,43.743,57.817,43.743z M55.782,40.832c-0.197,0-0.394-0.077-0.541-0.23
			c-0.106-0.111-0.217-0.22-0.331-0.324c-0.304-0.281-0.323-0.756-0.043-1.061c0.283-0.304,0.756-0.323,1.061-0.043
			c0.136,0.126,0.268,0.256,0.396,0.389c0.287,0.299,0.277,0.773-0.021,1.061C56.156,40.763,55.969,40.832,55.782,40.832z
			 M41.852,39.359c-0.388,0-0.716-0.298-0.747-0.691c-0.032-0.413,0.276-0.773,0.689-0.807c0.167-0.013,0.329-0.027,0.487-0.045
			c0.41-0.045,0.781,0.256,0.825,0.667s-0.255,0.781-0.667,0.825c-0.172,0.018-0.348,0.034-0.528,0.049
			C41.892,39.358,41.871,39.359,41.852,39.359z M38.801,39.351c-0.021,0-0.041-0.001-0.062-0.003
			c-0.175-0.014-0.351-0.03-0.527-0.05c-0.412-0.045-0.71-0.415-0.664-0.826c0.044-0.413,0.42-0.724,0.826-0.664
			c0.163,0.018,0.325,0.032,0.486,0.046c0.413,0.033,0.721,0.396,0.687,0.808C39.516,39.054,39.188,39.351,38.801,39.351z
			 M52.859,38.844c-0.094,0-0.188-0.018-0.28-0.055c-0.142-0.057-0.287-0.11-0.436-0.16c-0.393-0.132-0.604-0.557-0.473-0.949
			s0.559-0.604,0.949-0.473c0.178,0.06,0.351,0.123,0.52,0.191c0.384,0.154,0.57,0.591,0.415,0.976
			C53.438,38.666,53.156,38.844,52.859,38.844z M35.299,38.71c-0.07,0-0.142-0.01-0.212-0.03c-0.171-0.051-0.341-0.104-0.511-0.16
			c-0.393-0.132-0.605-0.556-0.475-0.949c0.132-0.393,0.552-0.604,0.949-0.475c0.152,0.052,0.307,0.1,0.46,0.145
			c0.397,0.117,0.625,0.535,0.508,0.932C35.922,38.499,35.623,38.71,35.299,38.71z M45.347,38.693c-0.337,0-0.644-0.229-0.728-0.572
			c-0.099-0.402,0.148-0.808,0.551-0.906c0.175-0.043,0.346-0.082,0.516-0.119c0.409-0.089,0.805,0.17,0.892,0.575
			s-0.171,0.804-0.575,0.892c-0.156,0.033-0.315,0.07-0.477,0.109C45.466,38.687,45.406,38.693,45.347,38.693z M48.869,38.19
			c-0.405,0-0.739-0.323-0.75-0.73c-0.011-0.414,0.316-0.759,0.73-0.77l0.351-0.004c0.414,0.007,0.84,0.35,0.832,0.764
			c-0.006,0.409-0.248,0.738-0.654,0.738c-0.004,0-0.008,0-0.013,0l0.013-0.75l-0.095,0.749l-0.395,0.003
			C48.882,38.19,48.875,38.19,48.869,38.19z M32.051,37.271c-0.136,0-0.273-0.037-0.396-0.114c-0.153-0.096-0.305-0.195-0.452-0.298
			c-0.341-0.235-0.427-0.702-0.191-1.043s0.701-0.428,1.043-0.191c0.13,0.089,0.262,0.177,0.396,0.261
			c0.352,0.22,0.458,0.683,0.238,1.033C32.545,37.146,32.301,37.271,32.051,37.271z M29.418,34.903c-0.224,0-0.444-0.1-0.593-0.289
			c-0.112-0.145-0.222-0.293-0.327-0.446c-0.234-0.341-0.148-0.809,0.193-1.043c0.343-0.233,0.81-0.148,1.043,0.193
			c0.088,0.128,0.18,0.253,0.274,0.374c0.254,0.326,0.196,0.798-0.131,1.053C29.741,34.852,29.579,34.903,29.418,34.903z
			 M27.783,31.76c-0.318,0-0.613-0.203-0.715-0.522c-0.054-0.17-0.104-0.343-0.152-0.519c-0.108-0.399,0.128-0.812,0.527-0.92
			c0.401-0.11,0.812,0.128,0.92,0.527c0.042,0.155,0.087,0.307,0.135,0.457c0.125,0.395-0.093,0.816-0.487,0.942
			C27.935,31.748,27.858,31.76,27.783,31.76z M27.252,28.255c-0.008,0-0.017,0-0.025,0c-0.414-0.014-0.738-0.361-0.725-0.775
			c0.007-0.184,0.019-0.366,0.034-0.547c0.036-0.413,0.405-0.722,0.813-0.682c0.412,0.036,0.718,0.4,0.682,0.813
			c-0.014,0.154-0.023,0.311-0.028,0.468C27.987,27.936,27.654,28.255,27.252,28.255z M28.051,24.806
			c-0.102,0-0.204-0.021-0.302-0.063c-0.38-0.167-0.552-0.61-0.385-0.989c0.074-0.168,0.152-0.333,0.235-0.498
			c0.188-0.369,0.638-0.517,1.009-0.329c0.369,0.188,0.517,0.639,0.329,1.008c-0.071,0.139-0.138,0.28-0.2,0.423
			C28.613,24.639,28.339,24.806,28.051,24.806z M29.999,21.839c-0.179,0-0.358-0.063-0.502-0.192
			c-0.308-0.277-0.333-0.751-0.056-1.059c0.12-0.134,0.243-0.265,0.369-0.394c0.29-0.295,0.765-0.302,1.061-0.013
			c0.297,0.289,0.303,0.764,0.014,1.061c-0.112,0.115-0.222,0.231-0.328,0.349C30.408,21.755,30.204,21.839,29.999,21.839z
			 M32.717,19.547c-0.248,0-0.489-0.122-0.633-0.346c-0.224-0.349-0.121-0.813,0.228-1.036c0.152-0.097,0.305-0.191,0.459-0.282
			c0.356-0.209,0.816-0.09,1.026,0.268c0.21,0.357,0.09,0.817-0.267,1.026c-0.139,0.081-0.275,0.165-0.41,0.251
			C32.995,19.509,32.854,19.547,32.717,19.547z M35.938,18.047c-0.322,0-0.619-0.208-0.718-0.532c-0.12-0.396,0.104-0.815,0.5-0.936
			c0.175-0.053,0.35-0.102,0.524-0.146c0.395-0.102,0.809,0.14,0.911,0.542c0.103,0.401-0.141,0.81-0.542,0.912
			c-0.151,0.039-0.305,0.081-0.458,0.127C36.083,18.037,36.01,18.047,35.938,18.047z M39.963,17.718
			c-0.045,0-0.09-0.004-0.136-0.012c-0.146-0.027-0.296-0.048-0.447-0.063c-0.412-0.042-0.711-0.411-0.669-0.823
			c0.043-0.412,0.403-0.703,0.823-0.669c0.19,0.02,0.377,0.046,0.563,0.08c0.407,0.074,0.678,0.465,0.604,0.873
			C40.634,17.464,40.318,17.718,39.963,17.718z"/>
	</g>
	<g>
		<path fill="#FFFFFF" d="M42.838,19.329c-0.216,0-0.431-0.093-0.579-0.273c-0.042-0.052-0.087-0.103-0.133-0.152
			c-0.283-0.302-0.267-0.777,0.035-1.06s0.778-0.268,1.061,0.036c0.067,0.072,0.132,0.146,0.195,0.222
			c0.263,0.319,0.218,0.792-0.102,1.056C43.175,19.273,43.006,19.329,42.838,19.329z"/>
	</g>
</g>
<g>
	<path fill="#FFFFFF" d="M42.465,22.183c0.249,0,0.499,0.095,0.69,0.285l2.456,2.458l2.452-2.455
		c0.192-0.191,0.442-0.286,0.692-0.286s0.499,0.095,0.69,0.286c0.379,0.38,0.379,1,0,1.381l-2.456,2.454l2.456,2.456
		c0.379,0.38,0.381,1,0,1.38c-0.19,0.191-0.439,0.286-0.69,0.286c-0.25,0-0.5-0.095-0.692-0.286l-2.452-2.455l-2.456,2.455
		c-0.19,0.191-0.44,0.286-0.691,0.286c-0.25,0-0.501-0.095-0.69-0.286c-0.382-0.38-0.38-1,0-1.38l2.457-2.456l-2.457-2.455
		c-0.382-0.383-0.38-1,0-1.381C41.965,22.278,42.215,22.183,42.465,22.183 M42.465,20.933c-0.595,0-1.154,0.232-1.575,0.653
		c-0.866,0.869-0.866,2.28-0.001,3.147l1.573,1.572l-1.572,1.571c-0.421,0.422-0.652,0.982-0.651,1.578
		c0,0.594,0.232,1.152,0.653,1.571c0.416,0.419,0.976,0.65,1.572,0.65c0.596,0,1.155-0.231,1.576-0.652l1.57-1.57l1.568,1.57
		c0.425,0.422,0.984,0.652,1.577,0.652c0.597,0,1.156-0.231,1.576-0.653c0.418-0.417,0.649-0.977,0.649-1.573
		c-0.001-0.594-0.231-1.152-0.65-1.572l-1.572-1.572l1.571-1.57c0.866-0.871,0.865-2.282,0.001-3.148
		c-0.422-0.422-0.98-0.653-1.575-0.653c-0.593,0-1.151,0.23-1.573,0.649l-1.571,1.574l-1.572-1.573
		C43.614,21.163,43.057,20.933,42.465,20.933L42.465,20.933z"/>
</g>
<g>
	<path fill="#FFFFFF" d="M69.138,53.69c-0.123,0-0.245-0.036-0.352-0.108c-0.308-0.209-7.542-5.2-7.542-11.899
		c0-4.354,3.541-7.895,7.894-7.895s7.894,3.541,7.894,7.895c0,6.91-7.244,11.706-7.553,11.906
		C69.375,53.656,69.256,53.69,69.138,53.69z M69.138,35.038c-3.663,0-6.644,2.98-6.644,6.645c0,5.258,5.24,9.555,6.649,10.615
		c1.412-1.029,6.638-5.202,6.638-10.615C75.781,38.019,72.801,35.038,69.138,35.038z"/>
</g>
<g>
	<path fill="#FFFFFF" d="M69.138,45.391c-1.913,0-3.47-1.557-3.47-3.471c0-1.913,1.557-3.47,3.47-3.47s3.47,1.557,3.47,3.47
		C72.607,43.834,71.051,45.391,69.138,45.391z M69.138,39.7c-1.224,0-2.22,0.996-2.22,2.22c0,1.225,0.996,2.221,2.22,2.221
		s2.22-0.996,2.22-2.221C71.357,40.696,70.361,39.7,69.138,39.7z"/>
</g>
<g>
	<path fill="#FFFFFF" d="M63.989,51.891c-0.47,0.471-1.405,0.708-2.78,0.708c-1.465,0-3.216-0.27-4.763-0.507
		c-1.354-0.209-2.606-0.399-3.527-0.399c-1.493,0-3.595,0.458-5.817,0.942c-2.056,0.451-4.182,0.916-5.527,0.916
		c-1.261,0-3.26-0.462-5.194-0.909c-2.121-0.491-4.109-0.949-5.532-0.949c-0.941,0-2.21,0.195-3.553,0.402
		c-1.563,0.241-3.332,0.513-4.811,0.513c-1.387,0-2.331-0.242-2.809-0.716c-0.948-0.949-0.616-3.698-0.158-6.675
		c0.184-1.194,0.357-2.321,0.357-3.157c0-1.734-0.289-4.341-0.569-6.861c-0.28-2.515-0.567-5.089-0.567-6.753
		c0-1.21,0.284-3.107,0.56-4.942c0.299-1.986,0.577-3.851,0.577-5.165c0-0.902-0.188-2.129-0.388-3.428
		c-0.503-3.263-0.866-6.278,0.188-7.333c0.411-0.411,1.239-0.62,2.459-0.62c1.307,0,2.875,0.24,4.257,0.452
		c1.254,0.193,2.385,0.367,3.22,0.367c1.544,0,3.743-0.328,6.072-0.676c2.189-0.327,4.443-0.665,5.891-0.665
		c1.474,0,3.768,0.338,5.987,0.663c2.264,0.333,4.605,0.678,6.182,0.678c0.863,0,2.035-0.18,3.275-0.371
		c1.437-0.221,3.062-0.472,4.424-0.472c1.263,0,2.12,0.217,2.547,0.644c0.938,0.938,0.624,3.545,0.155,6.603
		c-0.183,1.185-0.355,2.301-0.355,3.127c0,1.51,0.407,3.644,0.837,5.902c0.399,2.098,0.814,4.268,0.814,5.649
		c0,1.099-0.351,2.791-0.718,4.48c0.485-0.258,0.997-0.475,1.529-0.646c0.307-1.465,0.548-2.808,0.548-3.833
		c0-1.509-0.408-3.644-0.837-5.903c-0.4-2.098-0.813-4.267-0.813-5.648c0-0.72,0.163-1.787,0.337-2.917
		c0.453-2.941,0.967-6.272-0.537-7.774c-0.7-0.701-1.847-1.042-3.507-1.042c-1.462,0-3.143,0.259-4.625,0.488
		c-1.22,0.186-2.324,0.354-3.074,0.354c-1.474,0-3.767-0.336-5.985-0.663c-2.265-0.333-4.607-0.678-6.184-0.678
		c-1.543,0-3.744,0.328-6.072,0.677c-2.189,0.327-4.443,0.664-5.891,0.664c-0.735,0-1.821-0.167-2.973-0.344
		c-1.448-0.223-3.082-0.475-4.504-0.475c-1.616,0-2.736,0.333-3.42,1.019c-1.63,1.628-1.068,5.277-0.573,8.496
		c0.193,1.249,0.373,2.427,0.373,3.226c0,1.212-0.284,3.111-0.56,4.949c-0.296,1.979-0.576,3.844-0.576,5.158
		c0,1.736,0.291,4.346,0.571,6.868c0.278,2.512,0.564,5.085,0.564,6.747c0,0.729-0.165,1.806-0.34,2.947
		c-0.457,2.97-0.975,6.33,0.54,7.845c0.75,0.75,1.982,1.115,3.77,1.115c1.58,0,3.4-0.28,5.007-0.526
		c1.31-0.202,2.527-0.389,3.356-0.389c1.264,0,3.27,0.463,5.21,0.911c2.106,0.486,4.097,0.947,5.517,0.947
		c1.488,0,3.585-0.459,5.806-0.943c2.078-0.453,4.198-0.915,5.539-0.915c0.822,0,2.031,0.185,3.312,0.382
		c1.596,0.247,3.401,0.525,4.979,0.525c1.773,0,2.996-0.362,3.74-1.107c0.083-0.082,0.135-0.194,0.208-0.286
		c-0.303-0.292-0.617-0.619-0.935-0.962C64.151,51.709,64.075,51.806,63.989,51.891z"/>
</g>
</svg>
