<?xml version="1.0" encoding="utf-8"?>
<!-- Generator: Adobe Illustrator 16.0.0, SVG Export Plug-In . SVG Version: 6.00 Build 0)  -->
<!DOCTYPE svg PUBLIC "-//W3C//DTD SVG 1.1//EN" "http://www.w3.org/Graphics/SVG/1.1/DTD/svg11.dtd">
<svg version="1.1" id="Layer_1" xmlns="http://www.w3.org/2000/svg" xmlns:xlink="http://www.w3.org/1999/xlink" x="0px" y="0px"
	 width="85.04px" height="60px" viewBox="0 0 85.04 60" enable-background="new 0 0 85.04 60" xml:space="preserve">
<g>
	<g>
		<g>
			<g>
				<path fill="#FFFFFF" d="M52.349,47.744H24.541c-0.376,0-0.682-0.306-0.682-0.682v-3.525c0-0.376,0.306-0.683,0.682-0.683
					s0.683,0.307,0.683,0.683v2.843h27.125c0.376,0,0.682,0.307,0.682,0.683S52.725,47.744,52.349,47.744z"/>
			</g>
		</g>
	</g>
	<g>
		<g>
			<path fill="#FFFFFF" d="M59.118,47.744h-4.18c-0.377,0-0.683-0.306-0.683-0.682s0.306-0.683,0.683-0.683h4.18
				c0.376,0,0.682,0.307,0.682,0.683S59.494,47.744,59.118,47.744z"/>
		</g>
	</g>
	<g>
		<g>
			<path fill="#FFFFFF" d="M59.118,47.744c-0.376,0-0.683-0.306-0.683-0.682v-4.528c0-0.376,0.307-0.683,0.683-0.683
				s0.682,0.307,0.682,0.683v4.528C59.8,47.438,59.494,47.744,59.118,47.744z"/>
		</g>
	</g>
	<g>
		<path fill="#FFFFFF" d="M19.854,14.867c-0.505-3.274-0.869-6.299,0.189-7.357c0.412-0.413,1.242-0.623,2.467-0.623
			c1.312,0,2.884,0.241,4.271,0.454c1.259,0.194,2.393,0.368,3.23,0.368c1.55,0,3.756-0.329,6.093-0.678
			c2.196-0.328,4.458-0.667,5.91-0.667c1.479,0,3.78,0.339,6.007,0.665c2.272,0.334,4.621,0.68,6.202,0.68
			c0.867,0,2.042-0.18,3.287-0.372c1.44-0.221,3.071-0.473,4.438-0.473c1.268,0,2.128,0.218,2.556,0.646
			c0.941,0.941,0.627,3.558,0.156,6.625c-0.115,0.744-0.22,1.45-0.287,2.086c0.457,0.149,0.896,0.336,1.318,0.552
			c0.049-0.677,0.177-1.528,0.315-2.427c0.454-2.951,0.97-6.293-0.539-7.8C64.766,5.842,63.614,5.5,61.948,5.5
			c-1.466,0-3.152,0.26-4.64,0.489c-1.224,0.187-2.332,0.356-3.085,0.356c-1.478,0-3.778-0.337-6.005-0.665
			C45.946,5.346,43.597,5,42.015,5c-1.548,0-3.757,0.329-6.093,0.679c-2.196,0.329-4.458,0.666-5.91,0.666
			c-0.737,0-1.827-0.167-2.982-0.345c-1.453-0.224-3.093-0.476-4.519-0.476c-1.622,0-2.745,0.334-3.432,1.022
			c-1.635,1.634-1.072,5.294-0.575,8.523c0.112,0.725,0.215,1.414,0.286,2.031c0.413-0.25,0.843-0.473,1.293-0.657
			C20.018,15.94,19.938,15.413,19.854,14.867z"/>
	</g>
	<g>
		<path fill="#FFFFFF" d="M64.769,43.087c0.512,3.331,1.148,7.47-0.265,8.883c-0.471,0.473-1.41,0.711-2.789,0.711
			c-1.47,0-3.227-0.271-4.778-0.509c-1.359-0.209-2.615-0.401-3.539-0.401c-1.499,0-3.606,0.461-5.838,0.946
			c-2.062,0.452-4.194,0.919-5.545,0.919c-1.265,0-3.271-0.464-5.211-0.912c-2.129-0.492-4.123-0.953-5.552-0.953
			c-0.944,0-2.217,0.196-3.563,0.404c-1.569,0.242-3.344,0.515-4.827,0.515c-1.392,0-2.339-0.243-2.817-0.719
			c-0.952-0.952-0.618-3.71-0.159-6.696c0.185-1.198,0.358-2.329,0.358-3.168c0-0.168-0.006-0.352-0.01-0.535h-1.365
			c0.006,0.185,0.011,0.368,0.011,0.535c0,0.731-0.166,1.813-0.341,2.957c-0.46,2.979-0.979,6.352,0.541,7.871
			c0.753,0.753,1.989,1.119,3.782,1.119c1.585,0,3.412-0.281,5.023-0.528c1.313-0.203,2.536-0.391,3.367-0.391
			c1.269,0,3.28,0.465,5.228,0.915c2.113,0.487,4.11,0.95,5.535,0.95c1.493,0,3.598-0.46,5.824-0.946
			c2.086-0.455,4.213-0.919,5.559-0.919c0.824,0,2.037,0.186,3.322,0.384c1.601,0.247,3.413,0.526,4.995,0.526
			c1.779,0,3.006-0.363,3.753-1.11c1.903-1.902,1.236-6.232,0.648-10.052c-0.069-0.45-0.135-0.886-0.195-1.312h-1.377
			C64.613,42.062,64.688,42.566,64.769,43.087z"/>
	</g>
	<g>
		<g>
			<path fill="#FFFFFF" d="M68.458,39.813H57.362c-0.345,0-0.625-0.28-0.625-0.625s0.28-0.625,0.625-0.625h11.096
				c0.6,0,1.088-0.488,1.088-1.089v-2.86c0-0.182,0-0.732-1.381-1.129l-2.384-0.668c-0.332-0.093-0.526-0.438-0.433-0.771
				c0.093-0.331,0.437-0.526,0.771-0.433l2.388,0.669c1.893,0.543,2.289,1.567,2.289,2.331v2.86
				C70.796,38.764,69.747,39.813,68.458,39.813z"/>
		</g>
		<g>
			<path fill="#FFFFFF" d="M53.315,32.468"/>
		</g>
		<g>
			<path fill="#FFFFFF" d="M60.075,31.717c-3.434,0-6.228-2.794-6.228-6.229c0-3.433,2.794-6.227,6.228-6.227
				s6.228,2.793,6.228,6.227C66.303,28.922,63.509,31.717,60.075,31.717z M60.075,20.511c-2.744,0-4.978,2.232-4.978,4.977
				c0,2.746,2.233,4.979,4.978,4.979s4.978-2.233,4.978-4.979C65.053,22.744,62.819,20.511,60.075,20.511z"/>
		</g>
		<g>
			<path fill="#FFFFFF" d="M26.841,39.813H16.334c-1.289,0-2.338-1.049-2.338-2.339v-2.86c0-1.105,0.768-1.889,2.281-2.329
				l2.508-0.695c0.335-0.096,0.677,0.104,0.77,0.436c0.092,0.333-0.103,0.677-0.436,0.77l-2.5,0.693
				c-1.373,0.398-1.373,0.927-1.373,1.126v2.86c0,0.601,0.488,1.089,1.088,1.089h10.507c0.345,0,0.625,0.28,0.625,0.625
				S27.186,39.813,26.841,39.813z"/>
		</g>
		<g>
			<path fill="#FFFFFF" d="M24.717,31.717c-3.434,0-6.228-2.794-6.228-6.229c0-3.433,2.794-6.227,6.228-6.227
				s6.228,2.793,6.228,6.227C30.944,28.922,28.15,31.717,24.717,31.717z M24.717,20.511c-2.744,0-4.978,2.232-4.978,4.977
				c0,2.746,2.233,4.979,4.978,4.979s4.978-2.233,4.978-4.979C29.694,22.744,27.461,20.511,24.717,20.511z"/>
		</g>
		<g>
			<path fill="#FFFFFF" d="M52.845,42.456H31.887c-1.525,0-2.767-1.241-2.767-2.768v-3.575c0-1.306,0.922-2.234,2.739-2.762
				l3.134-0.868c0.335-0.095,0.677,0.104,0.77,0.436c0.092,0.333-0.104,0.677-0.436,0.77L32.2,34.555
				c-1.83,0.53-1.83,1.277-1.83,1.559v3.575c0,0.837,0.681,1.518,1.517,1.518h20.958c0.836,0,1.517-0.681,1.517-1.518v-3.575
				c0-0.256,0-1.034-1.841-1.563l-2.979-0.835c-0.332-0.093-0.526-0.438-0.433-0.771c0.093-0.331,0.435-0.525,0.771-0.433
				l2.982,0.836c2.272,0.652,2.749,1.863,2.749,2.765v3.575C55.611,41.215,54.37,42.456,52.845,42.456z"/>
		</g>
		<g>
			<path fill="#FFFFFF" d="M42.366,32.334c-4.207,0-7.629-3.422-7.629-7.627c0-4.207,3.422-7.628,7.629-7.628
				s7.629,3.422,7.629,7.628C49.995,28.912,46.573,32.334,42.366,32.334z M42.366,18.328c-3.518,0-6.379,2.861-6.379,6.378
				c0,3.517,2.861,6.377,6.379,6.377s6.379-2.861,6.379-6.377C48.745,21.189,45.884,18.328,42.366,18.328z"/>
		</g>
	</g>
	<g>
		<path fill="#FFFFFF" d="M24.717,16.188c-0.345,0-0.625-0.28-0.625-0.625v-3.258c0-0.345,0.28-0.625,0.625-0.625h34.18
			c0.345,0,0.625,0.28,0.625,0.625s-0.28,0.625-0.625,0.625H25.342v2.633C25.342,15.909,25.062,16.188,24.717,16.188z"/>
	</g>
	<g>
		<path fill="#FFFFFF" d="M58.896,15.964c-0.345,0-0.625-0.28-0.625-0.625v-2.858c0-0.345,0.28-0.625,0.625-0.625
			s0.625,0.28,0.625,0.625v2.858C59.521,15.685,59.241,15.964,58.896,15.964z"/>
	</g>
</g>
</svg>
