<?xml version="1.0" encoding="utf-8"?>
<!-- Generator: Adobe Illustrator 16.0.0, SVG Export Plug-In . SVG Version: 6.00 Build 0)  -->
<!DOCTYPE svg PUBLIC "-//W3C//DTD SVG 1.1//EN" "http://www.w3.org/Graphics/SVG/1.1/DTD/svg11.dtd">
<svg version="1.1" id="Layer_1" xmlns="http://www.w3.org/2000/svg" xmlns:xlink="http://www.w3.org/1999/xlink" x="0px" y="0px"
	 width="85.04px" height="60px" viewBox="0 0 85.04 60" enable-background="new 0 0 85.04 60" xml:space="preserve">
<g>
	<g>
		<path fill="#FFFFFF" d="M64.807,31.228h-6.456c-0.4,0-0.725-0.324-0.725-0.725s0.324-0.725,0.725-0.725h5.226l-5.858-10.582
			c-0.122-0.22-0.121-0.487,0.001-0.706l5.604-9.993H39.076c-0.4,0-0.725-0.325-0.725-0.725s0.324-0.725,0.725-0.725h25.485
			c0.258,0,0.495,0.137,0.626,0.359c0.13,0.222,0.132,0.497,0.007,0.721l-6.013,10.72l6.259,11.305
			c0.125,0.225,0.121,0.498-0.009,0.719C65.301,31.092,65.063,31.228,64.807,31.228z"/>
	</g>
	<g>
		<path fill="#FFFFFF" d="M32.116,54.689c-0.4,0-0.725-0.324-0.725-0.725V6.062c0-0.4,0.324-0.725,0.725-0.725
			s0.725,0.325,0.725,0.725v0.986h3.015c0.4,0,0.725,0.325,0.725,0.725s-0.324,0.725-0.725,0.725h-3.015v21.28h16.296
			c0.4,0,0.725,0.325,0.725,0.725s-0.324,0.725-0.725,0.725H32.841v22.737C32.841,54.365,32.517,54.689,32.116,54.689z"/>
	</g>
	<g>
		<path fill="#FFFFFF" d="M55.712,31.228H53.9c-0.4,0-0.725-0.324-0.725-0.725s0.324-0.725,0.725-0.725h1.812
			c0.4,0,0.725,0.325,0.725,0.725S56.112,31.228,55.712,31.228z"/>
	</g>
	<g>
		<path fill="#FFFFFF" d="M61.037,14.153h-9.625c-0.4,0-0.725-0.325-0.725-0.725s0.324-0.725,0.725-0.725h9.625
			c0.4,0,0.725,0.325,0.725,0.725S61.438,14.153,61.037,14.153z"/>
	</g>
	<g>
		<path fill="#FFFFFF" d="M47.795,14.153H32.463c-0.4,0-0.725-0.325-0.725-0.725s0.324-0.725,0.725-0.725h15.332
			c0.4,0,0.725,0.325,0.725,0.725S48.195,14.153,47.795,14.153z"/>
	</g>
	<g>
		<path fill="#FFFFFF" d="M58.352,19.854H32.463c-0.4,0-0.725-0.325-0.725-0.725s0.324-0.725,0.725-0.725h25.889
			c0.4,0,0.725,0.325,0.725,0.725S58.752,19.854,58.352,19.854z"/>
	</g>
	<g>
		<path fill="#FFFFFF" d="M61.665,25.554H32.463c-0.4,0-0.725-0.325-0.725-0.725s0.324-0.725,0.725-0.725h29.202
			c0.4,0,0.725,0.325,0.725,0.725S62.065,25.554,61.665,25.554z"/>
	</g>
	<g>
		<path fill="#FFFFFF" d="M28.352,54.673c-0.4,0-0.725-0.324-0.725-0.725V38.905c0-0.4,0.324-0.725,0.725-0.725
			s0.725,0.324,0.725,0.725v15.043C29.076,54.349,28.752,54.673,28.352,54.673z"/>
	</g>
	<g>
		<path fill="#FFFFFF" d="M28.352,34.964c-0.4,0-0.725-0.324-0.725-0.725V6.242c-0.008-0.1-0.056-1.368,0.77-2.243
			c0.469-0.497,1.128-0.759,1.907-0.759c1.919,0,2.499,1.827,2.537,2.793c0.016,0.4-0.296,0.737-0.696,0.753
			c-0.42,0.004-0.735-0.294-0.753-0.692l0,0C31.385,5.95,31.293,4.69,30.304,4.69c-0.381,0-0.659,0.1-0.853,0.304
			C29.049,5.42,29.075,6.192,29.075,6.2l0.001,28.039C29.076,34.64,28.752,34.964,28.352,34.964z"/>
	</g>
</g>
</svg>
