<?xml version="1.0" encoding="utf-8"?>
<!-- Generator: Adobe Illustrator 16.0.0, SVG Export Plug-In . SVG Version: 6.00 Build 0)  -->
<!DOCTYPE svg PUBLIC "-//W3C//DTD SVG 1.1//EN" "http://www.w3.org/Graphics/SVG/1.1/DTD/svg11.dtd">
<svg version="1.1" id="Layer_1" xmlns="http://www.w3.org/2000/svg" xmlns:xlink="http://www.w3.org/1999/xlink" x="0px" y="0px"
	 width="85.04px" height="60px" viewBox="0 0 85.04 60" enable-background="new 0 0 85.04 60" xml:space="preserve">
<g>
	<g>
		<path fill="#FFFFFF" d="M33.13,22.892H17.599c-0.4,0-0.725-0.325-0.725-0.725V6.5c0-0.4,0.324-0.725,0.725-0.725H33.13
			c0.4,0,0.725,0.325,0.725,0.725v15.667C33.854,22.567,33.53,22.892,33.13,22.892z M18.323,21.441h14.082V7.225H18.323V21.441z"/>
	</g>
	<g>
		<path fill="#FFFFFF" d="M48.661,22.892H33.13c-0.4,0-0.725-0.325-0.725-0.725V6.5c0-0.4,0.324-0.725,0.725-0.725h15.531
			c0.4,0,0.725,0.325,0.725,0.725v15.667C49.386,22.567,49.062,22.892,48.661,22.892z M33.854,21.441h14.082V7.225H33.854V21.441z"
			/>
	</g>
	<g>
		<path fill="#FFFFFF" d="M48.661,22.892c-0.4,0-0.725-0.325-0.725-0.725V6.5c0-0.4,0.324-0.725,0.725-0.725h15.53
			c0.4,0,0.725,0.325,0.725,0.725v6.818c0,0.4-0.324,0.725-0.725,0.725s-0.725-0.325-0.725-0.725V7.225H49.386v14.941
			C49.386,22.567,49.062,22.892,48.661,22.892z"/>
	</g>
	<g>
		<path fill="#FFFFFF" d="M33.13,38.558H17.599c-0.4,0-0.725-0.324-0.725-0.725V22.167c0-0.4,0.324-0.725,0.725-0.725H33.13
			c0.4,0,0.725,0.325,0.725,0.725v15.667C33.854,38.233,33.53,38.558,33.13,38.558z M18.323,37.108h14.082V22.892H18.323V37.108z"/>
	</g>
	<g>
		<path fill="#FFFFFF" d="M33.13,54.225H17.599c-0.4,0-0.725-0.324-0.725-0.725V37.833c0-0.4,0.324-0.725,0.725-0.725H33.13
			c0.4,0,0.725,0.324,0.725,0.725V53.5C33.854,53.9,33.53,54.225,33.13,54.225z M18.323,52.775h14.082V38.558H18.323V52.775z"/>
	</g>
	<g>
		<path fill="#FFFFFF" d="M48.661,54.225H33.13c-0.4,0-0.725-0.324-0.725-0.725V37.833c0-0.4,0.324-0.725,0.725-0.725h15.531
			c0.4,0,0.725,0.324,0.725,0.725V53.5C49.386,53.9,49.062,54.225,48.661,54.225z M33.854,52.775h14.082V38.558H33.854V52.775z"/>
	</g>
	<g>
		<path fill="#FFFFFF" d="M64.191,54.225h-15.53c-0.4,0-0.725-0.324-0.725-0.725V37.833c0-0.4,0.324-0.725,0.725-0.725
			s0.725,0.324,0.725,0.725v14.942h14.081v-8.108c0-0.4,0.324-0.725,0.725-0.725s0.725,0.324,0.725,0.725V53.5
			C64.916,53.9,64.592,54.225,64.191,54.225z"/>
	</g>
	<path fill="#FFFFFF" d="M47.937,37.108H33.854V22.892h14.082v0.255c0.334-0.551,0.713-1.072,1.132-1.563
		c-0.117-0.083-0.253-0.142-0.407-0.142H33.13c-0.4,0-0.725,0.325-0.725,0.725v15.667c0,0.4,0.324,0.725,0.725,0.725h15.531
		c0.4,0,0.725-0.324,0.725-0.725v-0.505c-0.543-0.583-1.029-1.221-1.449-1.911V37.108z"/>
	<path fill="#FFFFFF" d="M69.629,26.752c-0.672-3.091-2.509-5.736-5.17-7.446c-2.661-1.71-5.828-2.281-8.922-1.609
		c-2.624,0.571-4.847,1.985-6.469,3.886c-0.419,0.491-0.798,1.012-1.132,1.563c-1.517,2.504-2.125,5.563-1.455,8.643
		c0.287,1.319,0.79,2.535,1.455,3.628c0.42,0.69,0.906,1.328,1.449,1.911c2.207,2.366,5.336,3.789,8.669,3.789
		c0.831,0,1.675-0.089,2.52-0.272c0.391-0.085,0.64-0.471,0.554-0.862c-0.085-0.392-0.479-0.64-0.862-0.554
		c-4.31,0.938-8.581-0.966-10.88-4.441c-0.662-1.001-1.162-2.13-1.449-3.363c-0.012-0.049-0.028-0.095-0.039-0.144
		c-0.336-1.546-0.297-3.085,0.039-4.534c0.281-1.214,0.771-2.363,1.449-3.392c1.443-2.188,3.703-3.841,6.46-4.44
		c2.712-0.591,5.494-0.09,7.829,1.412c2.336,1.501,3.947,3.822,4.538,6.535c0.085,0.393,0.48,0.64,0.862,0.554
		C69.466,27.53,69.715,27.144,69.629,26.752z"/>
	<g>
		<path fill="#FFFFFF" d="M58.055,37.407c-4.485,0-8.135-3.649-8.135-8.136c0-4.486,3.649-8.136,8.135-8.136
			c4.487,0,8.137,3.65,8.137,8.136c0,0.4-0.324,0.725-0.725,0.725s-0.725-0.325-0.725-0.725c0-3.687-3-6.686-6.688-6.686
			c-3.687,0-6.686,3-6.686,6.686c0,3.687,2.999,6.687,6.686,6.687c0.4,0,0.725,0.324,0.725,0.725S58.455,37.407,58.055,37.407z"/>
	</g>
	<g>
		<g>
			<path fill="#FFFFFF" d="M64.312,39.505c-0.241,0-0.467-0.12-0.602-0.32l-1.549-2.307c-0.224-0.333-0.135-0.783,0.197-1.006
				c0.334-0.225,0.784-0.134,1.006,0.197l0.935,1.391l0.817-1.271c0.215-0.336,0.662-0.435,1.002-0.217
				c0.336,0.216,0.434,0.665,0.217,1.002l-1.414,2.199c-0.132,0.205-0.358,0.33-0.603,0.332
				C64.316,39.505,64.313,39.505,64.312,39.505z"/>
		</g>
		<g>
			<path fill="#FFFFFF" d="M71.44,38.312c-0.134,0-0.27-0.037-0.391-0.114l-4.504-2.895c-0.337-0.217-0.435-0.665-0.219-1.002
				l2.305-3.587l-9.96-1.636l3.249,4.841c0.224,0.333,0.135,0.783-0.197,1.006c-0.333,0.227-0.783,0.136-1.006-0.197l-4.184-6.232
				c-0.161-0.24-0.165-0.553-0.009-0.796s0.443-0.372,0.728-0.323l12.703,2.086c0.241,0.04,0.446,0.198,0.545,0.421
				c0.1,0.223,0.08,0.481-0.052,0.687l-2.51,3.905l3.894,2.502c0.337,0.217,0.435,0.665,0.219,1.002
				C71.913,38.194,71.68,38.312,71.44,38.312z"/>
		</g>
	</g>
</g>
</svg>
