<?xml version="1.0" encoding="utf-8"?>
<!-- Generator: Adobe Illustrator 16.0.0, SVG Export Plug-In . SVG Version: 6.00 Build 0)  -->
<!DOCTYPE svg PUBLIC "-//W3C//DTD SVG 1.1//EN" "http://www.w3.org/Graphics/SVG/1.1/DTD/svg11.dtd">
<svg version="1.1" id="Layer_1" xmlns="http://www.w3.org/2000/svg" xmlns:xlink="http://www.w3.org/1999/xlink" x="0px" y="0px"
	 width="85.04px" height="60px" viewBox="0 0 85.04 60" enable-background="new 0 0 85.04 60" xml:space="preserve">
<g>
	<g>
		<g>
			<g>
				<path fill="#FFFFFF" d="M49.754,48.938c-0.119,0-0.239-0.041-0.337-0.121c-0.225-0.186-0.255-0.518-0.069-0.744
					c1.238-1.494,1.922-3.402,1.922-5.373v-7.805l0.203-0.158c3.24-2.512,5.098-6.292,5.098-10.37c0-7.24-5.891-13.13-13.13-13.13
					c-7.243,0-13.134,5.891-13.134,13.13c0,0.292-0.237,0.527-0.528,0.527c-0.29,0-0.526-0.236-0.526-0.527
					c0-7.821,6.364-14.184,14.188-14.184c7.82,0,14.184,6.363,14.184,14.184c0,4.319-1.928,8.329-5.301,11.042v7.291
					c0,2.215-0.769,4.363-2.164,6.047C50.054,48.871,49.905,48.938,49.754,48.938z"/>
			</g>
			<g>
				<path fill="#FFFFFF" d="M43.44,51.967c-4.899,0-8.884-4.158-8.884-9.268V35.41c-0.821-0.66-1.565-1.408-2.214-2.221
					c-0.328-0.412-0.632-0.84-0.905-1.272c-0.154-0.247-0.08-0.571,0.166-0.728c0.248-0.156,0.572-0.08,0.728,0.167
					c0.251,0.397,0.532,0.793,0.835,1.175c0.651,0.814,1.404,1.559,2.24,2.205l0.204,0.16v7.803c0,4.529,3.512,8.213,7.83,8.213
					c1.234,0,2.467-0.313,3.566-0.908c0.259-0.137,0.575-0.039,0.714,0.215c0.139,0.256,0.043,0.576-0.213,0.713
					C46.255,51.609,44.849,51.967,43.44,51.967z"/>
			</g>
			<g>
				<path fill="#FFFFFF" d="M30.464,29.164c-0.222,0-0.428-0.141-0.501-0.363c-0.114-0.348-0.218-0.704-0.304-1.063
					c-0.068-0.283,0.106-0.568,0.388-0.636c0.284-0.069,0.568,0.106,0.637,0.389c0.079,0.332,0.177,0.66,0.28,0.982
					c0.092,0.277-0.06,0.575-0.336,0.666C30.574,29.156,30.519,29.164,30.464,29.164z"/>
			</g>
			<g>
				<path fill="#FFFFFF" d="M47.879,27.329c-0.252,0-0.475-0.182-0.519-0.439c-0.136-0.796,0.212-1.862,0.789-2.425l2.573-2.511
					c0.025-0.024,0.045-0.045,0.061-0.064c-0.023-0.006-0.051-0.012-0.084-0.017l-3.562-0.518c-0.803-0.117-1.708-0.777-2.063-1.502
					l-1.593-3.223c-0.015-0.031-0.03-0.056-0.042-0.077c-0.014,0.021-0.028,0.045-0.044,0.076l-1.592,3.226
					c-0.355,0.724-1.262,1.384-2.063,1.5c-0.284,0.041-0.556-0.158-0.597-0.446c-0.043-0.288,0.156-0.556,0.445-0.598
					c0.46-0.066,1.064-0.507,1.271-0.922l1.591-3.226c0.455-0.922,1.521-0.923,1.977,0l1.594,3.224
					c0.203,0.417,0.809,0.857,1.268,0.924l3.562,0.518c0.507,0.074,0.87,0.334,0.993,0.715c0.124,0.381-0.016,0.806-0.385,1.165
					l-2.574,2.511c-0.331,0.324-0.563,1.036-0.485,1.494c0.049,0.287-0.145,0.559-0.431,0.607
					C47.938,27.326,47.909,27.329,47.879,27.329z"/>
			</g>
			<g>
				<path fill="#FFFFFF" d="M38.804,31.602c-0.207,0-0.398-0.059-0.559-0.176c-0.324-0.236-0.461-0.662-0.375-1.167l0.61-3.546
					c0.077-0.457-0.154-1.169-0.486-1.492l-2.574-2.512c-0.368-0.356-0.51-0.78-0.386-1.162c0.123-0.382,0.485-0.643,0.993-0.717
					l0.826-0.121c0.28-0.042,0.556,0.158,0.597,0.446c0.043,0.288-0.156,0.556-0.444,0.598l-0.827,0.121
					c-0.032,0.005-0.061,0.011-0.083,0.017c0.016,0.019,0.034,0.041,0.059,0.063l2.576,2.513c0.577,0.563,0.924,1.628,0.789,2.425
					l-0.61,3.548c-0.006,0.034-0.009,0.062-0.01,0.087c0.022-0.009,0.05-0.021,0.08-0.037l3.184-1.675
					c0.715-0.376,1.836-0.376,2.552,0l3.186,1.675c0.03,0.016,0.057,0.028,0.078,0.037c0-0.025-0.004-0.055-0.01-0.088l-0.157-0.914
					c-0.049-0.287,0.144-0.56,0.431-0.608c0.283-0.051,0.558,0.143,0.608,0.429l0.157,0.915c0.087,0.506-0.049,0.931-0.373,1.167
					c-0.323,0.236-0.77,0.234-1.224-0.006l-3.187-1.674c-0.411-0.218-1.161-0.216-1.572,0l-3.184,1.674
					C39.24,31.541,39.014,31.602,38.804,31.602z"/>
			</g>
			<g>
				
					<rect x="43.024" y="31.525" transform="matrix(0.2712 0.9625 -0.9625 0.2712 70.5521 -12.5327)" fill="#FFFFFF" width="1.055" height="17.592"/>
			</g>
			<g>
				
					<rect x="43.025" y="34.347" transform="matrix(0.2717 0.9624 -0.9624 0.2717 73.2407 -10.4914)" fill="#FFFFFF" width="1.053" height="17.592"/>
			</g>
			<g>
				
					<rect x="43.848" y="37.793" transform="matrix(0.2704 0.9627 -0.9627 0.2704 76.4043 -9.3535)" fill="#FFFFFF" width="1.051" height="15.883"/>
			</g>
		</g>
	</g>
	<path fill="#FFFFFF" d="M66.66,33.875h-2.018v-2.02c0-0.314-0.255-0.567-0.567-0.567c-0.313,0-0.567,0.253-0.567,0.567v2.02h-2.019
		c-0.313,0-0.567,0.252-0.567,0.566c0,0.313,0.254,0.568,0.567,0.568h2.019v2.018c0,0.313,0.254,0.568,0.567,0.568
		c0.313,0,0.567-0.256,0.567-0.568V35.01h2.018c0.313,0,0.567-0.256,0.567-0.568C67.228,34.127,66.973,33.875,66.66,33.875z"/>
	<path fill="#FFFFFF" d="M25.699,15.458h-2.018v-2.018c0-0.314-0.255-0.568-0.567-0.568c-0.313,0-0.567,0.254-0.567,0.568v2.018
		h-2.019c-0.313,0-0.567,0.254-0.567,0.568c0,0.312,0.254,0.567,0.567,0.567h2.019v2.019c0,0.312,0.254,0.567,0.567,0.567
		c0.313,0,0.567-0.255,0.567-0.567v-2.019h2.018c0.313,0,0.567-0.255,0.567-0.567C26.267,15.711,26.012,15.458,25.699,15.458z"/>
	<path fill="#FFFFFF" d="M57.381,9.795h-1.374V8.42c0-0.214-0.173-0.387-0.387-0.387c-0.213,0-0.387,0.173-0.387,0.387v1.375h-1.375
		c-0.213,0-0.387,0.173-0.387,0.387c0,0.213,0.174,0.387,0.387,0.387h1.375v1.375c0,0.213,0.174,0.387,0.387,0.387
		c0.214,0,0.387-0.174,0.387-0.387v-1.375h1.374c0.214,0,0.387-0.174,0.387-0.387C57.768,9.968,57.595,9.795,57.381,9.795z"/>
	<path fill="#FFFFFF" d="M21.722,22.306h-1.375v-1.375c0-0.213-0.173-0.387-0.386-0.387s-0.387,0.173-0.387,0.387v1.375h-1.375
		c-0.213,0-0.387,0.173-0.387,0.387c0,0.213,0.174,0.387,0.387,0.387h1.375v1.375c0,0.213,0.174,0.387,0.387,0.387
		s0.386-0.174,0.386-0.387v-1.375h1.375c0.214,0,0.387-0.174,0.387-0.387C22.108,22.479,21.936,22.306,21.722,22.306z"/>
	<path fill="#FFFFFF" d="M62.683,28.777h-1.375v-1.375c0-0.213-0.173-0.387-0.386-0.387s-0.387,0.173-0.387,0.387v1.375H59.16
		c-0.213,0-0.387,0.173-0.387,0.387c0,0.213,0.174,0.387,0.387,0.387h1.375v1.375c0,0.213,0.174,0.387,0.387,0.387
		s0.386-0.174,0.386-0.387V29.55h1.375c0.214,0,0.387-0.174,0.387-0.387C63.069,28.95,62.896,28.777,62.683,28.777z"/>
</g>
</svg>
