<?xml version="1.0" encoding="utf-8"?>
<!-- Generator: Adobe Illustrator 16.0.0, SVG Export Plug-In . SVG Version: 6.00 Build 0)  -->
<!DOCTYPE svg PUBLIC "-//W3C//DTD SVG 1.1//EN" "http://www.w3.org/Graphics/SVG/1.1/DTD/svg11.dtd">
<svg version="1.1" id="Layer_1" xmlns="http://www.w3.org/2000/svg" xmlns:xlink="http://www.w3.org/1999/xlink" x="0px" y="0px"
	 width="85.04px" height="60px" viewBox="0 0 85.04 60" enable-background="new 0 0 85.04 60" xml:space="preserve">
<g>
	<path fill="#FFFFFF" d="M53.553,46.062l0.098-0.101l15.345-15.343c0.082-0.08,0.164-0.159,0.238-0.246
		c0.21-0.24,0.22-0.554,0.024-0.78c-0.106-0.122-0.255-0.189-0.423-0.189c-0.136,0-0.27,0.045-0.385,0.131
		c-0.079,0.06-0.149,0.134-0.221,0.208l-0.074,0.076c-7.068,7.067-8.284,8.283-15.35,15.354c-0.138,0.138-0.28,0.28-0.358,0.43
		c-0.139,0.267-0.088,0.498,0.152,0.688c0.241,0.19,0.476,0.189,0.716-0.003C53.401,46.22,53.477,46.14,53.553,46.062z"/>
	<path fill="#FFFFFF" d="M53.674,50.747c3.969-3.949,4.482-4.463,6.839-6.82l2.798-2.798l3.156-3.156
		c2.895-2.895,5.789-5.788,8.681-8.685c1.49-1.492,1.707-3.377,0.595-5.171c-0.039-0.065-0.06-0.129-0.075-0.182l-0.837-0.837
		l-0.045-0.021c-0.082-0.037-0.163-0.074-0.241-0.12c-0.649-0.387-1.382-0.591-2.117-0.591c-1.052,0-2.045,0.413-2.797,1.163
		c-9.186,9.177-12.568,12.563-21.691,21.695l-0.127,0.126c-0.126,0.126-0.217,0.262-0.257,0.383
		c-0.379,1.125-0.752,2.249-1.126,3.373c-0.391,1.18-0.783,2.361-1.18,3.54c-0.135,0.4-0.109,0.624,0.094,0.826
		c0.117,0.116,0.239,0.168,0.395,0.168c0.117,0,0.257-0.029,0.439-0.091c0.843-0.287,1.687-0.568,2.532-0.849
		c1.316-0.438,2.634-0.878,3.946-1.334C53.041,51.232,53.413,51.007,53.674,50.747z M48.46,51.559l-1.302,0.431l-0.518,0.172
		l0.172-0.517l0.486-1.458l0.945-2.84l0.14-0.418l0.312,0.312l0.46,0.465c0.315,0.32,0.611,0.62,0.919,0.908
		c0.147,0.139,0.329,0.215,0.51,0.215c0.208,0,0.463-0.111,0.499-0.429c0.02-0.171-0.089-0.455-0.235-0.623
		c-0.371-0.42-0.769-0.809-1.19-1.221c-0.164-0.162-0.33-0.324-0.497-0.49l-0.192-0.193l0.192-0.192l9.733-9.734l9.764-9.763
		l0.193-0.193l0.192,0.193l0.465,0.465c0.396,0.396,0.784,0.785,1.173,1.172c0.218,0.215,0.424,0.33,0.595,0.33
		c0.125,0,0.244-0.059,0.366-0.181c0.101-0.102,0.41-0.413-0.144-0.972c-0.392-0.396-0.786-0.789-1.179-1.181l-0.432-0.431
		l-0.159-0.16l0.128-0.187c0.655-0.958,1.602-1.508,2.595-1.508c0.561,0,1.12,0.178,1.619,0.512
		c0.637,0.428,1.064,1.134,1.172,1.935c0.109,0.799-0.116,1.59-0.614,2.171c-0.122,0.141-0.254,0.274-0.386,0.406l-0.043,0.042
		l-3.39,3.39c-6.58,6.582-9.99,9.991-17.77,17.757c-0.259,0.259-0.614,0.479-0.973,0.604C50.882,50.76,49.689,51.153,48.46,51.559z"
		/>
	<path fill="#FFFFFF" d="M65.614,52.973H50.688c-0.345,0-0.625,0.28-0.625,0.625s0.28,0.625,0.625,0.625h14.927
		c0.345,0,0.625-0.28,0.625-0.625S65.959,52.973,65.614,52.973z"/>
	<path fill="#FFFFFF" d="M70.924,52.973h-3.178c-0.345,0-0.625,0.28-0.625,0.625s0.28,0.625,0.625,0.625h3.178
		c0.345,0,0.625-0.28,0.625-0.625S71.269,52.973,70.924,52.973z"/>
	<path fill="#FFFFFF" d="M80.334,50.169H60.007c-0.345,0-0.625,0.28-0.625,0.625s0.28,0.625,0.625,0.625h20.327
		c0.345,0,0.625-0.28,0.625-0.625S80.679,50.169,80.334,50.169z"/>
	<path fill="#FFFFFF" d="M55.958,33.403V12.306c0-0.377-0.306-0.682-0.683-0.682H20.698c-0.376,0-0.682,0.305-0.682,0.682v21.117
		c0,0.377,0.306,0.683,0.682,0.683c0.377,0,0.683-0.306,0.683-0.683V12.988h33.213v21.804L55.958,33.403z"/>
	<path fill="#FFFFFF" d="M21.381,39.285v-1.001l8.179-8.372l9.226,9.129l0.181,0.178c0.268,0.264,0.699,0.264,0.964-0.005
		c0.266-0.268,0.263-0.699-0.005-0.965l-0.171-0.169l-0.515-0.509l3.859-3.823l5.798,6.84l0.959-0.976l-6.193-7.308
		c-0.122-0.146-0.301-0.232-0.49-0.24c-0.191-0.021-0.375,0.062-0.51,0.196l-4.392,4.352l-8.24-8.153
		c-0.128-0.126-0.301-0.197-0.479-0.197c-0.002,0-0.004,0-0.006,0c-0.182,0.002-0.355,0.076-0.482,0.206l-8.852,9.061
		c-0.125,0.127-0.194,0.299-0.194,0.477v9.057c0,0.35,0.268,0.628,0.607,0.667c0.025,0.004,0.048,0.016,0.074,0.016h23.696
		l0.375-1.364H21.381V39.285z"/>
	<path fill="#FFFFFF" d="M32.961,52.724c-2.129-0.492-4.122-0.952-5.55-0.952c-0.945,0-2.218,0.195-3.565,0.403
		c-1.567,0.242-3.343,0.515-4.827,0.515c-1.392,0-2.34-0.243-2.817-0.718c-0.952-0.953-0.618-3.711-0.159-6.697
		c0.185-1.198,0.359-2.329,0.359-3.168c0-1.74-0.292-4.355-0.573-6.885c-0.28-2.522-0.568-5.105-0.568-6.775
		c0-1.214,0.286-3.118,0.563-4.959c0.298-1.993,0.579-3.864,0.579-5.182c0-0.905-0.189-2.136-0.39-3.439
		c-0.506-3.274-0.87-6.299,0.189-7.357c0.412-0.413,1.243-0.622,2.469-0.622c1.31,0,2.881,0.241,4.269,0.454
		c1.259,0.194,2.394,0.368,3.23,0.368c1.549,0,3.757-0.33,6.093-0.678c2.196-0.329,4.458-0.667,5.911-0.667
		c1.479,0,3.78,0.338,6.006,0.665c2.272,0.334,4.621,0.68,6.203,0.68c0.866,0,2.042-0.181,3.287-0.373
		c1.44-0.222,3.071-0.473,4.438-0.473c1.267,0,2.127,0.217,2.556,0.646c0.94,0.941,0.627,3.557,0.155,6.625
		c-0.184,1.188-0.355,2.308-0.355,3.138c0,1.515,0.408,3.656,0.84,5.922c0.269,1.411,0.541,2.849,0.693,4.064l1.203-1.225
		c-0.153-0.969-0.352-2.015-0.556-3.095c-0.402-2.105-0.816-4.282-0.816-5.667c0-0.723,0.164-1.793,0.339-2.927
		c0.454-2.951,0.97-6.293-0.54-7.801C60.923,5.842,59.772,5.5,58.106,5.5c-1.467,0-3.152,0.26-4.641,0.489
		c-1.224,0.187-2.332,0.356-3.084,0.356c-1.479,0-3.779-0.338-6.006-0.665C42.104,5.346,39.754,5,38.173,5
		c-1.55,0-3.757,0.329-6.094,0.678c-2.196,0.328-4.457,0.667-5.91,0.667c-0.737,0-1.827-0.168-2.98-0.346
		c-1.455-0.224-3.093-0.476-4.519-0.476c-1.625,0-2.747,0.334-3.434,1.021c-1.634,1.634-1.07,5.295-0.574,8.524
		c0.193,1.253,0.375,2.435,0.375,3.237c0,1.215-0.285,3.122-0.563,4.965c-0.298,1.985-0.579,3.857-0.579,5.176
		c0,1.742,0.291,4.361,0.573,6.89c0.281,2.52,0.568,5.102,0.568,6.77c0,0.731-0.166,1.813-0.343,2.957
		c-0.458,2.979-0.979,6.352,0.542,7.871c0.753,0.753,1.99,1.119,3.782,1.119c1.584,0,3.411-0.281,5.022-0.528
		c1.314-0.202,2.538-0.391,3.37-0.391c1.266,0,3.28,0.465,5.226,0.915c2.115,0.488,4.111,0.95,5.536,0.95
		c1.169,0,2.717-0.284,4.4-0.641l0.408-1.481c-1.821,0.396-3.619,0.758-4.809,0.758C36.908,53.636,34.901,53.173,32.961,52.724z"/>
	<path fill="#FFFFFF" d="M40.477,22.437c0,2.24,1.822,4.062,4.062,4.062c2.24,0,4.063-1.822,4.063-4.062s-1.822-4.062-4.063-4.062
		C42.299,18.375,40.477,20.197,40.477,22.437z M47.351,22.437c0,1.551-1.262,2.812-2.813,2.812c-1.55,0-2.812-1.261-2.812-2.812
		s1.262-2.812,2.812-2.812C46.089,19.625,47.351,20.886,47.351,22.437z"/>
</g>
</svg>
