<?xml version="1.0" encoding="utf-8"?>
<!-- Generator: Adobe Illustrator 16.0.0, SVG Export Plug-In . SVG Version: 6.00 Build 0)  -->
<!DOCTYPE svg PUBLIC "-//W3C//DTD SVG 1.1//EN" "http://www.w3.org/Graphics/SVG/1.1/DTD/svg11.dtd">
<svg version="1.1" id="Layer_1" xmlns="http://www.w3.org/2000/svg" xmlns:xlink="http://www.w3.org/1999/xlink" x="0px" y="0px"
	 width="85.04px" height="60px" viewBox="0 0 85.04 60" enable-background="new 0 0 85.04 60" xml:space="preserve">
<g>
	<g>
		<g>
			<g>
				<path fill="#FFFFFF" d="M27.767,54.875h29.497c0.033-0.026,0.074-0.059,0.132-0.072c2.154-0.553,3.295-2.023,3.298-4.254
					l0.002-14.472c0.002-0.122,0.004-0.238-0.017-0.345c-0.069-0.366-0.294-0.575-0.649-0.603c-0.024-0.002-0.048-0.003-0.07-0.003
					c-0.3,0-0.523,0.165-0.63,0.467c-0.048,0.136-0.047,0.304-0.046,0.466v0.07c-0.003,2.753-0.003,5.507-0.003,8.26
					c-0.001,2.063-0.001,4.128-0.002,6.191c0,1.803-1.08,2.879-2.889,2.879h-27.73c-1.855,0-2.92-1.073-2.92-2.945V38.781
					c0.001-2.028,0.001-4.058,0-6.086c-0.003-0.673-0.233-0.902-0.914-0.907h-0.723v-3.544h36.803v3.543H60.11
					c-10.51,0-21.022,0-31.535,0.003c-0.575,0-0.919,0.265-0.922,0.707c-0.001,0.186,0.063,0.348,0.182,0.468
					c0.152,0.153,0.396,0.237,0.687,0.237h12.913c6.435,0,12.872,0,19.306-0.002c0.971,0,1.604-0.64,1.613-1.629
					c0.003-0.336-0.002-0.671-0.007-1.007c-0.01-0.6-0.02-1.221,0.021-1.831c0.038-0.578-0.111-1.063-0.431-1.405
					c-0.337-0.36-0.858-0.55-1.506-0.55C54.797,26.793,48.997,26.8,42.691,26.8c-6.018,0-12.037-0.007-18.056-0.018
					c-1.049,0-1.638,0.356-1.969,1.19v4.052c0.333,0.78,0.809,1.146,1.541,1.186l0.118,0.007v17.189c0,2.403,1.033,3.765,3.35,4.413
					C27.716,54.832,27.744,54.854,27.767,54.875z"/>
			</g>
		</g>
		<g>
			<g>
				<path fill="#FFFFFF" d="M25.392,5.125c-0.876,0-1.065,0.187-1.065,1.052l-0.001,17.557c-0.002,0.149-0.004,0.299,0.006,0.446
					c0.029,0.403,0.25,0.65,0.604,0.677c0.594,0.045,1.229,0.043,1.881-0.004c0.386-0.027,0.6-0.392,0.582-0.729
					c-0.021-0.373-0.285-0.629-0.676-0.652c-0.179-0.012-0.36-0.009-0.548-0.005c-0.09,0.001-0.182,0.003-0.275,0.003h-0.125v-1.92
					l2.552,0.002c0.518,0,1.035-0.001,1.552-0.006c0.291-0.002,0.521-0.082,0.667-0.229c0.121-0.124,0.182-0.291,0.179-0.498
					c-0.007-0.437-0.302-0.681-0.829-0.686c-0.411-0.003-0.821-0.004-1.232-0.004l-2.886,0.001v-1.923h0.125
					c0.093,0,0.181,0.001,0.266,0.002c0.173,0.003,0.333,0.005,0.491-0.004c0.457-0.03,0.734-0.29,0.74-0.694
					c0.007-0.423-0.276-0.692-0.758-0.72c-0.172-0.011-0.34-0.008-0.509-0.005c-0.079,0.001-0.158,0.002-0.237,0.002H25.77v-1.872
					l0.104-0.018c0.163-0.026,0.341-0.028,0.513-0.03c0.602-0.005,0.972-0.041,0.986-0.674c0.016-0.688-0.369-0.732-0.999-0.747
					c-0.165-0.004-0.336-0.008-0.49-0.035l-0.104-0.018v-1.864l2.516,0.001c0.551,0,1.1,0,1.647-0.003
					c0.488-0.003,0.772-0.252,0.781-0.682c0.005-0.201-0.058-0.374-0.179-0.5c-0.141-0.146-0.353-0.225-0.613-0.229
					c-0.378-0.005-0.756-0.007-1.134-0.007l-3.023,0.003V6.561H35.97v0.81c0,5.467,0,10.934,0.002,16.401
					c0,0.18,0,0.404,0.051,0.595c0.095,0.347,0.349,0.526,0.712,0.5c0.359-0.028,0.584-0.241,0.634-0.6
					c0.016-0.099,0.015-0.2,0.014-0.307v-0.066c0.002-5.922,0.002-11.845,0-17.767c0-0.814-0.188-1.001-1.008-1.002H25.392z"/>
			</g>
		</g>
		<g>
			<g>
				<path fill="#FFFFFF" d="M44.188,5.126c-0.244,0-0.479,0.141-0.644,0.386c-0.601,0.9-1.236,1.872-1.818,2.878
					c-0.771,1.328-1.721,3.105-2.215,5.091c-0.485,1.948-0.094,3.568,1.198,4.954c0.169,0.179,0.247,0.474,0.249,0.686
					c0.01,0.926,0.009,1.853,0.009,2.779c0,0.717,0,1.434,0.004,2.15c0.003,0.501,0.28,0.826,0.706,0.826l0.002,0.125v-0.125
					c0.422,0,0.696-0.324,0.699-0.825c0.009-1.733,0.02-3.698-0.015-5.61c-0.004-0.24-0.148-0.555-0.321-0.703
					c-1.14-0.977-1.543-2.229-1.197-3.723c0.558-2.406,1.791-4.432,3.096-6.576l0.196-0.322l0.111,0.146
					c1.061,1.388,2.598,4.407,3.046,5.982c0.154,0.541,0.327,1.251,0.302,1.95c-0.055,1.523-1.029,2.705-2.604,3.163
					c-0.554,0.16-0.78,0.459-0.674,0.89c0.108,0.447,0.48,0.612,1.049,0.475c0.075-0.018,0.151-0.041,0.225-0.064
					c2.605-0.801,3.965-3.404,3.233-6.191c-0.736-2.789-2.156-5.218-4.063-8.008C44.616,5.244,44.412,5.126,44.188,5.126z"/>
			</g>
		</g>
		<g>
			<g>
				<path fill="#FFFFFF" d="M55.821,5.143c-0.259,0-0.523,0.193-0.744,0.543l-0.754,1.208c-1.015,1.624-2.063,3.303-3.077,4.965
					c-0.166,0.274-0.27,0.631-0.27,0.931c-0.017,3.285-0.015,6.623-0.013,9.851l0.001,1.311c-0.001,0.1-0.002,0.2,0.009,0.297
					c0.044,0.363,0.258,0.577,0.621,0.617c0.352,0.036,0.614-0.131,0.725-0.482c0.052-0.166,0.056-0.357,0.056-0.538
					c0.002-2.751,0.002-5.502,0.002-8.251c0.001-0.282-0.015-0.574-0.029-0.857c-0.036-0.685-0.072-1.394,0.11-2.041
					c0.179-0.632,0.58-1.2,0.969-1.75c0.162-0.229,0.33-0.467,0.477-0.703c0.416-0.669,0.835-1.337,1.268-2.028l0.653-1.042
					l2.876,4.61l-1.974,0c-0.493,0-0.977,0-1.46,0.002c-0.646,0.001-0.964,0.23-0.973,0.7c-0.003,0.21,0.05,0.368,0.163,0.483
					c0.15,0.153,0.412,0.231,0.776,0.231l1.778,0l0.897,0c0.605,0,1.212,0,1.817,0.003h0.033c0.399,0,0.663-0.057,0.831-0.349
					c0.202-0.344,0.053-0.638-0.147-0.959c-0.853-1.358-1.702-2.72-2.552-4.081L56.565,5.69C56.346,5.337,56.081,5.143,55.821,5.143
					z"/>
			</g>
		</g>
		<g>
			<g>
				<path fill="#FFFFFF" d="M59.985,15.124c-0.435,0.001-0.702,0.335-0.702,0.871c-0.004,0.97-0.003,1.939-0.002,2.908l-0.001,2.278
					c-0.001,0.952-0.002,1.904,0.003,2.856c0,0.5,0.269,0.83,0.683,0.841l0.021,0.125v-0.125c0.421,0,0.703-0.342,0.703-0.85
					c0.005-2.681,0.005-5.361,0-8.042C60.69,15.454,60.42,15.124,59.985,15.124z"/>
			</g>
		</g>
		<g>
			<g>
				<path fill="#FFFFFF" d="M55.84,15.125c-0.464,0-0.729,0.335-0.731,0.896c-0.004,2.647-0.002,5.295,0,7.941
					c0.003,0.573,0.27,0.916,0.713,0.916v0.125l0.003-0.125c0.44-0.001,0.694-0.337,0.697-0.921
					c0.003-0.986,0.003-1.973,0.002-2.959v-1.988c0.001-0.998,0.001-1.998-0.002-2.995C56.519,15.46,56.271,15.136,55.84,15.125
					C55.84,15.125,55.84,15.125,55.84,15.125z"/>
			</g>
		</g>
		<g>
			<g>
				<path fill="#FFFFFF" d="M54.993,35.12c-0.424,0.003-0.697,0.329-0.701,0.83c-0.003,0.716-0.002,1.433-0.001,2.148l0.001,1.073
					l-0.001,1.073c-0.001,0.716-0.002,1.433,0.001,2.148c0.004,0.499,0.27,0.809,0.692,0.809v0.125l0.012-0.125
					c0.436-0.004,0.706-0.319,0.706-0.824c0.007-2.146,0.007-4.296,0-6.442C55.699,35.456,55.408,35.12,54.993,35.12z"/>
			</g>
		</g>
		<g>
			<g>
				<path fill="#FFFFFF" d="M46.673,20.956c-0.418,0-0.69,0.302-0.699,0.77c-0.013,0.711-0.013,1.489,0,2.378
					c0.006,0.463,0.284,0.773,0.693,0.773v0.125l0.003-0.125c0.403-0.001,0.688-0.312,0.709-0.774
					c0.012-0.262,0.008-0.529,0.005-0.789c-0.001-0.125-0.003-0.249-0.003-0.373c0-0.13,0.002-0.26,0.003-0.39
					c0.003-0.27,0.007-0.548-0.005-0.821C47.358,21.261,47.081,20.957,46.673,20.956z"/>
			</g>
		</g>
		<g>
			<g>
				<path fill="#FFFFFF" d="M54.291,46.75l-0.001,0.127c-0.002,0.206-0.004,0.413,0.007,0.619c0.019,0.405,0.293,0.697,0.668,0.712
					l0.029,0.001c0.313,0,0.664-0.232,0.687-0.606c0.041-0.647,0.041-1.281,0-1.885c-0.026-0.382-0.366-0.581-0.688-0.581
					l-0.039,0.001c-0.376,0.016-0.633,0.276-0.655,0.664c-0.013,0.189-0.01,0.385-0.008,0.573c0.002,0.083,0.003,0.167,0.003,0.25
					L54.291,46.75z"/>
			</g>
		</g>
	</g>
</g>
</svg>
