<?xml version="1.0" encoding="utf-8"?>
<!-- Generator: Adobe Illustrator 16.0.0, SVG Export Plug-In . SVG Version: 6.00 Build 0)  -->
<!DOCTYPE svg PUBLIC "-//W3C//DTD SVG 1.1//EN" "http://www.w3.org/Graphics/SVG/1.1/DTD/svg11.dtd">
<svg version="1.1" id="Layer_1" xmlns="http://www.w3.org/2000/svg" xmlns:xlink="http://www.w3.org/1999/xlink" x="0px" y="0px"
	 width="85.04px" height="85.039px" viewBox="0 0 85.04 85.039" enable-background="new 0 0 85.04 85.039" xml:space="preserve">
<rect x="24.53" y="23.049" fill="#EAEAEA" width="32.486" height="34.269"/>
<path fill="#F05672" d="M39.789,34.2c-0.477-0.275-0.866-0.05-0.866,0.5v11.15c0,0.549,0.39,0.775,0.866,0.499l9.656-5.574
	c0.477-0.275,0.477-0.725,0-0.999L39.789,34.2z"/>
<g>
	<g>
		<path fill="#1A0C3E" d="M31.241,65.654c1.268,0,3.28,0.465,5.227,0.915c2.114,0.487,4.111,0.95,5.536,0.95
			c1.493,0,3.597-0.46,5.824-0.946c2.085-0.455,4.213-0.919,5.558-0.919c0.825,0,2.038,0.186,3.323,0.384
			c1.601,0.247,3.412,0.526,4.995,0.526c1.778,0,3.005-0.363,3.752-1.11c1.903-1.902,1.236-6.232,0.649-10.052
			c-0.231-1.499-0.449-2.913-0.449-3.88c0-1.193,0.414-3.09,0.813-4.923c0.434-1.994,0.844-3.875,0.844-5.218
			c0-1.515-0.409-3.655-0.84-5.922c-0.401-2.105-0.816-4.281-0.816-5.667c0-0.723,0.164-1.792,0.339-2.927
			c0.454-2.951,0.97-6.293-0.539-7.8c-0.702-0.704-1.854-1.045-3.519-1.045c-1.467,0-3.152,0.26-4.641,0.489
			c-1.224,0.187-2.332,0.356-3.084,0.356c-1.479,0-3.779-0.337-6.006-0.665c-2.271-0.334-4.622-0.68-6.203-0.68
			c-1.549,0-3.757,0.329-6.093,0.679c-2.196,0.329-4.458,0.666-5.911,0.666c-0.737,0-1.826-0.167-2.981-0.345
			c-1.454-0.224-3.093-0.476-4.519-0.476c-1.622,0-2.746,0.334-3.432,1.022c-1.635,1.634-1.072,5.294-0.576,8.523
			c0.194,1.253,0.375,2.436,0.375,3.237c0,1.216-0.285,3.122-0.562,4.965c-0.297,1.985-0.578,3.857-0.578,5.175
			c0,1.742,0.292,4.361,0.573,6.891c0.279,2.52,0.566,5.102,0.566,6.77c0,0.731-0.166,1.813-0.341,2.957
			c-0.459,2.979-0.979,6.352,0.542,7.871c0.752,0.753,1.988,1.119,3.782,1.119c1.584,0,3.411-0.281,5.022-0.528
			C29.188,65.842,30.409,65.654,31.241,65.654z M42.004,66.155c-1.266,0-3.271-0.464-5.212-0.912
			c-2.128-0.492-4.123-0.953-5.551-0.953c-0.944,0-2.217,0.196-3.564,0.404c-1.568,0.242-3.343,0.515-4.826,0.515
			c-1.393,0-2.34-0.243-2.818-0.719c-0.951-0.952-0.618-3.71-0.158-6.696c0.184-1.198,0.357-2.329,0.357-3.168
			c0-1.74-0.289-4.355-0.571-6.885c-0.281-2.522-0.568-5.105-0.568-6.775c0-1.214,0.285-3.117,0.562-4.959
			c0.299-1.993,0.578-3.863,0.578-5.182c0-0.905-0.188-2.136-0.389-3.439c-0.504-3.274-0.868-6.299,0.189-7.357
			c0.413-0.413,1.243-0.623,2.468-0.623c1.311,0,2.884,0.241,4.271,0.454c1.258,0.194,2.393,0.368,3.229,0.368
			c1.55,0,3.756-0.329,6.093-0.678c2.197-0.328,4.458-0.667,5.911-0.667c1.478,0,3.78,0.339,6.006,0.665
			c2.272,0.334,4.621,0.68,6.203,0.68c0.866,0,2.042-0.18,3.286-0.372c1.441-0.221,3.072-0.473,4.438-0.473
			c1.267,0,2.127,0.218,2.556,0.646c0.94,0.941,0.626,3.558,0.155,6.625c-0.184,1.188-0.356,2.309-0.356,3.138
			c0,1.516,0.408,3.657,0.84,5.922c0.401,2.104,0.816,4.282,0.816,5.667c0,1.196-0.413,3.09-0.813,4.924
			c-0.434,1.993-0.844,3.875-0.844,5.217c0,1.074,0.227,2.537,0.465,4.084c0.512,3.331,1.149,7.47-0.264,8.883
			c-0.472,0.473-1.41,0.711-2.789,0.711c-1.47,0-3.228-0.271-4.779-0.509c-1.358-0.209-2.615-0.401-3.539-0.401
			c-1.498,0-3.606,0.461-5.837,0.946C45.486,65.688,43.354,66.155,42.004,66.155z"/>
	</g>
	<g>
		<path fill="#1A0C3E" d="M59.106,24.143H24.53c-0.377,0-0.683,0.305-0.683,0.682v21.117c0,0.377,0.306,0.683,0.683,0.683
			c0.376,0,0.682-0.306,0.682-0.683V25.507h33.213V53.04c0,0.377,0.306,0.683,0.682,0.683s0.683-0.306,0.683-0.683V24.825
			C59.789,24.448,59.482,24.143,59.106,24.143z"/>
		<path fill="#1A0C3E" d="M52.337,58.899H25.212v-8.374c0-0.376-0.306-0.682-0.682-0.682c-0.377,0-0.683,0.306-0.683,0.682v9.057
			c0,0.376,0.306,0.682,0.683,0.682h27.807c0.376,0,0.683-0.306,0.683-0.682S52.713,58.899,52.337,58.899z"/>
		<path fill="#1A0C3E" d="M59.106,54.371c-0.376,0-0.682,0.307-0.682,0.683v3.846h-3.498c-0.376,0-0.682,0.307-0.682,0.683
			s0.306,0.682,0.682,0.682h4.18c0.376,0,0.683-0.306,0.683-0.682v-4.528C59.789,54.678,59.482,54.371,59.106,54.371z"/>
	</g>
</g>
<g>
	<path fill="#1A0C3E" d="M37.618,49.054c-0.101,0-0.2-0.025-0.291-0.078c-0.18-0.104-0.291-0.295-0.291-0.504V34.208
		c0-0.208,0.111-0.4,0.291-0.504c0.179-0.103,0.4-0.104,0.582,0l12.354,7.132c0.181,0.104,0.291,0.296,0.291,0.504
		c0,0.208-0.11,0.4-0.291,0.504l-12.354,7.131C37.819,49.028,37.719,49.054,37.618,49.054z M38.2,35.215v12.249l10.608-6.124
		L38.2,35.215z"/>
</g>
<g>
	<path fill="#1A0C3E" d="M54.532,54.371H36.163v1.364h18.369c0.376,0,0.683-0.306,0.683-0.682S54.908,54.371,54.532,54.371z"/>
	<path fill="#1A0C3E" d="M30.509,54.371c-0.376,0-0.683,0.307-0.683,0.683s0.307,0.682,0.683,0.682h4.563v-1.364H30.509z"/>
	<g>
		<path fill="#09ADB1" d="M34.814,56.775c-0.376,0-0.683-0.306-0.683-0.682v-2.08c0-0.376,0.307-0.683,0.683-0.683
			s0.682,0.307,0.682,0.683v2.08C35.496,56.47,35.19,56.775,34.814,56.775z"/>
	</g>
</g>
</svg>
