<?xml version="1.0" encoding="utf-8"?>
<!-- Generator: Adobe Illustrator 16.0.0, SVG Export Plug-In . SVG Version: 6.00 Build 0)  -->
<!DOCTYPE svg PUBLIC "-//W3C//DTD SVG 1.1//EN" "http://www.w3.org/Graphics/SVG/1.1/DTD/svg11.dtd">
<svg version="1.1" id="Layer_1" xmlns="http://www.w3.org/2000/svg" xmlns:xlink="http://www.w3.org/1999/xlink" x="0px" y="0px"
	 width="85.04px" height="85.039px" viewBox="0 0 85.04 85.039" enable-background="new 0 0 85.04 85.039" xml:space="preserve">
<g>
	<g>
		<g>
			<path fill="#1A0C3E" d="M31.242,65.654c1.266,0,3.28,0.465,5.226,0.915c2.115,0.487,4.111,0.95,5.536,0.95
				c1.493,0,3.597-0.46,5.824-0.946c2.085-0.455,4.213-0.919,5.558-0.919c0.825,0,2.038,0.186,3.323,0.384
				c1.601,0.247,3.412,0.526,4.995,0.526c1.778,0,3.005-0.363,3.752-1.11c1.903-1.902,1.236-6.232,0.649-10.052
				c-0.231-1.499-0.449-2.913-0.449-3.88c0-1.193,0.414-3.09,0.813-4.923c0.434-1.994,0.844-3.875,0.844-5.218
				c0-1.515-0.409-3.655-0.84-5.922c-0.401-2.105-0.816-4.281-0.816-5.667c0-0.723,0.164-1.792,0.339-2.927
				c0.454-2.951,0.97-6.293-0.539-7.8c-0.702-0.704-1.854-1.045-3.519-1.045c-1.467,0-3.152,0.26-4.641,0.489
				c-1.224,0.187-2.332,0.356-3.084,0.356c-1.479,0-3.779-0.337-6.006-0.665c-2.271-0.334-4.622-0.68-6.203-0.68
				c-1.55,0-3.757,0.329-6.094,0.679c-2.195,0.329-4.457,0.666-5.91,0.666c-0.737,0-1.827-0.167-2.98-0.345
				c-1.455-0.224-3.093-0.476-4.519-0.476c-1.624,0-2.747,0.334-3.433,1.022c-1.634,1.634-1.071,5.294-0.575,8.523
				c0.193,1.253,0.376,2.436,0.376,3.237c0,1.216-0.286,3.122-0.563,4.965c-0.298,1.985-0.578,3.857-0.578,5.175
				c0,1.742,0.291,4.361,0.572,6.891c0.281,2.52,0.569,5.102,0.569,6.77c0,0.731-0.167,1.813-0.344,2.957
				c-0.458,2.979-0.979,6.352,0.543,7.871c0.752,0.753,1.989,1.119,3.782,1.119c1.583,0,3.41-0.281,5.021-0.528
				C29.188,65.842,30.41,65.654,31.242,65.654z M42.004,66.155c-1.265,0-3.271-0.464-5.212-0.912
				c-2.129-0.492-4.122-0.953-5.55-0.953c-0.945,0-2.218,0.196-3.565,0.404c-1.567,0.242-3.343,0.515-4.826,0.515
				c-1.393,0-2.341-0.243-2.818-0.719c-0.951-0.952-0.618-3.71-0.158-6.696c0.184-1.198,0.358-2.329,0.358-3.168
				c0-1.74-0.292-4.355-0.573-6.885c-0.28-2.522-0.567-5.105-0.567-6.775c0-1.214,0.285-3.117,0.562-4.959
				c0.298-1.993,0.579-3.863,0.579-5.182c0-0.905-0.189-2.136-0.39-3.439c-0.505-3.274-0.869-6.299,0.189-7.357
				c0.413-0.413,1.243-0.623,2.469-0.623c1.31,0,2.882,0.241,4.27,0.454c1.258,0.194,2.394,0.368,3.229,0.368
				c1.549,0,3.757-0.329,6.093-0.678c2.197-0.328,4.458-0.667,5.911-0.667c1.479,0,3.78,0.339,6.006,0.665
				c2.272,0.334,4.621,0.68,6.203,0.68c0.866,0,2.042-0.18,3.286-0.372c1.441-0.221,3.072-0.473,4.438-0.473
				c1.267,0,2.127,0.218,2.556,0.646c0.94,0.941,0.626,3.558,0.155,6.625c-0.184,1.188-0.356,2.309-0.356,3.138
				c0,1.516,0.408,3.657,0.84,5.922c0.401,2.104,0.816,4.282,0.816,5.667c0,1.196-0.413,3.09-0.813,4.924
				c-0.434,1.993-0.844,3.875-0.844,5.217c0,1.074,0.227,2.537,0.465,4.084c0.512,3.331,1.149,7.47-0.264,8.883
				c-0.472,0.473-1.41,0.711-2.789,0.711c-1.47,0-3.228-0.271-4.779-0.509c-1.358-0.209-2.615-0.401-3.539-0.401
				c-1.498,0-3.606,0.461-5.837,0.946C45.486,65.688,43.353,66.155,42.004,66.155z"/>
		</g>
	</g>
	<g>
		<polygon fill="#FEE251" points="34.301,49.372 46.978,28.031 59.651,49.372 		"/>
		<rect x="23.774" y="33.262" fill="#09ADB1" width="18.508" height="17.732"/>
		<circle fill="#F05672" cx="41.764" cy="49.989" r="9.401"/>
		<g>
			
				<polyline fill="none" stroke="#1A0C3E" stroke-width="1.25" stroke-linecap="round" stroke-linejoin="round" stroke-miterlimit="10" points="
				32.143,53.189 23.845,53.189 23.845,32.631 44.019,32.631 44.019,37.583 			"/>
			
				<polyline fill="none" stroke="#1A0C3E" stroke-width="1.25" stroke-linecap="round" stroke-linejoin="round" stroke-miterlimit="10" points="
				42.103,32.631 47.323,23.559 62.8,50.525 56.339,50.525 			"/>
			
				<circle fill="none" stroke="#1A0C3E" stroke-width="1.25" stroke-linecap="round" stroke-linejoin="round" stroke-miterlimit="10" cx="42.465" cy="51.616" r="10.323"/>
		</g>
		<g>
			
				<polyline fill="none" stroke="#FFFFFF" stroke-width="1.25" stroke-linecap="round" stroke-linejoin="round" stroke-miterlimit="10" points="
				26.404,39.867 26.404,35.355 29.806,35.355 			"/>
			
				<line fill="none" stroke="#FFFFFF" stroke-width="1.25" stroke-linecap="round" stroke-linejoin="round" stroke-miterlimit="10" x1="26.404" y1="41.852" x2="26.404" y2="42.286"/>
			
				<path fill="none" stroke="#FFFFFF" stroke-width="1.25" stroke-linecap="round" stroke-linejoin="round" stroke-miterlimit="10" d="
				M44.879,45.137c1.851,1.004,3.359,2.557,4.307,4.44"/>
		</g>
		<g>
			
				<polyline fill="none" stroke="#1A0C3E" stroke-width="1.25" stroke-linecap="round" stroke-linejoin="round" stroke-miterlimit="10" points="
				25.95,39.32 25.95,34.809 29.352,34.809 			"/>
			
				<line fill="none" stroke="#1A0C3E" stroke-width="1.25" stroke-linecap="round" stroke-linejoin="round" stroke-miterlimit="10" x1="25.95" y1="41.305" x2="25.95" y2="41.739"/>
			
				<path fill="none" stroke="#1A0C3E" stroke-width="1.25" stroke-linecap="round" stroke-linejoin="round" stroke-miterlimit="10" d="
				M45.594,44.483c1.851,1.004,3.359,2.557,4.307,4.44"/>
		</g>
	</g>
	<g>
		
			<polyline fill="none" stroke="#1A0C3E" stroke-width="1.25" stroke-linecap="round" stroke-linejoin="round" stroke-miterlimit="10" points="
			50.588,25.483 59.623,25.483 59.623,44.992 		"/>
		
			<polyline fill="none" stroke="#1A0C3E" stroke-width="1.25" stroke-linecap="round" stroke-linejoin="round" stroke-miterlimit="10" points="
			25.415,32.631 25.415,25.483 38.222,25.483 		"/>
		
			<polyline fill="none" stroke="#1A0C3E" stroke-width="1.25" stroke-linecap="round" stroke-linejoin="round" stroke-miterlimit="10" points="
			35.867,59.557 25.415,59.557 25.415,55.929 		"/>
		
			<polyline fill="none" stroke="#1A0C3E" stroke-width="1.25" stroke-linecap="round" stroke-linejoin="round" stroke-miterlimit="10" points="
			59.623,53.985 59.623,59.557 54.836,59.557 		"/>
		
			<line fill="none" stroke="#1A0C3E" stroke-width="1.25" stroke-linecap="round" stroke-linejoin="round" stroke-miterlimit="10" x1="52.527" y1="59.557" x2="51.59" y2="59.557"/>
		
			<line fill="none" stroke="#1A0C3E" stroke-width="1.25" stroke-linecap="round" stroke-linejoin="round" stroke-miterlimit="10" x1="40.345" y1="25.483" x2="41.299" y2="25.483"/>
	</g>
</g>
</svg>
