<?xml version="1.0" encoding="utf-8"?>
<!-- Generator: Adobe Illustrator 16.0.0, SVG Export Plug-In . SVG Version: 6.00 Build 0)  -->
<!DOCTYPE svg PUBLIC "-//W3C//DTD SVG 1.1//EN" "http://www.w3.org/Graphics/SVG/1.1/DTD/svg11.dtd">
<svg version="1.1" id="Layer_1" xmlns="http://www.w3.org/2000/svg" xmlns:xlink="http://www.w3.org/1999/xlink" x="0px" y="0px"
	 width="85.04px" height="85.039px" viewBox="0 0 85.04 85.039" enable-background="new 0 0 85.04 85.039" xml:space="preserve">
<g>
	<ellipse fill="#F05672" cx="48.794" cy="44.106" rx="3.333" ry="3.317"/>
	<ellipse fill="#FEE251" cx="49.767" cy="32.034" rx="4.65" ry="4.629"/>
	<ellipse fill="#09ADB1" cx="34.865" cy="28.982" rx="4.649" ry="4.629"/>
	<ellipse fill="#FEE251" cx="27.049" cy="38.637" rx="2.675" ry="2.661"/>
	<g>
		<path fill="#F05672" d="M58.13,54.507c-0.283,0.243-0.617,0.517-0.988,0.811l-3.926-3.808c0.278-0.354,0.543-0.683,0.78-0.96
			L58.13,54.507z"/>
		<path fill="#F05672" d="M52.476,52.467l3.704,3.593c-1.529,1.164-3.261,2.4-4.036,2.95l-2.569-2.57
			C50.115,55.675,51.327,53.98,52.476,52.467z"/>
		<path fill="#FEE251" d="M69.476,40.771c-0.581,0.768-7.323,9.658-10.474,12.904l-4.185-4.004
			c3.166-3.112,12.229-9.985,12.997-10.566c0.138-0.06,0.58-0.237,1.038-0.237c0.277,0,0.496,0.064,0.607,0.142l0.059,0.054
			C69.939,39.611,69.566,40.563,69.476,40.771z"/>
	</g>
	<path fill="#09ADB1" d="M48.528,57.819c0,0-2.678-0.258-4.131,1.61c-1.422,1.827-1.936,3.06-3.096,7.971
		c-0.026,0.109,0.789,0.219,1.995-0.042c2.01-0.436,4.961-1.272,6.403-2.654c1.711-1.637,1.63-4.122,1.63-4.122L48.528,57.819z"/>
	<path fill="#1A0C3E" d="M69.973,37.234l-0.178-0.173c-0.404-0.311-0.9-0.468-1.475-0.468c-0.866,0-1.617,0.362-1.699,0.404
		l-0.099,0.061c-0.449,0.339-11.034,8.332-14.2,11.61c-1.607,1.663-5.445,7.136-5.607,7.368l-0.125,0.178
		c-1.029,0.111-2.543,0.512-3.564,1.828c-1.551,1.991-2.073,3.35-3.291,8.55l-0.209,0.892l0.907-0.121
		c0.261-0.035,6.403-0.875,8.83-3.201c1.274-1.218,1.661-2.825,1.776-3.782l0.01-0.007c0.232-0.162,5.704-4,7.369-5.607
		c3.278-3.167,11.271-13.751,11.609-14.2l0.062-0.098C70.127,40.391,71.013,38.579,69.973,37.234z M57.05,54.298
		c-0.298,0.256-0.649,0.543-1.04,0.852l-4.127-4.002c0.294-0.372,0.571-0.717,0.821-1.01L57.05,54.298z M51.105,52.154L55,55.931
		c-1.607,1.223-3.429,2.523-4.243,3.101l-2.701-2.701C48.625,55.525,49.897,53.744,51.105,52.154z M48.389,63.249
		c-1.621,1.554-5.443,2.395-7.205,2.711c1.092-4.536,1.586-5.53,2.839-7.141c1.009-1.298,2.771-1.385,3.359-1.375l2.434,2.434
		C49.781,60.501,49.578,62.112,48.389,63.249z M68.977,39.859c-0.61,0.807-7.698,10.152-11.011,13.565l-4.397-4.21
		c3.328-3.271,12.854-10.496,13.662-11.106c0.145-0.063,0.61-0.25,1.09-0.25c0.293,0,0.522,0.067,0.64,0.148l0.063,0.057
		C69.465,38.64,69.071,39.64,68.977,39.859z"/>
	<g>
		<g>
			<path fill="#1A0C3E" d="M39.95,59.501c-0.441,0-4.379-0.035-6.829-1.23c-1.979-0.964-3.069-2.439-3.069-4.154
				c0-0.821,0.178-1.521,0.528-2.079c0.017-0.026,0.42-0.668,0.712-0.963c0.74-0.747,4.832-4.073,5.35-4.471
				c0.577-0.445,0.908-1.116,0.908-1.841c0-1.285-1.052-2.331-2.344-2.331c-0.727,0-1.387,0.391-2.075,1.23
				c-0.892,1.084-2.085,2.495-3.064,3.651c-0.813,0.961-1.582,1.869-1.721,2.055l-0.135,0.152c-0.844,0.868-1.962,1.34-3.161,1.34
				c-1.662,0-3.161-0.92-3.911-2.401c-0.081-0.128-2.576-4.261-2.576-10.076c0-11.504,9.359-20.863,20.862-20.863
				c11.505,0,20.864,9.359,20.864,20.863c0,0.349-0.283,0.632-0.632,0.632s-0.632-0.283-0.632-0.632
				c0-10.808-8.793-19.599-19.601-19.599c-10.806,0-19.598,8.791-19.598,19.599c0,5.443,2.39,9.422,2.414,9.461
				c0.559,1.098,1.625,1.752,2.809,1.752c0.854,0,1.651-0.336,2.243-0.944l0.08-0.089c0.113-0.156,0.702-0.853,1.729-2.065
				c0.976-1.152,2.165-2.558,3.051-3.638c0.936-1.139,1.935-1.692,3.054-1.692c1.989,0,3.608,1.613,3.608,3.596
				c0,1.119-0.511,2.155-1.401,2.842c-0.535,0.411-4.565,3.696-5.224,4.36c-0.118,0.119-0.374,0.48-0.537,0.743
				c-0.224,0.354-0.336,0.828-0.336,1.408c0,1.545,1.282,2.494,2.357,3.019c1.784,0.869,4.784,1.102,6.276,1.102
				c0.349,0,0.632,0.283,0.632,0.632S40.299,59.501,39.95,59.501z"/>
		</g>
		<g>
			<path fill="#1A0C3E" d="M47.399,48.549c-2.187,0-3.966-1.771-3.966-3.949c0-2.179,1.779-3.95,3.966-3.95s3.966,1.771,3.966,3.95
				C51.365,46.777,49.586,48.549,47.399,48.549z M47.399,41.914c-1.49,0-2.701,1.204-2.701,2.686c0,1.48,1.211,2.685,2.701,2.685
				c1.489,0,2.701-1.204,2.701-2.685C50.101,43.118,48.889,41.914,47.399,41.914z"/>
		</g>
		<g>
			<path fill="#1A0C3E" d="M47.821,37.981c-2.912,0-5.282-2.359-5.282-5.261s2.37-5.261,5.282-5.261s5.281,2.359,5.281,5.261
				S50.733,37.981,47.821,37.981z M47.821,28.724c-2.216,0-4.018,1.793-4.018,3.997c0,2.203,1.802,3.996,4.018,3.996
				s4.018-1.793,4.018-3.996C51.839,30.517,50.037,28.724,47.821,28.724z"/>
		</g>
		<g>
			<path fill="#1A0C3E" d="M32.918,34.93c-2.912,0-5.28-2.359-5.28-5.261c0-2.9,2.368-5.261,5.28-5.261s5.282,2.36,5.282,5.261
				C38.2,32.57,35.83,34.93,32.918,34.93z M32.918,25.673c-2.215,0-4.017,1.793-4.017,3.996c0,2.204,1.802,3.997,4.017,3.997
				c2.216,0,4.018-1.793,4.018-3.997C36.936,27.466,35.134,25.673,32.918,25.673z"/>
		</g>
		<g>
			<path fill="#1A0C3E" d="M25.103,42.616c-1.823,0-3.307-1.477-3.307-3.293s1.483-3.294,3.307-3.294s3.308,1.478,3.308,3.294
				S26.926,42.616,25.103,42.616z M25.103,37.294c-1.126,0-2.042,0.91-2.042,2.029c0,1.118,0.916,2.029,2.042,2.029
				s2.043-0.911,2.043-2.029C27.146,38.204,26.229,37.294,25.103,37.294z"/>
		</g>
	</g>
</g>
</svg>
