<?xml version="1.0" encoding="utf-8"?>
<!-- Generator: Adobe Illustrator 16.0.0, SVG Export Plug-In . SVG Version: 6.00 Build 0)  -->
<!DOCTYPE svg PUBLIC "-//W3C//DTD SVG 1.1//EN" "http://www.w3.org/Graphics/SVG/1.1/DTD/svg11.dtd">
<svg version="1.1" id="Layer_1" xmlns="http://www.w3.org/2000/svg" xmlns:xlink="http://www.w3.org/1999/xlink" x="0px" y="0px"
	 width="85.04px" height="85.039px" viewBox="0 0 85.04 85.039" enable-background="new 0 0 85.04 85.039" xml:space="preserve">
<g>
	<polygon fill="#09ADB1" points="24.296,52.579 33.148,43.518 41.932,52.081 46.468,47.588 58.873,61.635 24.296,61.635 	"/>
	<circle fill="#FEE251" cx="35.75" cy="35.353" r="3.437"/>
	<g>
		
			<polyline fill="none" stroke="#1A0C3E" stroke-width="1.25" stroke-linecap="round" stroke-linejoin="round" stroke-miterlimit="10" points="
			24.371,45.942 24.371,24.826 58.947,24.826 58.947,59.582 46.814,45.266 42.007,50.028 		"/>
		
			<polyline fill="none" stroke="#1A0C3E" stroke-width="1.25" stroke-linecap="round" stroke-linejoin="round" stroke-miterlimit="10" points="
			43.117,51.254 33.223,41.464 24.371,50.525 24.371,59.582 52.178,59.582 		"/>
		
			<circle fill="none" stroke="#1A0C3E" stroke-width="1.25" stroke-linecap="round" stroke-linejoin="round" stroke-miterlimit="10" cx="34.042" cy="34.956" r="3.437"/>
	</g>
	<g>
		<path fill="#1A0C3E" d="M31.083,65.654c1.266,0,3.28,0.465,5.227,0.915c2.114,0.488,4.11,0.95,5.535,0.95
			c1.493,0,3.597-0.46,5.824-0.946c2.086-0.455,4.213-0.919,5.558-0.919c0.825,0,2.038,0.186,3.323,0.384
			c1.601,0.247,3.412,0.526,4.995,0.526c1.778,0,3.006-0.363,3.753-1.11c1.903-1.902,1.236-6.232,0.648-10.052
			c-0.231-1.499-0.448-2.913-0.448-3.88c0-1.193,0.413-3.09,0.812-4.923c0.435-1.994,0.845-3.875,0.845-5.218
			c0-1.515-0.409-3.656-0.84-5.922c-0.402-2.105-0.816-4.282-0.816-5.667c0-0.723,0.164-1.793,0.339-2.927
			c0.454-2.951,0.97-6.293-0.539-7.801c-0.703-0.703-1.854-1.045-3.52-1.045c-1.467,0-3.152,0.26-4.641,0.489
			c-1.223,0.187-2.331,0.356-3.084,0.356c-1.479,0-3.779-0.338-6.005-0.665c-2.272-0.334-4.623-0.68-6.204-0.68
			c-1.55,0-3.757,0.329-6.094,0.678c-2.195,0.328-4.457,0.667-5.91,0.667c-0.737,0-1.827-0.168-2.98-0.346
			c-1.455-0.224-3.093-0.476-4.519-0.476c-1.624,0-2.747,0.334-3.433,1.021c-1.634,1.634-1.071,5.295-0.575,8.524
			c0.193,1.253,0.375,2.435,0.375,3.237c0,1.215-0.285,3.122-0.563,4.965c-0.298,1.985-0.578,3.857-0.578,5.176
			c0,1.742,0.291,4.361,0.572,6.89c0.281,2.52,0.568,5.102,0.568,6.77c0,0.731-0.166,1.813-0.343,2.957
			c-0.458,2.979-0.979,6.352,0.543,7.871c0.752,0.753,1.989,1.119,3.782,1.119c1.583,0,3.41-0.281,5.021-0.528
			C29.028,65.843,30.251,65.654,31.083,65.654z M41.845,66.155c-1.264,0-3.271-0.463-5.212-0.912
			c-2.129-0.492-4.122-0.952-5.55-0.952c-0.945,0-2.218,0.195-3.565,0.403c-1.567,0.242-3.343,0.515-4.826,0.515
			c-1.393,0-2.341-0.243-2.818-0.718c-0.951-0.953-0.618-3.711-0.158-6.697c0.184-1.198,0.358-2.329,0.358-3.168
			c0-1.74-0.292-4.355-0.573-6.885c-0.28-2.522-0.567-5.105-0.567-6.775c0-1.214,0.285-3.118,0.562-4.959
			c0.298-1.993,0.579-3.864,0.579-5.182c0-0.905-0.189-2.136-0.39-3.439c-0.505-3.274-0.87-6.299,0.189-7.357
			c0.413-0.413,1.243-0.622,2.469-0.622c1.31,0,2.882,0.241,4.27,0.454c1.258,0.194,2.394,0.368,3.229,0.368
			c1.549,0,3.757-0.33,6.093-0.678c2.197-0.329,4.458-0.667,5.911-0.667c1.479,0,3.78,0.338,6.007,0.665
			c2.271,0.334,4.621,0.68,6.202,0.68c0.866,0,2.042-0.181,3.287-0.373c1.44-0.222,3.071-0.473,4.438-0.473
			c1.268,0,2.127,0.217,2.556,0.646c0.941,0.941,0.627,3.557,0.155,6.625c-0.183,1.188-0.355,2.308-0.355,3.138
			c0,1.515,0.408,3.656,0.84,5.922c0.4,2.104,0.816,4.281,0.816,5.667c0,1.195-0.414,3.09-0.813,4.924
			c-0.434,1.993-0.843,3.876-0.843,5.217c0,1.075,0.226,2.537,0.465,4.084c0.512,3.331,1.148,7.471-0.265,8.884
			c-0.471,0.472-1.41,0.711-2.789,0.711c-1.47,0-3.227-0.271-4.778-0.51c-1.359-0.209-2.616-0.4-3.54-0.4
			c-1.498,0-3.606,0.46-5.837,0.946C45.327,65.688,43.194,66.155,41.845,66.155z"/>
	</g>
	<path fill="#FFFFFF" d="M72.84,48.791l-5.465-6.104c3.454-4.404,3.31-10.833-0.479-15.065c-1.934-2.159-4.586-3.519-7.469-3.832
		c-3.309-0.36-6.623,0.703-9.096,2.917c-2.309,2.066-3.687,4.906-3.881,7.992c-0.046,0.702,0.266,1.344,0.81,1.747
		c-0.069,0.085-0.131,0.176-0.187,0.272c-0.275,0.474-0.347,1.025-0.202,1.555l0.068,0.252c0.155,0.577,0.543,1.039,1.056,1.293
		c-0.211,0.569-0.169,1.226,0.175,1.782c0.362,0.589,0.781,1.151,1.245,1.668c1.93,2.156,4.579,3.516,7.459,3.829
		c2.632,0.286,5.244-0.312,7.463-1.69l5.464,6.104c0.336,0.376,0.797,0.612,1.298,0.667c0.574,0.063,1.15-0.124,1.577-0.507
		c0.407-0.363,0.647-0.863,0.679-1.407C73.386,49.719,73.202,49.195,72.84,48.791z"/>
	<g>
		<circle fill="#FEE251" cx="56.73" cy="35.177" r="9.577"/>
		<g>
			<g>
				<path fill="#FFFFFF" d="M59.477,34.708c0.154-0.141,0.264-0.334,0.296-0.56l0.771-5.327c0.076-0.505-0.275-0.977-0.784-1.049
					c-0.506-0.073-0.974,0.276-1.05,0.785l-0.77,5.327c-0.074,0.505,0.278,0.978,0.783,1.05
					C59.006,34.974,59.277,34.883,59.477,34.708z"/>
			</g>
		</g>
		<g>
			<g>
				<path fill="#FFFFFF" d="M62.528,36.695c0.155-0.141,0.265-0.334,0.297-0.56l0.771-5.327c0.074-0.506-0.277-0.977-0.784-1.05
					c-0.508-0.072-0.976,0.277-1.051,0.786l-0.77,5.327c-0.075,0.505,0.277,0.977,0.783,1.05
					C62.059,36.961,62.329,36.871,62.528,36.695z"/>
			</g>
		</g>
	</g>
	<g>
		<g>
			<g>
				<g>
					<path fill="#1A0C3E" d="M62.146,35.456c0.155-0.141,0.265-0.334,0.297-0.56l0.771-5.326c0.076-0.506-0.276-0.978-0.784-1.05
						c-0.507-0.072-0.975,0.277-1.05,0.785l-0.77,5.327c-0.074,0.506,0.278,0.978,0.782,1.051
						C61.677,35.722,61.948,35.632,62.146,35.456z"/>
				</g>
			</g>
			<g>
				<g>
					<path fill="#1A0C3E" d="M64.533,43.755l0.084,0.094l6.113,6.829c0.28,0.313,0.804,0.34,1.115,0.062
						c0.157-0.142,0.251-0.334,0.263-0.545c0.011-0.21-0.059-0.413-0.2-0.57l-6.195-6.923l0.086-0.091
						c3.684-3.926,3.756-10.144,0.165-14.156c-1.726-1.927-4.094-3.143-6.671-3.423c-2.957-0.321-5.919,0.628-8.128,2.605
						c-2.063,1.848-3.295,4.385-3.468,7.145c-0.028,0.422,0.279,0.789,0.7,0.834l0.038,0.003c0.211,0.014,0.413-0.056,0.572-0.195
						c0.157-0.14,0.252-0.333,0.265-0.544c0.151-2.346,1.197-4.5,2.947-6.065c1.752-1.569,4.018-2.369,6.377-2.251l0.149,0.007
						l-0.729,5.037c-0.063,0.432,0.237,0.833,0.669,0.895h0.001c0.251,0.027,0.474-0.044,0.64-0.193
						c0.138-0.123,0.229-0.292,0.256-0.477l0.725-5.015l0.148,0.039c1.677,0.445,3.175,1.362,4.331,2.654
						c1.582,1.768,2.383,4.051,2.252,6.427s-1.178,4.557-2.947,6.14c-1.875,1.68-4.391,2.485-6.901,2.213
						c-2.189-0.237-4.201-1.27-5.668-2.907c-0.36-0.404-0.677-0.831-0.943-1.267c-0.223-0.358-0.729-0.481-1.089-0.258
						c-0.371,0.229-0.487,0.717-0.258,1.088c0.324,0.526,0.7,1.028,1.113,1.491c1.724,1.925,4.091,3.14,6.664,3.42
						c2.658,0.289,5.296-0.431,7.425-2.026L64.533,43.755z M48.925,36.951c-0.098-0.011-0.195-0.003-0.292,0.023
						c-0.203,0.054-0.371,0.184-0.477,0.367c-0.107,0.184-0.136,0.399-0.08,0.604l0.069,0.255c0.109,0.405,0.556,0.667,0.97,0.555
						c0.118-0.032,0.226-0.09,0.319-0.174c0.224-0.2,0.315-0.505,0.238-0.795l-0.07-0.256
						C49.516,37.213,49.249,36.986,48.925,36.951z"/>
				</g>
			</g>
		</g>
	</g>
</g>
</svg>
