<?xml version="1.0" encoding="utf-8"?>
<!-- Generator: Adobe Illustrator 16.0.0, SVG Export Plug-In . SVG Version: 6.00 Build 0)  -->
<!DOCTYPE svg PUBLIC "-//W3C//DTD SVG 1.1//EN" "http://www.w3.org/Graphics/SVG/1.1/DTD/svg11.dtd">
<svg version="1.1" id="Layer_1" xmlns="http://www.w3.org/2000/svg" xmlns:xlink="http://www.w3.org/1999/xlink" x="0px" y="0px"
	 width="85.04px" height="85.039px" viewBox="0 0 85.04 85.039" enable-background="new 0 0 85.04 85.039" xml:space="preserve">
<g>
	<path fill="#FEE251" d="M37.694,43.54c-0.929,0.979-2.241,1.589-3.697,1.589c-2.813,0-5.097-2.282-5.097-5.097
		c0-2.814,2.283-5.097,5.097-5.097c1.454,0.001,2.767,0.61,3.694,1.586l0.002-2.26V22.337H18.618v34.756h19.075V46.131L37.694,43.54
		z"/>
	<path fill="#09ADB1" d="M65.723,27.127H50.221V39.05l-0.001,2.26c-0.927-0.976-2.24-1.585-3.694-1.586
		c-2.814,0-5.096,2.283-5.096,5.097s2.281,5.096,5.096,5.096c1.455,0,2.769-0.608,3.697-1.587l-0.002,2.591v10.962h15.502V27.127z"
		/>
	<g>
		<g>
			<path fill="#1A0C3E" d="M64.745,46.434c-0.377,0-0.682,0.307-0.682,0.683v0.767c0,0.375,0.305,0.682,0.682,0.682
				s0.682-0.307,0.682-0.682v-0.767C65.427,46.74,65.122,46.434,64.745,46.434z"/>
			<path fill="#1A0C3E" d="M71.295,51.548c0-1.194,0.414-3.09,0.813-4.924c0.434-1.994,0.844-3.875,0.844-5.217
				c0-1.516-0.409-3.656-0.839-5.922c-0.402-2.105-0.817-4.282-0.817-5.668c0-0.723,0.165-1.793,0.34-2.926
				c0.453-2.951,0.969-6.293-0.54-7.801c-0.702-0.703-1.853-1.044-3.52-1.044c-1.466,0-3.151,0.259-4.64,0.488
				c-1.223,0.188-2.332,0.357-3.084,0.357c-1.478,0-3.779-0.339-6.006-0.665c-1.595-0.234-3.223-0.472-4.602-0.595v0.054
				c-0.033-0.005-0.062-0.019-0.096-0.019c-0.376,0-0.683,0.305-0.683,0.682l-0.002,20.662c-0.971-1.022-2.282-1.585-3.694-1.585
				c-2.81,0-5.097,2.286-5.097,5.096c0,2.811,2.287,5.098,5.097,5.098c1.412,0,2.725-0.565,3.697-1.589l-0.001,20.695
				c0,0.376,0.307,0.683,0.683,0.683c0.034,0,0.063-0.015,0.096-0.02v0.021c1.251-0.169,2.699-0.478,4.223-0.81
				c2.086-0.456,4.213-0.92,5.558-0.92c0.825,0,2.037,0.187,3.323,0.384c1.601,0.248,3.412,0.526,4.995,0.526
				c1.778,0,3.005-0.363,3.752-1.109c1.903-1.903,1.236-6.232,0.649-10.052C71.513,53.929,71.295,52.515,71.295,51.548z
				 M70.396,55.632c0.511,3.329,1.148,7.469-0.265,8.883c-0.472,0.472-1.41,0.71-2.789,0.71c-1.47,0-3.227-0.27-4.778-0.509
				c-1.359-0.208-2.616-0.401-3.54-0.401c-1.499,0-3.606,0.461-5.837,0.947c-1.15,0.252-2.313,0.502-3.357,0.679v-5.652h9.697
				c0.376,0,0.683-0.306,0.683-0.682s-0.307-0.683-0.683-0.683H49.83l0.001-12.896c0-0.563-0.336-1.059-0.86-1.268
				c-0.521-0.206-1.107-0.078-1.493,0.328c-0.713,0.75-1.675,1.164-2.708,1.164c-2.059,0-3.732-1.675-3.732-3.733
				c0-2.058,1.674-3.732,3.732-3.732c1.033,0,1.994,0.413,2.707,1.163c0.386,0.404,0.972,0.531,1.494,0.326
				c0.52-0.208,0.856-0.704,0.857-1.267l0.002-13.476h14.233V44.67c0,0.377,0.305,0.683,0.682,0.683s0.682-0.306,0.682-0.683V24.851
				c0-0.377-0.305-0.683-0.682-0.683H49.83v-5.106c1.181,0.128,2.506,0.319,3.818,0.512c2.272,0.333,4.621,0.68,6.203,0.68
				c0.867,0,2.042-0.181,3.287-0.374c1.44-0.221,3.07-0.472,4.437-0.472c1.269,0,2.128,0.216,2.557,0.645
				c0.94,0.942,0.626,3.557,0.155,6.625c-0.184,1.188-0.356,2.309-0.356,3.139c0,1.514,0.408,3.656,0.84,5.923
				c0.401,2.104,0.817,4.281,0.817,5.667c0,1.195-0.414,3.09-0.813,4.924c-0.435,1.993-0.844,3.875-0.844,5.217
				C69.931,52.622,70.157,54.084,70.396,55.632z"/>
			<path fill="#1A0C3E" d="M64.745,49.868c-0.377,0-0.682,0.306-0.682,0.682v8.374h-2.302c-0.378,0-0.682,0.307-0.682,0.683
				s0.304,0.682,0.682,0.682h2.983c0.377,0,0.682-0.306,0.682-0.682V50.55C65.427,50.174,65.122,49.868,64.745,49.868z"/>
		</g>
		<path fill="#1A0C3E" d="M38.221,45.369c-0.257-0.102-0.556-0.038-0.747,0.164c-0.843,0.888-1.98,1.376-3.203,1.376
			c-2.434,0-4.415-1.98-4.415-4.414c0-2.434,1.981-4.416,4.415-4.416c1.223,0.001,2.358,0.488,3.2,1.374
			c0.191,0.202,0.488,0.265,0.747,0.164c0.26-0.103,0.429-0.354,0.431-0.633l0.001-20.627c0-0.376-0.306-0.682-0.682-0.682v-0.07
			c-0.587-0.053-1.132-0.085-1.604-0.085c-1.548,0-3.755,0.33-6.093,0.679c-2.196,0.329-4.457,0.667-5.909,0.667
			c-0.737,0-1.827-0.167-2.981-0.346c-1.453-0.224-3.094-0.476-4.52-0.476c-1.622,0-2.744,0.334-3.431,1.022
			c-1.636,1.634-1.072,5.294-0.576,8.524c0.194,1.253,0.375,2.435,0.375,3.236c0,1.216-0.285,3.122-0.563,4.965
			c-0.298,1.985-0.577,3.857-0.577,5.175c0,1.742,0.29,4.36,0.572,6.891c0.28,2.519,0.567,5.102,0.567,6.77
			c0,0.731-0.166,1.813-0.342,2.957c-0.46,2.979-0.978,6.352,0.543,7.871c0.752,0.752,1.988,1.119,3.781,1.119
			c1.584,0,3.41-0.281,5.022-0.528c1.314-0.203,2.537-0.391,3.368-0.391c1.268,0,3.28,0.465,5.227,0.914
			c2.115,0.488,4.111,0.951,5.535,0.951c0.397,0,0.854-0.044,1.328-0.104c0.085,0.039,0.177,0.061,0.275,0.061
			c0.376,0,0.682-0.306,0.682-0.684V46.003C38.649,45.725,38.479,45.473,38.221,45.369z M36.364,66.155
			c-1.263,0-3.27-0.464-5.211-0.912c-2.128-0.492-4.122-0.952-5.551-0.952c-0.943,0-2.217,0.196-3.563,0.403
			c-1.568,0.242-3.344,0.515-4.827,0.515c-1.393,0-2.34-0.243-2.818-0.719c-0.95-0.952-0.618-3.711-0.158-6.696
			c0.185-1.198,0.359-2.329,0.359-3.168c0-1.74-0.292-4.355-0.573-6.886c-0.28-2.521-0.568-5.104-0.568-6.774
			c0-1.214,0.286-3.117,0.562-4.959c0.299-1.993,0.58-3.863,0.58-5.182c0-0.905-0.19-2.136-0.391-3.439
			c-0.505-3.273-0.868-6.298,0.189-7.356c0.414-0.413,1.243-0.623,2.468-0.623c1.312,0,2.883,0.241,4.27,0.454
			c1.26,0.194,2.394,0.368,3.231,0.368c1.549,0,3.756-0.329,6.093-0.678c2.197-0.328,4.458-0.667,5.909-0.667
			c0.277,0,0.591,0.016,0.921,0.039v5.221H18.892c-0.377,0-0.683,0.306-0.683,0.682v21.117c0,0.377,0.306,0.683,0.683,0.683
			s0.682-0.306,0.682-0.683V25.507h17.712L37.284,37.56c-0.896-0.55-1.93-0.843-3.014-0.844c-3.187,0-5.779,2.593-5.779,5.779
			s2.593,5.778,5.779,5.778c1.085,0,2.118-0.293,3.015-0.845V58.9H19.573v-8.375c0-0.377-0.305-0.683-0.682-0.683
			s-0.683,0.306-0.683,0.683v9.057c0,0.376,0.306,0.682,0.683,0.682h18.394v5.831C36.953,66.13,36.639,66.155,36.364,66.155z"/>
	</g>
</g>
</svg>
